<svg xmlns="http://www.w3.org/2000/svg" width="173" height="173" viewBox="0 0 173 173">
    <defs>
        <clipPath id="umj19hgr0a">
            <path data-name="사각형 461323" transform="translate(-563.732 5277.16)" style="fill:#fff;stroke:#707070" d="M0 0h104v94H0z"/>
        </clipPath>
        <clipPath id="xti3hhfwxb">
            <path data-name="사각형 461322" transform="translate(-9.757 -2.757)" style="fill:#fff;stroke:#707070" d="M0 0h108v97H0z"/>
        </clipPath>
        <clipPath id="z98f1fsupc">
            <path data-name="다각형 82" d="M38.931 4.167a2 2 0 0 1 3.662 0l37.7 85.8a2 2 0 0 1-1.831 2.8H3.063a2 2 0 0 1-1.831-2.8z" transform="rotate(135 48.036 58.323)" style="fill:#fecf48"/>
        </clipPath>
    </defs>
    <path data-name="사각형 461317" style="fill:none" d="M0 0h173v173H0z"/>
    <g data-name="그룹 630279">
        <g data-name="마스크 그룹 628011" style="clip-path:url(#umj19hgr0a)" transform="translate(608.842 -5213.1)">
            <path data-name="다각형 82" d="M38.015 6.251a3 3 0 0 1 5.493 0l36.167 82.31a3 3 0 0 1-2.747 4.207H4.6a3 3 0 0 1-2.747-4.207z" transform="rotate(135 -1325.423 2579.393)" style="fill:#fecf48"/>
        </g>
        <g data-name="그룹 630266">
            <g data-name="마스크 그룹 628010" style="clip-path:url(#xti3hhfwxb)" transform="translate(46.867 61.817)">
                <g data-name="마스크 그룹 628009" style="clip-path:url(#z98f1fsupc)">
                    <path data-name="패스 1513826" d="m7978.787-1766.334-17 74.128 10.946 3.173 18.662-85.947z" transform="translate(-7946.317 1773.612)" style="fill:#ffb300"/>
                    <path data-name="패스 1513868" d="m7978.787-1766.334-17 74.128 10.946 3.173 18.662-85.947z" transform="translate(-7917.965 1775.612)" style="fill:#ffb300"/>
                    <path data-name="패스 1513869" d="m7978.787-1766.334-17 74.128 10.946 3.173 18.662-85.947z" transform="translate(-7894.965 1791.628)" style="fill:#ffb300"/>
                </g>
            </g>
        </g>
        <path data-name="패스 1513828" d="M.8 19.224S-3.454 3.655 7.65 0" transform="translate(84.323 44.359)" style="stroke-width:3px;stroke:#fc9b0d;fill:none"/>
        <path data-name="패스 1513832" d="M2.647 0 0 2.126l3.728 4.935 2.647-2.126z" transform="rotate(34 3.146 160.34)" style="fill:#3484fc"/>
        <path data-name="패스 1513844" d="M3.3 0 0 2.443l4.647 5.672 3.3-2.443z" transform="rotate(-27 129.643 -19.293)" style="fill:#ff9600"/>
        <path data-name="패스 1513845" d="M3.3 0 0 2.443l4.647 5.672 3.3-2.443z" transform="rotate(25 -9.475 116.731)" style="fill:gold"/>
        <path data-name="패스 1513833" d="M3.086 0 0 2.573l4.345 5.973 3.086-2.573z" transform="rotate(-58 110.131 27.627)" style="fill:#ff1500"/>
        <path data-name="패스 1513843" d="M3.086 0 0 2.573l4.345 5.973 3.086-2.573z" transform="rotate(26 -105.44 175.518)" style="fill:#ffd800"/>
        <path data-name="패스 1513834" d="M0 16.476C2.532 6.125 12.516 6.484 14.4 8.768c2.823 3.426-1.758 6.941-4.488 4.459s1.844-10.869 7.1-12.5a16.167 16.167 0 0 1 10.671.378" transform="rotate(9 -474.727 200.158)" style="stroke:#4c84f4;stroke-width:3px;fill:none"/>
        <g data-name="그룹 630267">
            <path data-name="패스 25803" d="M.814 0C-3.6 10.682 2.119 16.948 5.3 15.593c4.774-2.033 1.011-7.4-2.04-5.922s-5.552 10.372 3.051 18.32" transform="translate(48.074 35.995)" style="stroke:#ff1500;stroke-width:3px;fill:none"/>
        </g>
    </g>
</svg>
