<svg xmlns="http://www.w3.org/2000/svg" width="20" height="20" viewBox="0 0 20 20">
    <g data-name="그룹 22594">
        <path data-name="사각형 7943" d="M2.266-.75h10.968A2.941 2.941 0 0 1 16.25 2.1v8.3a2.941 2.941 0 0 1-3.016 2.852H2.266A2.941 2.941 0 0 1-.75 10.4V2.1A2.941 2.941 0 0 1 2.266-.75zm10.968 12.444A1.337 1.337 0 0 0 14.6 10.4V2.1A1.337 1.337 0 0 0 13.229.8H2.266A1.337 1.337 0 0 0 .9 2.1v8.3a1.337 1.337 0 0 0 1.371 1.3z" transform="translate(2.365 3.75)" style="fill:#292929"/>
        <path data-name="다각형 62" d="M2.676.767a.5.5 0 0 1 .87 0L5.8 4.737a.5.5 0 0 1-.435.747H.859a.5.5 0 0 1-.435-.747z" transform="rotate(90 3.26 10.15)" style="fill:#292929"/>
    </g>
    <path data-name="사각형 8954" style="fill:none" d="M0 0h20v20H0z"/>
</svg>
