<svg xmlns="http://www.w3.org/2000/svg" width="12" height="12" viewBox="0 0 12 12">
    <g data-name="그룹 627391">
        <g data-name="사각형 460328" style="stroke:#fff;stroke-width:.8px;fill:none">
            <path d="M5.1 0a5.1 5.1 0 0 1 5.1 5.1v.438a2.55 2.55 0 0 1-2.55 2.55h-5.1A2.55 2.55 0 0 1 0 5.538V5.1A5.1 5.1 0 0 1 5.1 0z" style="stroke:none" transform="translate(.9 3.412)"/>
            <path d="M5.1.4a4.7 4.7 0 0 1 4.7 4.7v.336a2.252 2.252 0 0 1-2.252 2.252h-4.9A2.252 2.252 0 0 1 .4 5.436V5.1A4.7 4.7 0 0 1 5.1.4z" style="fill:none" transform="translate(.9 3.412)"/>
        </g>
        <g data-name="사각형 460329" style="stroke:#fff;stroke-width:.8px;fill:none">
            <path d="M1.258 0H4.11a1.258 1.258 0 0 1 1.258 1.258 2.516 2.516 0 0 1-2.516 2.517h-.336A2.516 2.516 0 0 1 0 1.258 1.258 1.258 0 0 1 1.258 0z" style="stroke:none" transform="translate(3.316 .5)"/>
            <path d="M1.364.4H4a.964.964 0 0 1 .964.964 2.011 2.011 0 0 1-2.007 2.011h-.546A2.011 2.011 0 0 1 .4 1.364.964.964 0 0 1 1.364.4z" style="fill:none" transform="translate(3.316 .5)"/>
        </g>
        <g data-name="패스 1505155" style="fill:#fff;stroke-linecap:round">
            <path d="M-12154.853-709.845a.697.697 0 0 1-.496-.206l-1.021-1.026a.697.697 0 0 1 .002-.99.696.696 0 0 1 .99.002l.525.528 4.017-4.02a.697.697 0 0 1 1.195.493.695.695 0 0 1-.205.495l-4.511 4.518a.693.693 0 0 1-.496.206z" style="stroke:none" transform="translate(12160.609 718.76)"/>
            <path d="M-12154.853-710.145a.4.4 0 0 0 .284-.118l4.511-4.518a.4.4 0 1 0-.566-.564l-4.229 4.233-.738-.741a.4.4 0 1 0-.566.564l1.021 1.026a.4.4 0 0 0 .283.118m0 .6a.993.993 0 0 1-.708-.294l-1.021-1.027a.997.997 0 0 1 .708-1.705c.268 0 .52.105.709.295l.313.315 3.803-3.808a.994.994 0 0 1 .708-.294.997.997 0 0 1 .708 1.706l-4.512 4.518a.994.994 0 0 1-.708.294z" style="fill:#a0a0a0;stroke:none" transform="translate(12160.609 718.76)"/>
        </g>
    </g>
    <path data-name="사각형 10103" style="fill:none" d="M0 0h12v12H0z"/>
</svg>
