<svg xmlns="http://www.w3.org/2000/svg" width="20" height="20" viewBox="0 0 20 20">
    <path data-name="사각형 8856" style="fill:none" d="M0 0h20v20H0z"/>
    <g data-name="그룹 630296">
        <g data-name="그룹 630295">
            <path data-name="패스 1513889" d="M162.186 429.631a.626.626 0 1 0-.628-.625.627.627 0 0 0 .628.625z" transform="translate(-152.188 -425.2)" style="fill:#E84427"/>
            <path data-name="패스 1513890" d="M152.292 420.121a.469.469 0 0 0-.25-.415c-.12-.064-3.018-1.56-9.027-1.548s-8.9 1.52-9.021 1.584a.47.47 0 0 0-.249.416l.016 7.97a8.652 8.652 0 0 0 4.444 7.537l4.182 2.325a1.4 1.4 0 0 0 1.335 0l4.173-2.342a8.651 8.651 0 0 0 4.413-7.555zm-9.273.174a1.668 1.668 0 0 1 .528 3.252v2.078a.521.521 0 1 1-1.042 0v-2.078a1.668 1.668 0 0 1 .514-3.254zm-1.305 8.429a.516.516 0 0 1-.242.317l-4.05 2.337a.521.521 0 0 1-.522-.9l4.05-2.336a.521.521 0 0 1 .765.585zm2.582 5.241h-.729v.641a.521.521 0 0 1-1.042 0l-.013-6.788-5.626-3.233a.522.522 0 0 1-.192-.711.521.521 0 0 1 .712-.192l5.625 3.233 5.612-3.255a.521.521 0 1 1 .523.9l-5.613 3.255.007 3.647h.729a.521.521 0 0 1 0 1.042h-.729v.416h.729a.521.521 0 1 1 0 1.042zm5.075-2.8a.521.521 0 0 1-.711.192l-4.059-2.32a.521.521 0 1 1 .519-.9l4.058 2.32a.522.522 0 0 1 .193.706z" transform="translate(-133.026 -418.159)" style="fill:#E84427"/>
        </g>
    </g>
</svg>
