<svg xmlns="http://www.w3.org/2000/svg" width="24" height="24.115" viewBox="0 0 24 24.115">
    <path data-name="사각형 459524" style="fill:none" d="M0 0h24v24H0z" transform="translate(0 .115)"/>
    <g data-name="그룹 625739" transform="translate(5.749 4.341)">
        <rect data-name="사각형 459523" width="4.13" height="4.425" rx="2" transform="translate(4.186 13.354)" style="fill:#666"/>
        <rect data-name="사각형 459522" width="5.9" height="5.605" rx="2.802" transform="translate(3.301 10.381)" style="fill:#999"/>
        <path data-name="패스 1503860" d="M6.251 0A6.251 6.251 0 0 1 12.5 6.251c0 2.354-2.617 4.989-2.974 5.749a3.207 3.207 0 0 0-.326 1.379H3.3A2.836 2.836 0 0 0 2.908 12C2.468 11.1 0 8.7 0 6.251A6.251 6.251 0 0 1 6.251 0z" style="fill:#fee340"/>
    </g>
    <path data-name="패스 1504752" d="m-19805.691 9248.611.775.779" transform="translate(19810.986 -9244.574)" style="stroke-width:2px;stroke-linecap:round;stroke:#ffb624;fill:none"/>
    <path data-name="패스 1504753" d="m-19804.918 9248.611-.775.779" transform="translate(19823.623 -9244.574)" style="stroke-width:2px;stroke-linecap:round;stroke:#ffb624;fill:none"/>
    <path data-name="패스 1504754" d="m0 0 .771.78" transform="rotate(45 3.644 15.625)" style="stroke-width:2px;stroke-linecap:round;stroke:#ffb624;fill:none"/>
    <path data-name="패스 1504756" d="m-19797.021 9257.773 1.406 1.1 1.512-1.1" transform="translate(19807.563 -9244.803)" style="stroke-width:1.4px;stroke-linejoin:round;stroke-linecap:round;stroke:#ffb624;fill:none"/>
    <path data-name="패스 1504757" d="M-19794 9260.737v4.328" transform="translate(19806 -9247.329)" style="stroke-width:1.4px;stroke:#ffb624;fill:none"/>
</svg>
