<svg xmlns="http://www.w3.org/2000/svg" width="12" height="12" viewBox="0 0 12 12">
    <path data-name="사각형 7870" style="fill:none" d="M0 0h12v12H0z"/>
    <path d="M5.626 7.6H1.259a.544.544 0 1 1 0-1.088h4.367A2.216 2.216 0 1 1 7.778 9.23 2.214 2.214 0 0 1 5.626 7.6zm1.04-.543a1.111 1.111 0 1 0 1.112-1.085 1.1 1.1 0 0 0-1.112 1.087zM0 2.172A2.2 2.2 0 0 1 2.222 0a2.215 2.215 0 0 1 2.153 1.629h4.367a.544.544 0 1 1 0 1.087H4.375a2.215 2.215 0 0 1-2.153 1.627A2.2 2.2 0 0 1 0 2.172zm1.112 0a1.1 1.1 0 0 0 1.11 1.086 1.1 1.1 0 0 0 1.112-1.086 1.1 1.1 0 0 0-1.112-1.086 1.1 1.1 0 0 0-1.11 1.086z" transform="translate(.999 1.4)" style="fill:#666"/>
</svg>
