<svg xmlns="http://www.w3.org/2000/svg" width="16" height="16" viewBox="0 0 16 16">
    <path data-name="사각형 7868" style="fill:none" d="M0 0h16v16H0z"/>
    <circle data-name="타원 2683" cx="7" cy="7" r="7" transform="translate(1 1)" style="fill:#444"/>
    <g data-name="그룹 28594">
        <path data-name="패스 25632" d="M11.7 6.051a.7.7 0 1 0 .7.7.7.7 0 0 0-.7-.7z" transform="translate(-3.8 4.369)" style="fill:#fff"/>
        <path data-name="합치기 111" d="M705.358 15924.483a.378.378 0 0 1 .034-.156h-.034v-.4a1.392 1.392 0 0 1 .092-.512 1.211 1.211 0 0 1 .284-.423 2.441 2.441 0 0 1 .484-.368 2.628 2.628 0 0 0 .4-.3.987.987 0 0 0 .22-.324 1.148 1.148 0 0 0 .068-.4v-.008a.877.877 0 0 0-.128-.472.908.908 0 0 0-.364-.328 1.239 1.239 0 0 0-.56-.119 1.256 1.256 0 0 0-.563.119.933.933 0 0 0-.38.344 1.158 1.158 0 0 0-.16.528h-.006a.4.4 0 0 1 0 .041.376.376 0 0 1-.751 0 .38.38 0 0 1 .022-.127 1.91 1.91 0 0 1 .234-.757 1.558 1.558 0 0 1 .623-.6 2.35 2.35 0 0 1 1.958-.02 1.55 1.55 0 0 1 .639.556 1.381 1.381 0 0 1 .232.791v.008a1.491 1.491 0 0 1-.244.863 1.961 1.961 0 0 1-.655.611 2.231 2.231 0 0 0-.42.308.792.792 0 0 0-.216.313 1.077 1.077 0 0 0-.064.4v.279h-.034a.376.376 0 1 1-.717.156z" transform="translate(-697.86 -15915.109)" style="fill:#fff"/>
        <path data-name="합치기 111 - 윤곽선" d="M705.734 15925.06a.577.577 0 0 1-.574-.532v-.6a1.59 1.59 0 0 1 .106-.585 1.414 1.414 0 0 1 .329-.491 2.616 2.616 0 0 1 .523-.4 2.4 2.4 0 0 0 .367-.276.781.781 0 0 0 .172-.253.947.947 0 0 0 .054-.33v-.008a.675.675 0 0 0-.1-.366.706.706 0 0 0-.285-.256 1.045 1.045 0 0 0-.468-.1 1.063 1.063 0 0 0-.475.1.731.731 0 0 0-.3.27.957.957 0 0 0-.13.438V15921.789a.576.576 0 1 1-1.119-.257 2.111 2.111 0 0 1 .256-.812 1.762 1.762 0 0 1 .7-.679 2.545 2.545 0 0 1 2.144-.022 1.757 1.757 0 0 1 .718.626 1.584 1.584 0 0 1 .264.9v.008a1.7 1.7 0 0 1-.279.977 2.156 2.156 0 0 1-.719.67 2.067 2.067 0 0 0-.38.277.588.588 0 0 0-.164.233v.006a.891.891 0 0 0-.05.322v.479a.577.577 0 0 1-.59.543zm-.176-.933h.144l-.128.282a.181.181 0 0 0-.016.074.176.176 0 1 0 .351 0 .181.181 0 0 0-.016-.074l-.128-.282h.144v-.079a1.267 1.267 0 0 1 .077-.466 1 1 0 0 1 .264-.387 2.438 2.438 0 0 1 .455-.334 1.777 1.777 0 0 0 .591-.55 1.289 1.289 0 0 0 .211-.754v-.008a1.179 1.179 0 0 0-.2-.68 1.35 1.35 0 0 0-.562-.487 2.153 2.153 0 0 0-1.775.016 1.349 1.349 0 0 0-.545.523 1.711 1.711 0 0 0-.208.676v.024l-.008.023a.178.178 0 0 0-.011.061.176.176 0 0 0 .351 0v-.021l-.015-.142.034-.016a1.31 1.31 0 0 1 .176-.5 1.127 1.127 0 0 1 .46-.417 1.453 1.453 0 0 1 .653-.141 1.435 1.435 0 0 1 .648.14 1.123 1.123 0 0 1 .444.4 1.079 1.079 0 0 1 .159.578v.008a1.342 1.342 0 0 1-.08.473v.007a1.184 1.184 0 0 1-.264.39l-.006.006a2.833 2.833 0 0 1-.434.326 2.266 2.266 0 0 0-.447.34 1.016 1.016 0 0 0-.239.354 1.194 1.194 0 0 0-.078.439z" transform="translate(-697.86 -15915.109)" style="fill:#fff"/>
    </g>
</svg>
