<svg xmlns="http://www.w3.org/2000/svg" width="36" height="36" viewBox="0 0 36 36">
    <g data-name="그룹 29304">
        <path data-name="패스 25963" d="M0 0h29.992v29.992H0z" style="fill:none" transform="translate(3 3)"/>
        <path data-name="패스 25964" d="M18 6.333h3.5A1.166 1.166 0 0 1 22.661 7.5v12.83a2.333 2.333 0 1 1-4.665 0V5.166A1.166 1.166 0 0 0 16.83 4H5.166A1.166 1.166 0 0 0 4 5.166v14a3.5 3.5 0 0 0 3.5 3.5h12.83" transform="translate(4.665 4.665)" style="stroke-linecap:round;stroke-linejoin:round;stroke-width:2px;stroke:#000;fill:none"/>
        <path data-name="선 373" transform="translate(12.428 13.581)" style="stroke:#e4472b;stroke-linecap:round;stroke-linejoin:round;stroke-width:2px;fill:none" d="M0 0h6"/>
        <path data-name="선 374" transform="translate(12.428 17.993)" style="stroke:#e4472b;stroke-linecap:round;stroke-linejoin:round;stroke-width:2px;fill:none" d="M0 0h6"/>
        <path data-name="선 375" transform="translate(12.428 22.404)" style="stroke:#e4472b;stroke-linecap:round;stroke-linejoin:round;stroke-width:2px;fill:none" d="M0 0h2"/>
    </g>
</svg>
