<svg xmlns="http://www.w3.org/2000/svg" width="24" height="24" viewBox="0 0 24 24">
    <defs>
        <clipPath id="pi4jx2hdka">
            <path data-name="사각형 460217" style="fill:none" d="M0 0h24v24H0z"/>
        </clipPath>
    </defs>
    <g data-name="그룹 627157" style="clip-path:url(#pi4jx2hdka)">
        <path data-name="패스 1504951" d="M12 0A12 12 0 1 1 0 12 12 12 0 0 1 12 0" style="fill:#292929"/>
        <path data-name="패스 1504952" d="m7.628 12.514 5.188 5.028 4.358-3.96a3.605 3.605 0 0 0-4.848-5.337z" style="fill:#ffb6c4"/>
        <path data-name="패스 1504953" d="m15.221 11.538-4.765 5.244-3.63-3.2a3.605 3.605 0 1 1 4.849-5.336z" style="fill:#f97897"/>
        <path data-name="패스 1504954" d="m13.412 9.646-1.29 1.172a1.343 1.343 0 0 1-1.9-.091l-.072-.078a.319.319 0 0 1 .022-.45l2.049-1.862a.318.318 0 0 1 .45.021l.762.838a.319.319 0 0 1-.022.45" style="fill:#ffb6c4"/>
        <path data-name="패스 1504955" d="m16.848 14.2-.023.025a.871.871 0 0 1-1.23.051l-2.234-2.057a.871.871 0 0 1-.05-1.23l.023-.025a.871.871 0 0 1 1.23-.051l2.236 2.053a.87.87 0 0 1 .051 1.23" style="fill:#f97897"/>
        <path data-name="패스 1504956" d="m15.9 15.24-.1.114a.811.811 0 0 1-1.145.047l-2.322-2.139a.809.809 0 0 1-.047-1.144l.1-.114a.809.809 0 0 1 1.144-.047l2.323 2.143a.809.809 0 0 1 .047 1.14" style="fill:#f97897"/>
        <path data-name="패스 1504957" d="m14.792 16.243-.061.066a.841.841 0 0 1-1.19.049l-2.275-2.1a.842.842 0 0 1-.049-1.19l.061-.066a.842.842 0 0 1 1.19-.049l2.275 2.1a.842.842 0 0 1 .049 1.19" style="fill:#f97897"/>
        <path data-name="패스 1504958" d="m13.727 17.154-.075.082a.741.741 0 0 1-1.047.043l-2.424-2.233A.74.74 0 0 1 10.138 14l.075-.082a.74.74 0 0 1 1.046-.043l2.425 2.233a.74.74 0 0 1 .043 1.046" style="fill:#f97897"/>
        <path data-name="패스 1504959" d="m7.973 15.173-.082-.073a.741.741 0 0 1-.043-1.047l.559-.607a.74.74 0 0 1 1.046-.046l.082.076a.74.74 0 0 1 .043 1.046l-.559.607a.74.74 0 0 1-1.046.043" style="fill:#ffb6c4"/>
        <path data-name="패스 1504960" d="m9.106 16.268-.082-.074a.741.741 0 0 1-.043-1.047l.559-.607a.74.74 0 0 1 1.046-.043l.082.076a.74.74 0 0 1 .043 1.046l-.559.607a.739.739 0 0 1-1.046.042" style="fill:#ffb6c4"/>
        <path data-name="패스 1504961" d="m10.253 17.324-.082-.075a.741.741 0 0 1-.043-1.047l.559-.607a.74.74 0 0 1 1.046-.043l.082.076a.74.74 0 0 1 .043 1.046l-.559.607a.74.74 0 0 1-1.046.043" style="fill:#ffb6c4"/>
        <path data-name="패스 1504962" d="m11.412 18.271-.082-.071a.741.741 0 0 1-.043-1.047l.559-.607a.74.74 0 0 1 1.046-.043l.082.076a.74.74 0 0 1 .043 1.046l-.559.607a.74.74 0 0 1-1.046.043" style="fill:#ffb6c4"/>
    </g>
</svg>
