<svg xmlns="http://www.w3.org/2000/svg" width="48" height="48" viewBox="0 0 48 48">
    <defs>
        <clipPath id="kkwua23uya">
            <path data-name="사각형 9361" transform="translate(32 217)" style="fill:#fff" d="M0 0h24v24H0z"/>
        </clipPath>
        <clipPath id="fmr6gs5xab">
            <path data-name="사각형 9354" style="fill:none" d="M0 0h12v10.904H0z"/>
        </clipPath>
    </defs>
    <g transform="translate(-10 -12)">
        <rect width="48" height="48" rx="5" transform="translate(10 12)" style="fill:#fff"/>
        <g data-name="그룹 29372" transform="translate(-7.75 -189.999)" style="clip-path:url(#kkwua23uya)">
            <g data-name="그룹 29371" transform="translate(36.75 223)">
                <g data-name="마스크 그룹 17239" transform="translate(-1)" style="clip-path:url(#fmr6gs5xab)">
                    <rect data-name="사각형 9353" width="16.694" height="10.5" rx="5.25" transform="rotate(90 5.625 5.625)" style="fill:#e84427"/>
                </g>
                <rect data-name="사각형 9355" width="12" height="1.5" rx=".75" transform="translate(-1 10.154)" style="fill:#585a60"/>
            </g>
            <rect data-name="사각형 9356" width="4" height="1.5" rx=".75" transform="rotate(90 -87.25 129.75)" style="fill:#e84427"/>
            <rect data-name="사각형 9357" width="4" height="1.5" rx=".75" transform="rotate(-30 437.805 23.135)" style="fill:#e84427"/>
            <rect data-name="사각형 9358" width="4" height="1.5" rx=".75" transform="translate(48.75 228)" style="fill:#e84427"/>
            <rect data-name="사각형 9359" width="4" height="1.5" rx=".75" transform="rotate(-150 47.72 106.88)" style="fill:#e84427"/>
            <rect data-name="사각형 9360" width="4" height="1.5" rx=".75" transform="translate(30.75 228)" style="fill:#e84427"/>
        </g>
    </g>
</svg>
