<svg id="ico_move_20px" xmlns="http://www.w3.org/2000/svg" width="20" height="20" viewBox="0 0 20 20">
  <path id="합치기_140" data-name="합치기 140" d="M-1001.988,11940h-.04a.794.794,0,0,1-.566-.263l-4.173-4.094a.762.762,0,0,1,0-1.094.789.789,0,0,1,.557-.228.789.789,0,0,1,.557.228l2.862,2.8v-10.71l-2.862,2.808a.789.789,0,0,1-.557.228.784.784,0,0,1-.557-.228.753.753,0,0,1-.234-.545.76.76,0,0,1,.234-.549l4.21-4.129v0a.764.764,0,0,1,.142-.108l.012-.007,0,0a.9.9,0,0,1,.1-.05h0c.021-.008.042-.016.063-.021a.807.807,0,0,1,.207-.035h.057a.8.8,0,0,1,.252.05l.019.007a.743.743,0,0,1,.141.074l.006,0,.023.016.01.008.022.017,0,0,.043.036h0c.016.016.031.031.046.048l4.173,4.093a.762.762,0,0,1,0,1.094.789.789,0,0,1-.557.228.789.789,0,0,1-.557-.228l-2.862-2.8v10.71l2.862-2.806a.789.789,0,0,1,.557-.228.784.784,0,0,1,.557.228.755.755,0,0,1,.234.546.764.764,0,0,1-.234.548l-4.21,4.13v0a.776.776,0,0,1-.193.137.788.788,0,0,1-.335.087h-.017Z" transform="translate(1012 -11922)" fill="#292929"/>
  <rect id="사각형_7860" data-name="사각형 7860" width="20" height="20" fill="none"/>
</svg>
