<svg xmlns="http://www.w3.org/2000/svg" width="40" height="40" viewBox="0 0 23.999 23.999">
    <path data-name="패스 1507259" d="M12 0A12 12 0 1 1 0 12 12 12 0 0 1 12 0z" style="fill:#ccc"/>
    <g data-name="그룹 628321">
        <path data-name="패스 1" d="M288.29 221.745h-1.082a.546.546 0 0 1-.168-.063.882.882 0 0 1 .128-.111c.257-.149.517-.291.775-.44a.262.262 0 0 0 .13-.321 2.633 2.633 0 0 0-.182-.542.523.523 0 0 0-.943 0 2.054 2.054 0 0 0-.246.866 2.237 2.237 0 0 0 .218 1.3 1.482 1.482 0 0 0 1.356.827 2.927 2.927 0 0 0 1.061-.177.8.8 0 0 1 .158-.024.663.663 0 0 1-.065.161 2.279 2.279 0 0 1-2.2.916 2 2 0 0 1-1.788-1.6 2.372 2.372 0 0 1 1.712-2.832 1.908 1.908 0 0 1 2.413 1.506c.021.118.028.238.038.358s-.047.175-.17.174l-1.145.002z" transform="translate(-276.566 -209.063)" style="fill:#fff"/>
        <path data-name="패스 2" d="M189.965 146.961c0 .832.011 1.665 0 2.5a.911.911 0 0 0 .512.934 1.263 1.263 0 0 1 .232.144.461.461 0 0 1 .081.134c-.044.02-.088.058-.133.058h-1.182c-.24 0-.481-.006-.721 0-.141 0-.181-.051-.181-.187q.007-2.252 0-4.5a2.174 2.174 0 0 0-.02-.287.594.594 0 0 0-.275-.437c-.084-.055-.165-.117-.244-.179s-.087-.124.018-.182c.034-.018.07-.032.1-.048l1.556-.719c.2-.092.251-.061.251.157q.006 1.306.006 2.612z" transform="translate(-181.969 -135.742)" style="fill:#fff"/>
        <path data-name="패스 3" d="M442.969 186.6h1v.377h-.987c0 .065-.009.115-.009.166v2.438a1.691 1.691 0 0 0 .057.426.3.3 0 0 0 .389.223c.1-.024.2-.066.3-.1l.166-.052a1.064 1.064 0 0 1-.047.147 1.462 1.462 0 0 1-1.723.632.788.788 0 0 1-.5-.611 3.4 3.4 0 0 1-.066-.643c-.007-.813 0-1.626 0-2.438v-.19c-.146 0-.279.005-.411 0a.426.426 0 0 1-.132-.058c.027-.039.045-.095.082-.115a6.774 6.774 0 0 0 1.667-1.3c.036-.038.1-.046.157-.068a.479.479 0 0 1 .057.15c.003.336 0 .667 0 1.016z" transform="translate(-427.699 -175.842)" style="fill:#fff"/>
        <path data-name="패스 4" d="M574.022 320.809a.788.788 0 0 1 .8-.806.8.8 0 0 1 .81.8.814.814 0 0 1-.8.812.8.8 0 0 1-.81-.806z" transform="translate(-556.876 -306.524)" style="fill:#e84428"/>
        <path data-name="패스 5" d="M574.022 224.117a.8.8 0 0 1 .8-.813.816.816 0 0 1 .81.805.8.8 0 0 1-.8.807.789.789 0 0 1-.81-.799z" transform="translate(-556.876 -212.617)" style="fill:#e84428"/>
    </g>
</svg>
