<svg id="logo_BOA" xmlns="http://www.w3.org/2000/svg" width="40" height="40" viewBox="0 0 24 24">
  <defs>
    <style>
      .cls-1 {
        fill: #fff;
        stroke: #eee;
        stroke-width: 0.5px;
      }

      .cls-2 {
        fill: #0061aa;
      }

      .cls-2, .cls-3 {
        fill-rule: evenodd;
      }

      .cls-3 {
        fill: #e2183d;
      }

      .cls-4 {
        stroke: none;
      }

      .cls-5 {
        fill: none;
      }
    </style>
  </defs>
  <g id="타원_14583" data-name="타원 14583" class="cls-1">
    <circle class="cls-4" cx="12" cy="12" r="12"/>
    <circle class="cls-5" cx="12" cy="12" r="11.75"/>
  </g>
  <g id="그룹_628290" data-name="그룹 628290" transform="translate(13972.495 19102.648)">
    <g id="그룹_628288" data-name="그룹 628288" transform="translate(-13969.495 -19095.248)">
      <path id="패스_1507191" data-name="패스 1507191" class="cls-2" d="M351.034,235.145q.8.317,1.589.68a35.15,35.15,0,0,0-4.81,2.394q-.779-.409-1.58-.771a33.306,33.306,0,0,1,4.8-2.3" transform="translate(-344.079 -232.899)"/>
      <path id="패스_1507192" data-name="패스 1507192" class="cls-2" d="M342.428,232.292a27.536,27.536,0,0,0-4.971,2.133c.5.18,1,.375,1.493.582a28.332,28.332,0,0,1,4.824-2.257c-.443-.163-.893-.316-1.347-.458" transform="translate(-337.457 -230.746)"/>
      <path id="패스_1507193" data-name="패스 1507193" class="cls-3" d="M378.024,260.768a.362.362,0,1,1,.363.354.358.358,0,0,1-.363-.354m.069,0a.293.293,0,1,0,.294-.281.287.287,0,0,0-.294.281" transform="translate(-368.068 -251.969)"/>
      <path id="패스_1507194" data-name="패스 1507194" class="cls-3" d="M379.271,261.442H379.2l-.116-.182h-.071v.182h-.06v-.394h.176a.2.2,0,0,1,.1.02.1.1,0,0,1,.046.084c0,.079-.056.107-.127.108Zm-.189-.23c.056,0,.133.01.133-.061,0-.051-.045-.058-.095-.058h-.1v.119Z" transform="translate(-368.77 -252.445)"/>
      <path id="패스_1507195" data-name="패스 1507195" class="cls-3" d="M362.863,229.789a29.177,29.177,0,0,0-4.22-1.652c-.511.147-1.016.307-1.518.481a29.323,29.323,0,0,1,4.345,1.672q.689-.265,1.393-.5" transform="translate(-352.298 -227.611)"/>
      <path id="패스_1507196" data-name="패스 1507196" class="cls-3" d="M372.039,227.509a31.77,31.77,0,0,0-4.3-1.516q-.7.145-1.393.324a29.1,29.1,0,0,1,4.244,1.607q.717-.222,1.446-.415" transform="translate(-359.258 -225.993)"/>
      <path id="패스_1507197" data-name="패스 1507197" class="cls-3" d="M374.185,237.048a37.426,37.426,0,0,0-9.71,4.946q1.107.68,2.16,1.443a39.332,39.332,0,0,1,9.209-5.45c-.543-.33-1.1-.642-1.659-.939" transform="translate(-357.844 -234.335)"/>
      <path id="패스_1507198" data-name="패스 1507198" class="cls-3" d="M363.186,232.4a34.055,34.055,0,0,0-10.108,4.545q1.038.511,2.038,1.091a35.3,35.3,0,0,1,9.92-4.778c-.607-.305-1.225-.59-1.849-.857" transform="translate(-349.244 -230.829)"/>
    </g>
  </g>
</svg>
