<svg xmlns="http://www.w3.org/2000/svg" width="40" height="40" viewBox="0 0 24 24">
    <g data-name="타원 14548" style="fill:#fff;stroke:#eee;stroke-width:.5px">
        <circle cx="12" cy="12" r="12" style="stroke:none"/>
        <circle cx="12" cy="12" r="11.75" style="fill:none"/>
    </g>
    <g data-name="그룹 628170">
        <path data-name="패스 1506917" d="M128.171 348.14c.134 0 .369.112.69.46a21.09 21.09 0 0 0 5.11 4.1c.226.125.352.217.352.336 0 .09-.013.181-.21.181a14.081 14.081 0 0 1-2.862-.638c-.526-.247-1.66-1.167-3.012-3.5a1.67 1.67 0 0 1-.315-.7.24.24 0 0 1 .247-.239z" transform="translate(-117.208 -334.814)" style="fill:#4f8bca"/>
        <path data-name="패스 1506918" d="M125.139 327.209s.319.63-2.786 1.067l.562-1.591a.649.649 0 0 0-.568-.911.793.793 0 0 0-.688.556l-.923 2.114a16.427 16.427 0 0 1-2.513 0c-.563-.056-.707.256-.707.575 0 .556.978 1.119 1.6 1.058.395-.037.623-.055.943-.087l-3.431 7.853c-.13.294-.237.764.353.764s1.916-.539 2.137-1.163c.094-.263.777-2.2 1.539-4.363a20.746 20.746 0 0 1 2.149-.288c.366 0 .554.164.554.359 0 .452-1.083 1.749-3.184 3.35-.231.175-.04.314.078.314a10.935 10.935 0 0 0 2.489-1.535c.788-.6 2.163-2.145 2.163-3.234 0-.43-.19-.823-1.051-.823-.835 0-2.308.186-2.622.226.2-.58.406-1.149.593-1.681 1.624-.225 2.593-.372 3.164-.491.786-.167 1.416-.618 1.416-1.084.003-.994-1.267-.985-1.267-.985z" transform="translate(-109.643 -320.189)" style="fill:#572000"/>
    </g>
</svg>
