<svg xmlns="http://www.w3.org/2000/svg" width="23.998" height="23.998" viewBox="0 0 23.998 23.998">
    <defs>
        <radialGradient id="kellrp5b7b" cx=".67" cy=".113" r=".813" gradientTransform="matrix(1 0 0 1.19 0 -.022)" gradientUnits="objectBoundingBox">
            <stop offset="0" stop-color="#ebebeb"/>
            <stop offset=".006" stop-color="#ebebeb"/>
            <stop offset="1" stop-color="#989c9e"/>
        </radialGradient>
        <linearGradient id="1psmvc33da" x1=".5" x2=".5" y2="1" gradientUnits="objectBoundingBox">
            <stop offset="0" stop-color="#e73820"/>
            <stop offset=".189" stop-color="#df2f1e"/>
            <stop offset=".496" stop-color="#ca1619"/>
            <stop offset=".6" stop-color="#c30e18"/>
            <stop offset="1" stop-color="#83060d"/>
        </linearGradient>
    </defs>
    <g data-name="그룹 628185">
        <g data-name="그룹 628184">
            <path data-name="패스 1506960" d="M422.738 386.551c-.382.93-1.976 1.58-2.818 2.424-1.95 1.948-1.43 5.553.579 6.244 1.851.629.1-2.723 1.851-4.18 1.854-1.42 6.634 1.062 2.8 4.3a10.11 10.11 0 0 0-1.617 1.464c-3.138 3.132 1.95 6.683 5.676 6.23 3.3-.4 4.205-2.566 4.662-5.65.414-2.807-.145-3.788.293-5.829 1.4-3.865 5.929-.574 6.568 1.3.013-.214.034-.424.034-.645a12.028 12.028 0 0 0-21.431-7.487c2.544-1.587 4.193-.077 3.403 1.829z" transform="translate(-416.772 -380.191)" style="fill:url(#1psmvc33da)"/>
        </g>
        <path data-name="패스 1506961" d="M432.521 394.7c-.437 2.049.121 3.035-.292 5.854-.455 3.1-1.358 5.269-4.65 5.674-3.716.455-8.79-3.111-5.661-6.256a10.107 10.107 0 0 1 1.613-1.47c3.82-3.248-.948-5.74-2.8-4.314-1.744 1.463 0 4.83-1.846 4.2-2-.694-2.522-4.314-.578-6.27.84-.847 2.43-1.5 2.811-2.434.788-1.914-.856-3.43-3.389-1.84a12.019 12.019 0 1 0 21.34 8.166c-.634-1.888-5.149-5.192-6.548-1.31zm-.47-3.67c1.148.829 2.525.889 3.079.113s.075-2.075-1.074-2.9-2.531-.893-3.08-.12-.071 2.077 1.075 2.906z" transform="translate(-415.107 -383.431)" style="fill:url(#kellrp5b7b)"/>
    </g>
</svg>
