<svg xmlns="http://www.w3.org/2000/svg" width="40" height="40" viewBox="0 0 24 24">
    <path data-name="패스 1506908" d="M12 0A12 12 0 1 1 0 12 12 12 0 0 1 12 0z" style="fill:#e7310e"/>
    <g data-name="그룹 628203">
        <path data-name="패스 1507009" d="M234.381 363.091a.958.958 0 0 0-.866.439.864.864 0 0 0-.826-.439.972.972 0 0 0-.8.4v-.321h-.815v2.794h.855v-1.608a.454.454 0 0 1 .461-.483.425.425 0 0 1 .45.472v1.619h.843v-1.613a.454.454 0 0 1 .467-.478.424.424 0 0 1 .444.472v1.619h.826v-1.81a.978.978 0 0 0-1.039-1.063z" transform="translate(-226.87 -352.008)" style="fill:#fff"/>
        <path data-name="패스 1507010" d="M296.587 363.966v-.377h-.827v2.794h.855v-1.22c0-.557.309-.759.653-.759a1.161 1.161 0 0 1 .27.028v-.844a.849.849 0 0 0-.225-.028.789.789 0 0 0-.726.406z" transform="translate(-283.817 -352.422)" style="fill:#fff"/>
        <path data-name="사각형 460739" transform="translate(14.013 11.167)" style="fill:#fff" d="M0 0h.854v2.794H0z"/>
        <path data-name="패스 1507011" d="M323.267 356.986h-.767v.36a.411.411 0 0 1-.433.455h-.14v.748h.495v1.2a.848.848 0 0 0 .933.9 1.022 1.022 0 0 0 .444-.079v-.708a1.055 1.055 0 0 1-.225.028c-.186 0-.309-.062-.309-.292v-1.046h.545v-.752h-.545z" transform="translate(-306.853 -346.634)" style="fill:#fff"/>
        <path data-name="패스 1507012" d="M312.562 350.7a.551.551 0 1 0 .557.551.551.551 0 0 0-.557-.551z" transform="translate(-298.128 -341.103)" style="fill:#fff"/>
        <path data-name="패스 1507013" d="M271.111 362.952a1.5 1.5 0 0 0 .063 3 1.286 1.286 0 0 0 1.247-.746l-.707-.268a.55.55 0 0 1-.529.281.612.612 0 0 1-.643-.546h1.967a1.785 1.785 0 0 0 .017-.267 1.321 1.321 0 0 0-1.415-1.454zm-.551 1.16a.538.538 0 0 1 .563-.478.507.507 0 0 1 .568.478z" transform="translate(-260.877 -351.886)" style="fill:#fff"/>
        <path data-name="패스 1507014" d="m341.385 365.84 1.277-1.343v-.7h-2.288v.748h1.182l-1.215 1.293v.753h2.344v-.748z" transform="translate(-323.06 -352.627)" style="fill:#fff"/>
    </g>
</svg>
