<svg xmlns="http://www.w3.org/2000/svg" width="40" height="40" viewBox="0 0 24 24">
    <defs>
        <clipPath id="g278m9yyia">
            <path data-name="사각형 9840" style="fill:none" d="M0 0h14.043v4.654H0z"/>
        </clipPath>
    </defs>
    <circle cx="12" cy="12" r="12" style="fill:#0e5eb0"/>
    <g data-name="그룹 32158" style="clip-path:url(#g278m9yyia)" transform="translate(5 10)">
        <path data-name="패스 26112" d="M11.786 3.08s-.477.039-.488-.346V1.99a.351.351 0 0 1 .233-.372.668.668 0 0 1 .258-.044s.348-.011.44.195c0 0 .045.055.033.283h-.016v.007h-.37v-.117a.094.094 0 0 0-.1-.094.162.162 0 0 0-.039.008.074.074 0 0 0-.045.069v.769a.1.1 0 0 0 .109.1.083.083 0 0 0 .077-.1V2.47h-.1v-.207h.016v-.007h.476v.437a.307.307 0 0 1-.039.146l-.03.043.124-.062c2.5-1.279 2.183-2.5-.356-2.754A22.749 22.749 0 0 0 2.455 1.5l-.183.078a.869.869 0 0 1 .111 0c.464.013.435.3.435.3v.176H2.8v.007h-.37v-.12c0-.085-.1-.091-.1-.091a.134.134 0 0 0-.042.007.084.084 0 0 0-.039.041.134.134 0 0 0 .031.153 1.275 1.275 0 0 0 .23.131 1.324 1.324 0 0 1 .163.086.369.369 0 0 1 .171.328v.141a.328.328 0 0 1-.229.29.79.79 0 0 1-.293.057c-.506 0-.495-.332-.495-.332v-.169h.016v-.007h.394V2.7a.1.1 0 0 0 .1.106.127.127 0 0 0 .043-.006.118.118 0 0 0 .056-.087c.015-.1-.1-.165-.1-.165-.11-.056-.294-.155-.294-.155a.482.482 0 0 1-.127-.113.365.365 0 0 1-.061-.209v-.11c0-.153.041-.2.041-.2l.009-.016c-2.718 1.274-2.4 2.6.134 2.842a22.332 22.332 0 0 0 9.4-1.36q.176-.072.346-.148M4.3 3.038h-.4L3.759 1.95h-.017L3.6 3.032h-.016v.007H3.19l.243-1.4h.015v-.011h.622l.243 1.4H4.3zm1.962 0h-.37l-.009-1.056h-.011l-.19 1.051h-.015v.007h-.385l-.194-1.058h-.013v1.052h-.02v.006h-.366l.031-1.4h.016v-.011h.617l.118.769h.014l.123-.762h.015v-.007h.611l.04 1.4h-.015zM7.687 2.6v.141a.328.328 0 0 1-.229.29.789.789 0 0 1-.293.057c-.506 0-.5-.332-.5-.332v-.173h.016v-.007h.399V2.7a.1.1 0 0 0 .1.106.127.127 0 0 0 .043-.006.118.118 0 0 0 .056-.087c.015-.1-.1-.165-.1-.165-.11-.056-.294-.155-.294-.155a.484.484 0 0 1-.127-.113.364.364 0 0 1-.058-.213v-.11c0-.153.041-.2.041-.2a.293.293 0 0 1 .16-.129.816.816 0 0 1 .326-.05c.464.013.435.3.435.3v.176h-.016v.007h-.37v-.12c0-.085-.1-.091-.1-.091a.133.133 0 0 0-.042.007.084.084 0 0 0-.04.041.134.134 0 0 0 .031.153 1.276 1.276 0 0 0 .23.131 1.313 1.313 0 0 1 .163.086.369.369 0 0 1 .171.328m1.447.095a.341.341 0 0 1-.236.332.733.733 0 0 1-.268.055c-.563 0-.521-.4-.521-.4V1.63h.016v-.007h.4v1.062a.106.106 0 0 0 .113.113.118.118 0 0 0 .034 0 .12.12 0 0 0 .052-.1V1.63h.016v-.007h.393zm1.687.339h-.016v.01h-.436l-.389-.859.018.852h-.015v.007h-.366v-1.4h.016v-.01h.45l.376.852-.026-.845h.016v-.008h.371z" style="fill:#fff"/>
    </g>
</svg>
