<svg xmlns="http://www.w3.org/2000/svg" xmlns:xlink="http://www.w3.org/1999/xlink" width="24.002" height="24.001" viewBox="0 0 24.002 24.001">
    <defs>
        <linearGradient id="hg942ip9ga" x1=".5" y1="-1.448" x2=".5" y2="1.493" gradientUnits="objectBoundingBox">
            <stop offset="0" stop-color="#003e92"/>
            <stop offset="1" stop-color="#00a1ed"/>
        </linearGradient>
        <linearGradient id="lvc8jzxfzb" x1=".5" y1="-1.026" x2=".5" y2="1" xlink:href="#hg942ip9ga"/>
        <linearGradient id="wbl5un4iqc" x1=".5" y1="-1.424" x2=".5" y2="1.477" xlink:href="#hg942ip9ga"/>
        <linearGradient id="gcrs15kp4d" x1=".5" y1="0" x2=".5" y2="2.893" xlink:href="#hg942ip9ga"/>
        <linearGradient id="ygtc7o3vme" x1=".5" y1="0" x2=".5" y2="2.844" xlink:href="#hg942ip9ga"/>
    </defs>
    <path data-name="패스 1506832" d="M172.986 90.851a.328.328 0 0 1 .329-.338l6.236-.039a.328.328 0 0 1 .334.333.241.241 0 0 1-.022.126l-3.069 7.632a.336.336 0 0 1-.306.207.362.362 0 0 1-.236-.094c0-.005-.009-.009-.009-.014a11.965 11.965 0 0 1-3.264-7.8.018.018 0 0 1 .007-.012z" transform="translate(-172.98 -78.481)" style="fill:url(#hg942ip9ga)"/>
    <path data-name="패스 1506833" d="m178.066 100.817 3.7-9.2.009-.013a1.821 1.821 0 0 1 3.329-.144l3.89 9.284a.326.326 0 0 1 .025.126.331.331 0 0 1-.164.289l-.014.009a12.008 12.008 0 0 1-5.3 1.278 11.878 11.878 0 0 1-5.317-1.205.336.336 0 0 1-.181-.294.358.358 0 0 1 .021-.126z" transform="translate(-171.455 -78.452)" style="fill:url(#lvc8jzxfzb)"/>
    <path data-name="패스 1506834" d="M186.139 90.9v-.012a.431.431 0 0 1-.027-.12.339.339 0 0 1 .335-.34l6.238-.044a.332.332 0 0 1 .332.331v.008a11.974 11.974 0 0 1-3.149 7.858.368.368 0 0 1-.243.1.331.331 0 0 1-.307-.207l-3.179-7.574z" transform="translate(-169.019 -78.51)" style="fill:url(#wbl5un4iqc)"/>
    <path data-name="패스 1506835" d="m192.843 89.676-7.3.051h-.029a.327.327 0 0 1-.28-.2l-.586-1.4a16.211 16.211 0 0 1-1.183-5.875l-.005-.56a.33.33 0 0 1 .329-.335h.059a12.005 12.005 0 0 1 9.312 7.882h.005a.27.27 0 0 1 .017.1.331.331 0 0 1-.339.337z" transform="translate(-169.821 -81.35)" style="fill:url(#gcrs15kp4d)"/>
    <path data-name="패스 1506836" d="m181.952 88.155-.565 1.412a.352.352 0 0 1-.242.2h-.031a.1.1 0 0 1-.029.005l-7.311.053a.341.341 0 0 1-.344-.333.321.321 0 0 1 .02-.1v-.005a12.023 12.023 0 0 1 9.207-8.011h.009a.124.124 0 0 1 .044-.007.336.336 0 0 1 .338.332l.005.562h-.005a16.225 16.225 0 0 1-1.096 5.892z" transform="translate(-172.844 -81.344)" style="fill:url(#ygtc7o3vme)"/>
</svg>
