<svg xmlns="http://www.w3.org/2000/svg" width="40" height="40" viewBox="0 0 24 24">
    <g data-name="패스 1506908" style="fill:#fff">
        <path d="M12 23.75c-3.139 0-6.09-1.222-8.309-3.441A11.673 11.673 0 0 1 .25 12c0-3.139 1.222-6.09 3.441-8.309A11.673 11.673 0 0 1 12 .25c3.139 0 6.09 1.222 8.309 3.441A11.673 11.673 0 0 1 23.75 12c0 3.139-1.222 6.09-3.441 8.309A11.673 11.673 0 0 1 12 23.75z" style="stroke:none"/>
        <path d="M12 .5C8.928.5 6.04 1.696 3.868 3.868A11.425 11.425 0 0 0 .5 12c0 3.072 1.196 5.96 3.368 8.132A11.425 11.425 0 0 0 12 23.5c3.072 0 5.96-1.196 8.132-3.368A11.425 11.425 0 0 0 23.5 12c0-3.072-1.196-5.96-3.368-8.132A11.425 11.425 0 0 0 12 .5m0-.5c6.627 0 12 5.373 12 12s-5.373 12-12 12S0 18.627 0 12 5.373 0 12 0z" style="fill:#eee;stroke:none"/>
    </g>
    <g data-name="그룹 628243">
        <path data-name="패스 1507165" d="m183.2 224.488 4.532-3.029-2.483-1.7 1.567-1.037 4.1 2.732-6.059 4.17z" transform="translate(-172.892 -209.372)" style="stroke:#203e9d;stroke-miterlimit:10;stroke-width:.5px;fill:#fff"/>
        <path data-name="패스 1507166" d="m174.765 216.527-.991.727-1.149-.844 2.62-1.808-1.508-.98-6.174 4.243 3.986 2.684 4.578-3.092zm-3.3 2.173-1.045-.723 1.109-.812 1.029.771z" transform="translate(-161.883 -205.778)" style="fill:#203e9d"/>
        <path data-name="패스 1507167" d="m167.507 207.16-9 6.085 9 6.226 9-6.226zm-7.308 6.1 7.308-4.941 7.308 4.941-7.308 5.056z" transform="translate(-155.507 -201.229)" style="fill:#203e9d"/>
    </g>
</svg>
