<svg xmlns="http://www.w3.org/2000/svg" width="40" height="40" viewBox="0 0 24 24">
    <g data-name="그룹 628345">
        <circle data-name="타원 14600" cx="12" cy="12" r="12" style="fill:#1c3c70"/>
        <path data-name="패스 1507314" d="M199.363 942.37a2.2 2.2 0 0 0-1.241 1.226.9.9 0 0 1-.831.582h-1.759a.888.888 0 0 1-.882-.887.835.835 0 0 1 .882-.868l1.413.015-2.031-2.037a.879.879 0 0 1 0-1.242.881.881 0 0 1 1.241 0l2.009 2.01v-1.386a.879.879 0 0 1 .877-.881h.009a.876.876 0 0 1 .868.881v1.76a.868.868 0 0 1-.555.832zm-.313 7.442a.811.811 0 0 1-.858-.873l.013-1.407-2.037 2.032a.88.88 0 0 1-1.241-1.248l1.989-2h-1.372a.887.887 0 0 1 0-1.774h1.76a.88.88 0 0 1 .832.555 2.156 2.156 0 0 0 1.213 1.261.871.871 0 0 1 .582.831v1.753a.871.871 0 0 1-.882.873zm5.656-3.513-1.407-.014 2.031 2.031a.88.88 0 0 1 0 1.245.879.879 0 0 1-1.244 0l-2-2.01v1.385a.868.868 0 0 1-.888.887.892.892 0 0 1-.886-.887v-1.753a.876.876 0 0 1 .568-.831 2.169 2.169 0 0 0 1.247-1.234.9.9 0 0 1 .831-.582h1.754a.893.893 0 0 1 .886.887.856.856 0 0 1-.886.873zm.013-2.135h-1.753a.865.865 0 0 1-.831-.554 2.222 2.222 0 0 0-1.234-1.255.89.89 0 0 1-.582-.831v-1.76a.877.877 0 0 1 .887-.867.848.848 0 0 1 .874.867l-.014 1.413 2.031-2.037a.887.887 0 1 1 1.247 1.261l-2 2h1.379a.884.884 0 1 1 0 1.767z" transform="translate(-188.151 -932.286)" style="fill:#fff;fill-rule:evenodd"/>
    </g>
</svg>
