<svg xmlns="http://www.w3.org/2000/svg" width="40" height="40" viewBox="0 0 24 24">
    <g data-name="그룹 628295">
        <path data-name="패스 1507159" d="M12 0A12 12 0 1 1 0 12 12 12 0 0 1 12 0z" style="fill:#178f59"/>
    </g>
    <g data-name="그룹 628334">
        <path data-name="패스 1507312" d="M163.583 90.359c-1.308.769-1.709.834-3.131 1.685a14.5 14.5 0 0 0 1.629-2.034 31.558 31.558 0 0 0-4.577.529 18.216 18.216 0 0 1 4.772-1.5 16.391 16.391 0 0 0-3.192-1.9 13.679 13.679 0 0 1 5.184 1.5 8.536 8.536 0 0 1 1.675-.212 2.211 2.211 0 0 1-1 1.072 12.3 12.3 0 0 1-.73 4.621 8.4 8.4 0 0 0-.632-3.757m-9.578 11.46a5.2 5.2 0 0 1-1.889-1.16 5.888 5.888 0 0 1 .714-1.371c-.611.091-1.062.16-1.588.26a8.147 8.147 0 0 1-.841-2.481 9.01 9.01 0 0 0-.01 2.68 7.936 7.936 0 0 0-1.223.431 15.209 15.209 0 0 0 1.629.894 5.545 5.545 0 0 0 1.241 1.754 3.26 3.26 0 0 1-.113-1.339 7.794 7.794 0 0 0 2.08.333M155.96 91.2a4.339 4.339 0 0 0-.579 1.134 9.648 9.648 0 0 1 3.492 1.257 11.307 11.307 0 0 0-3.219-.206 2.463 2.463 0 0 0-.757.133 13.4 13.4 0 0 0-.731 2.721c-.308-.743-.754-2.231-.754-2.231a22.753 22.753 0 0 0-2.82 2.307 11.235 11.235 0 0 1 2.178-3.15 3.706 3.706 0 0 0-2.091-.605 8.133 8.133 0 0 1 2.081-.367 10.739 10.739 0 0 1 1.19.021 5.96 5.96 0 0 1 2.011-1.013m2.055 9.282a16.007 16.007 0 0 1-1.016 1.246 6.234 6.234 0 0 1-1.808.251 4.492 4.492 0 0 0 1.175.407 8.193 8.193 0 0 1-1.146.882 8.4 8.4 0 0 0 2.182-.821 4.022 4.022 0 0 0 .888-.055 4.985 4.985 0 0 1-.147-.6 14.89 14.89 0 0 0 1.562-1.415 10.531 10.531 0 0 1-1.633.954 17.028 17.028 0 0 1-.057-.857" transform="translate(-145.555 -83.203)" style="fill:#fff"/>
    </g>
</svg>
