<svg xmlns="http://www.w3.org/2000/svg" width="40" height="40" viewBox="0 0 24 24">
    <g data-name="타원 14546" style="fill:#fff;stroke:#eee;stroke-width:.5px">
        <circle cx="12" cy="12" r="12" style="stroke:none"/>
        <circle cx="12" cy="12" r="11.75" style="fill:none"/>
    </g>
    <g data-name="그룹 628218">
        <g data-name="그룹 628217">
            <g data-name="그룹 628216">
                <path data-name="패스 1507057" d="m131.813 415.054-.747-.489a1.5 1.5 0 0 1-1.687.03s-2.276-1.487-2.486-1.626a.736.736 0 0 0-.83 0l-2.5 1.63a1.5 1.5 0 0 1-1.687-.03l-.746.489a1.354 1.354 0 1 0 1.482 2.267l3.475-2.271a.645.645 0 0 1 .767 0l3.474 2.272a1.354 1.354 0 1 0 1.482-2.267z" transform="translate(-114.472 -401.854)" style="fill:#6ba71d"/>
            </g>
        </g>
        <path data-name="패스 1507058" d="M132.391 398.976a.506.506 0 0 1 .523 0c.142.085 1.656 1.088 1.656 1.088a1.3 1.3 0 0 0 1.573-.121l.859.563a1.151 1.151 0 1 1-1.26 1.927s-2.468-1.609-2.707-1.747a.747.747 0 0 0-.769 0c-.2.119-2.719 1.744-2.719 1.744a1.18 1.18 0 0 1-1.594-.334 1.151 1.151 0 0 1 .333-1.593l.86-.563a1.3 1.3 0 0 0 1.573.121s1.522-.994 1.672-1.085z" transform="translate(-120.643 -389.983)" style="fill:#487b23"/>
        <path data-name="패스 1507059" d="m140.427 383.21 1.82 1.2a.943.943 0 0 0 1.032-1.579l-2.865-1.874a.523.523 0 0 0-.564 0l-2.87 1.876a.943.943 0 0 0 1.031 1.579l1.847-1.2a.465.465 0 0 1 .57 0z" transform="translate(-128.128 -374.625)" style="fill:#1e2f19"/>
        <path data-name="패스 1507060" d="m150.806 437.535-1.489-2.436a.505.505 0 0 0-.931 0l-1.489 2.436c-.193.3-.147.776.385.776h3.139c.532-.001.579-.477.385-.776z" transform="translate(-136.85 -420.552)" style="fill:#1e2f19"/>
    </g>
</svg>
