<svg xmlns="http://www.w3.org/2000/svg" width="40" height="40" viewBox="0 0 24 24">
    <defs>
        <linearGradient id="qu44ej60wa" y1=".5" x2="1" y2=".5" gradientUnits="objectBoundingBox">
            <stop offset="0" stop-color="#367cc3"/>
            <stop offset=".38" stop-color="#3e8dd2"/>
            <stop offset=".785" stop-color="#4ba7a7"/>
            <stop offset="1" stop-color="#77b95b"/>
        </linearGradient>
    </defs>
    <g data-name="타원 14571" style="stroke:#eee;stroke-width:.5px;fill:#fff">
        <circle cx="12" cy="12" r="12" style="stroke:none"/>
        <circle cx="12" cy="12" r="11.75" style="fill:none"/>
    </g>
    <g data-name="그룹 628264">
        <path data-name="패스 1507170" d="M10.3 0c5.686 0 10.3 3.292 10.3 7.354s-4.609 7.354-10.3 7.354S0 11.415 0 7.354 4.609 0 10.3 0z" transform="translate(1.705 4.645)" style="fill:#fff"/>
        <path data-name="빼기 64" d="M4.514 13.44C1.687 12.067 0 9.792 0 7.354 0 3.3 4.619 0 10.3 0c4.391 0 8.3 1.991 9.734 4.954a11.3 11.3 0 0 0-.232.608 6.206 6.206 0 0 1-3.34 3.821 16.49 16.49 0 0 1-5.943 1.181 8.219 8.219 0 0 0-6 2.876z" transform="translate(1.705 4.645)" style="fill:#367cc3"/>
        <path data-name="빼기 65" d="M4.9 7.245A13.7 13.7 0 0 1 0 6.36a5.075 5.075 0 0 1 2.72-1.882 29.246 29.246 0 0 1 5.98-.761 8.332 8.332 0 0 0 4.034-1.28A8.716 8.716 0 0 0 15.2 0a6.521 6.521 0 0 1-3.065 5.127A12.624 12.624 0 0 1 4.9 7.245z" transform="translate(7.099 12.108)" style="fill:url(#qu44ej60wa)"/>
        <path data-name="패스 1507162" d="M10.937-5.344a3.233 3.233 0 0 0-.742-.21 2.416 2.416 0 0 0-.6-.071 2.856 2.856 0 0 0-.963.158 2.054 2.054 0 0 0-.775.488 2.285 2.285 0 0 0-.517.833 3.432 3.432 0 0 0-.188 1.2 3.413 3.413 0 0 0 .167 1.1 2.217 2.217 0 0 0 .488.829A2.165 2.165 0 0 0 8.6-.5a2.819 2.819 0 0 0 1.046.183q.175 0 .367-.017t.371-.05a2.656 2.656 0 0 0 .333-.083 1.219 1.219 0 0 0 .263-.117q.008-.25.013-.5t0-.508q0-.292-.013-.583t-.029-.558a2.04 2.04 0 0 0 .4.042q.092 0 .183-.008a.887.887 0 0 0 .175-.033q-.017.192-.025.6t-.008 1.088v.676q-.175.067-.438.138a5.2 5.2 0 0 1-.558.117q-.3.046-.592.083a4.308 4.308 0 0 1-.538.038A4.639 4.639 0 0 1 8.22-.17a2.614 2.614 0 0 1-1.012-.554 2.482 2.482 0 0 1-.642-.933 3.438 3.438 0 0 1-.225-1.292 3.228 3.228 0 0 1 .233-1.263 2.6 2.6 0 0 1 .658-.938 2.853 2.853 0 0 1 1.029-.583 4.238 4.238 0 0 1 1.338-.2 5.522 5.522 0 0 1 .754.046 4.047 4.047 0 0 1 .583.121 3.881 3.881 0 0 1 .446.158c.128.056.192.092.292.142a2.167 2.167 0 0 0-.142.488 4.378 4.378 0 0 0-.595-.366z" transform="translate(2.695 14.444)" style="fill:#fff"/>
        <path data-name="패스 1507164" d="M13.227-.422a8.432 8.432 0 0 0 1.329-.05 1.213 1.213 0 0 0 .429-.271 1.3 1.3 0 0 0 .292-.442 1.55 1.55 0 0 0 .108-.6 1.187 1.187 0 0 0-.129-.588.9.9 0 0 0-.371-.358 1.776 1.776 0 0 0-.579-.179 5.176 5.176 0 0 0-.754-.05h-.375s.039 2.255.05 2.538zm.4-2.842a2.906 2.906 0 0 0 .579-.058 1.575 1.575 0 0 0 .513-.2 1.065 1.065 0 0 0 .363-.367 1.111 1.111 0 0 0 .138-.579 1.038 1.038 0 0 0-.125-.546.909.909 0 0 0-.317-.317 1.216 1.216 0 0 0-.433-.15c-.161-.025-1.039-.007-1.117 0-.011.267-.05 1.317-.05 2.209zm-1.2-2.559c.144.011 1.622 0 1.767 0a4 4 0 0 1 .675.054 1.7 1.7 0 0 1 .558.192 1.045 1.045 0 0 1 .383.371 1.107 1.107 0 0 1 .142.583 1.237 1.237 0 0 1-.388.967 2.206 2.206 0 0 1-1.013.492v.017a2.056 2.056 0 0 1 1.171.358 1.223 1.223 0 0 1 .429 1.042 1.488 1.488 0 0 1-.192.783 1.548 1.548 0 0 1-.5.513 2.056 2.056 0 0 1-.679.275 3.525 3.525 0 0 1-.738.079c-.133 0-1.484-.011-1.617 0 .019-.355.019-5.37.002-5.726z" transform="translate(2.443 14.438)" style="fill:#fff"/>
        <path data-name="합치기 168" d="M1.676 5.762q-.275-.009-.559-.009H0L.02 0h1.673a11.223 11.223 0 0 1 1.2.058 3.25 3.25 0 0 1 .881.178 2.192 2.192 0 0 1 .854.545 2.148 2.148 0 0 1 .488.867A4.017 4.017 0 0 1 5.267 2.8a3.09 3.09 0 0 1-.288 1.4 2.685 2.685 0 0 1-.733.921 2.744 2.744 0 0 1-.983.5 3.935 3.935 0 0 1-1.029.146c-.189.003-.375 0-.558-.005zM1.6 5.114c.6 0 1.818.073 2.153-.3a4.452 4.452 0 0 0 .396-.514q.038-.074.073-.153A3.37 3.37 0 0 0 4.451 2.8a3.376 3.376 0 0 0-.179-1.19A1.818 1.818 0 0 0 3.78.873 1.742 1.742 0 0 0 3.042.5 11.983 11.983 0 0 0 1.963.469H.857L.8.477Q.79.643.782.815v4.299z" transform="translate(3.636 8.739)" style="fill:#fff"/>
    </g>
</svg>
