<svg xmlns="http://www.w3.org/2000/svg" width="40" height="40" viewBox="0 0 24 24">
    <defs>
        <linearGradient id="vtk4gxs7ta" x1=".5" x2=".5" y2="1" gradientUnits="objectBoundingBox">
            <stop offset="0" stop-color="#f3791f"/>
            <stop offset=".1" stop-color="#f3791f"/>
            <stop offset=".269" stop-color="#f0731f"/>
            <stop offset=".491" stop-color="#e76222"/>
            <stop offset=".741" stop-color="#da4725"/>
            <stop offset="1" stop-color="#c8242b"/>
        </linearGradient>
        <linearGradient id="jxfvjknlcb" x1=".5" x2=".5" y2="1" gradientUnits="objectBoundingBox">
            <stop offset="0" stop-color="#0eb0e6"/>
            <stop offset="1" stop-color="#0060ae"/>
        </linearGradient>
        <linearGradient id="961zvyvc4c" x1=".5" x2=".5" y2="1" gradientUnits="objectBoundingBox">
            <stop offset="0" stop-color="#8bc53f"/>
            <stop offset=".139" stop-color="#85c240"/>
            <stop offset=".32" stop-color="#74bd42"/>
            <stop offset=".525" stop-color="#59b347"/>
            <stop offset=".748" stop-color="#33a64e"/>
            <stop offset=".982" stop-color="#049557"/>
            <stop offset="1" stop-color="#009458"/>
        </linearGradient>
    </defs>
    <g data-name="패스 1506908" style="fill:#fff">
        <path d="M12 23.75c-3.139 0-6.09-1.222-8.309-3.441A11.673 11.673 0 0 1 .25 12c0-3.139 1.222-6.09 3.441-8.309A11.673 11.673 0 0 1 12 .25c3.139 0 6.09 1.222 8.309 3.441A11.673 11.673 0 0 1 23.75 12c0 3.139-1.222 6.09-3.441 8.309A11.673 11.673 0 0 1 12 23.75z" style="stroke:none"/>
        <path d="M12 .5C8.928.5 6.04 1.696 3.868 3.868A11.425 11.425 0 0 0 .5 12c0 3.072 1.196 5.96 3.368 8.132A11.425 11.425 0 0 0 12 23.5c3.072 0 5.96-1.196 8.132-3.368A11.425 11.425 0 0 0 23.5 12c0-3.072-1.196-5.96-3.368-8.132A11.425 11.425 0 0 0 12 .5m0-.5c6.627 0 12 5.373 12 12s-5.373 12-12 12S0 18.627 0 12 5.373 0 12 0z" style="fill:#eee;stroke:none"/>
    </g>
    <g data-name="그룹 628178">
        <path data-name="패스 1506875" d="M305.646 263.3a3.729 3.729 0 0 0-1.309-.78 3.5 3.5 0 0 0-1.063-.227c-.316 0-.586.1-.655.416-.131.6-.07 5.771-.023 6.369.033.439.218.7.733.686 3.594-.056 4.537-4.412 2.317-6.464z" transform="translate(-295.149 -252.595)" style="fill:url(#vtk4gxs7ta)"/>
        <path data-name="패스 1506876" d="M395.189 179.941a3.419 3.419 0 0 0-1.189-.708 3.156 3.156 0 0 0-.965-.207c-.289 0-.534.093-.6.38-.118.545-.062 5.237-.02 5.782.031.4.2.63.666.624 3.267-.056 4.124-4.012 2.108-5.871z" transform="translate(-380.598 -173.385)" style="fill:url(#jxfvjknlcb)"/>
        <path data-name="패스 1506877" d="M410.592 264.866a4.291 4.291 0 0 0-1.494-.889 3.974 3.974 0 0 0-1.213-.26c-.363 0-.672.115-.751.475-.151.686-.078 6.582-.026 7.266.04.5.248.792.835.783 4.103-.065 5.181-5.036 2.649-7.375z" transform="translate(-394.559 -253.948)" style="fill:url(#961zvyvc4c)"/>
    </g>
</svg>
