<svg xmlns="http://www.w3.org/2000/svg" width="40" height="40" viewBox="0 0 24 24">
    <path data-name="패스 1507141" d="M12 0A12 12 0 1 1 0 12 12 12 0 0 1 12 0z" style="fill:#0d688f"/>
    <g data-name="그룹 628235">
        <path data-name="패스 1507128" d="M37.887 193.043a4.333 4.333 0 1 0 3.431 6.977l-1.041-1.231a2.776 2.776 0 1 1 .226-2.344h-2.972a1.075 1.075 0 0 0-.553.1.591.591 0 0 0-.261.507v.717H42.2c.012-.131.019-.263.019-.4a4.333 4.333 0 0 0-4.332-4.326z" transform="translate(-26.954 -184.501)" style="fill:#fff"/>
        <path data-name="패스 1507129" d="M143.137 167.675a1.637 1.637 0 1 0 1.637 1.637 1.637 1.637 0 0 0-1.637-1.637zm0 2.421a.785.785 0 1 1 .785-.785.785.785 0 0 1-.785.789z" transform="translate(-126.801 -160.476)" style="fill:#df8d2f"/>
    </g>
</svg>
