<svg xmlns="http://www.w3.org/2000/svg" width="40" height="40" viewBox="0 0 24 24">
    <g data-name="타원 14588" style="fill:#fff;stroke:#eee;stroke-width:.5px">
        <circle cx="12" cy="12" r="12" style="stroke:none"/>
        <circle cx="12" cy="12" r="11.75" style="fill:none"/>
    </g>
    <g data-name="그룹 628310">
        <path data-name="패스 1507234" d="M177.114 284.338h-.011l-.02-.028h-.011l-.048-.057-.031-.03v-.009l-.021-.018v-.01l-.011-.016h-.01l-.006-.01-.026-.01-.021-.008-.021-.009-.006-.01-.031-.016-.016-.008-.005-.011-.021-.008-.006-.011h-.011l-.006-.011-.016-.008-.01-.016h-.011l-.005-.01h-.011l-.021-.028h-.01l-.043-.051h-.01l-.015-.013v-.009l-.043-.042v-.01l-.01-.007-.017-.023v-.01l.027-.03h.011l.01-.013h.01l.005-.01H176.642l.006-.009h.01l.005-.008h.011l.005-.009h.016l.016-.016h.011v-.01h.01l.032-.029h.017v-.009l.031-.024.02-.01.006-.014.016-.007v-.01l.016-.007v-.01h.011v-.01h.01v-.01h.01v-.014h.005l.005-.019h.01l.005-.018h.016l.015-.017h.01l.01-.013h.011l.005-.009h.011l.021-.02h.011l.037-.033h.011l.005-.009.015-.007v-.01h.005l.021-.021h.011v-.01l.01-.012.021-.011v-.01l.016-.007v-.01l.017-.007v-.01h.011v-.015h.011v-.015l.048-.03v-.01l.042-.012v-.037l.031-.009v-.009l.048-.021v-.01h.011l.037-.047h.01v-.01h.01v-.01h.011l.021-.025v-.015l.016-.007.01-.027h.011l.01-.032h.011v-.02h.01v-.02h.011l.005-.023.005-.033v-.01h.005v-.02h.005v-.01h.006v-.024h.011v-.018h.01v-.044h.011v-.083h.005v-.02l-.011-.066v-.087l-.01-.007v-.044l-.011-.007v-.035l-.011-.007v-.025h.005v-.03h-.005v-.015h-.006v-.009h-.005v-.021h-.006l-.005-.026h-.011.011v.012h.011l.011.016h.01l.006.011h.011l.021.028h.01l.043.051.032.026.016.026h.01l.006.016.026.024v.009l.027.024v.01l.011.007v.01l.016.012v.01l.011.006v.01l.01.007.006.016.323.358.01.006v.011l.011.006.006.015.074.085h.011l.011.016h.01l.016.022h.01l.016.023h.01l.032.039.069.071.021.028.09.094.005.01.021.009v.011l.021.008.006.012.206.2h.011l.016.027v.009l.012.007.01.007v.009l.01.006v.01l.015.012.086.088h.01v.011h.011l.01.017h.01l.01.016h.011l.016.023h.011l.042.052h.01l.016.014v.009l.048.048.069.066h.011v.006l.01.006.021.009.026.02.006.01.016.012h.01l.016.012v.011l.017.012h.01l.011.012.006.01.084.084.122.123.011.011h.009l.006.011.27.247v.006l.016.012.158.173h.01l.021.029h.01l.005.01.032.03.022.023.027.034.021.028.016.023.011.016.015.033.021.028.011.021.005.011.017.032v.014l.006.021v.014h.006v.01h.006v.015h.005v.015h.005v.014l.033.146v.057h.006v.159h-.006v.024h-.006v.023h-.005v.019h-.005v.035l-.005.033h-.006v.023h-.006v.01h-.005v.015h.017l-.01.027h-.005v.01h-.006v.019h-.005l-.011.027h-.005v.013h-.01l-.005.018h-.011v.009l-.016.008V286l-.015.007v.01l-.02.011v.01l-.047.029-.041.036h-.01l-.015.017h-.01l-.011.012h-.01l-.011.012h-.01v.009h-.016v.006h-.021l-.005.009h-.031v.009l-.047.005v.005h-.131v.005h-.046s-.156-.02-.219-.036-.222-.075-.222-.075l-.024-.008h-.007v-.005l-.027-.01-.02-.01h-.016v-.005l-.021-.008-.021-.009-.005-.011-.031-.015v-.005l-.153-.1v-.005h-.021v-.005h-.031l-.016-.008-.242-.166h-.01l-.022-.029h-.009l-.148-.114v-.005l-.021-.008h-.016l-.032-.016h-.011l-.02-.009-.006-.01-.031-.016-.006-.01h-.01l-.016-.008-.006-.01h-.01l-.011-.017h-.01l-.006-.01h-.011l-.02-.027h-.011l-.174-.143v-.005l-.031-.015H178.074l-.032-.015-.006-.01-.021-.009-.005-.011-.022-.008-.01-.016h-.011l-.005-.01h-.01l-.011-.016s-.179-.141-.247-.206-.284-.256-.308-.283l-.021-.018v-.01l-.027-.024-.006-.015-.01-.017z" transform="translate(-160.875 -270.178)" style="fill:#a9ce52"/>
        <path data-name="패스 1507235" d="M152.866 287.553v.01l.042.028v.01l.044.027v.01h.016l.006.011.016.017h.011v.015h.011l.01.026h.006v.01l.011.007v.014h.011v.01h.01l.011.027h.011v.01h.01l.027.044h.011v.009l.042.033v.01h.011v.01l.027.014v.01h.01v.01l.038.021v.011h.016l.006.011h.011v.005l.016.007v.01h.021v.01l.027.014.075.092v.01h.01l.059.065v.009h.011v.01h.016v.01h.01v.01l.07.047.021.019v.005H153.648l.005.01h.016l.005.011h.016l.022.009v.01l.027.015v.009h.011v.01h.011l.016.017v.01h.01v.01h.01l.028.029v.01h.01l.085.075v.01h.017v.009l.026.014h.016v.005l.022.009v.01h.022v.01l.037.012.006.011h.021v.01h.026l.005.011h.043v.005h.021l.038.007.005.012.059.011.005.011.054.01h.015v.006h.038l.006.011.042.012v.01l.192.055.069.012h.011l.1.009v-.01l.1-.007v-.01h.015v.01l-.026.015-.031.023v.009h-.015l-.036.032h-.011l-.016.017h-.01l-.016.016h-.01l-.01.013h-.01l-.005.008h-.026v.009h-.047l-.006.009h-.03v.005H154.585v.006h-.016v.018h-.01l-.026.025h-.024v.01l-.031.018-.047.04h-.011l-.041.027-.063.029H154.29l-.006.008h-.02l-.005.008h-.011l-.01.008h-.032v.005h-.01v.006h-.022v.005h-.058v.005h-.063l-.073.03-.021.02h-.011l-.02.02h-.011l-.01.013h-.011l-.01.012h-.011l-.005.009h-.021l-.005.009h-.037l-.005.008h-.12v.005h-.059l-.1.04h-.011l-.02.02h-.011l-.01.013h-.01l-.01.013h-.011v.01h-.01l-.011.013h-.02l-.005.009h-.021v.009h-.031l-.005.009h-.015v.009l-.173.031h-.082l-.026-.005v.005l-.026-.005v.005l-.041-.008-.194-.031-.063-.012-.042-.007v-.005l-.031-.005h-.048l-.058-.02v-.005h-.016l-.037-.012H152.432l-.021-.01h-.015l-.032-.016v-.005h-.01l-.021-.009-.005-.01-.032-.016-.005-.01-.021-.009v-.005l-.016-.008v-.011h-.011l-.005-.01h-.01l-.011-.016h-.01l-.011-.016h-.01l-.011-.017-.016-.008-.047-.056h-.011l-.038-.05h-.01l-.027-.035v-.01l-.01-.007-.011-.007v.089l-.016-.013v-.01l-.016-.013v-.009l-.01-.007-.006-.015v-.009l-.011-.007-.036-.017h-.01l-.005-.021-.01-.007v-.009l-.011-.012v-.019h-.005v-.01l-.011-.031-.006-.025v-.009h-.006v-.014h-.005l-.005-.021-.011-.051h-.025v-.014h-.006v-.015l-.007-.035v-.02l-.006-.059.011-.407h.005v-.015h.005v-.014h.006l.015-.06h.005v-.009h.005v-.023l.005-.018h.005v-.014h.005l.006-.019h.005v-.014h.01v-.01l.01-.008v-.01h.006V288h.006v-.01h.01v-.019h.011v-.01h.01v-.018h.01v-.009l.016-.007v-.01l.015-.007v-.009l.026-.014v-.01l.021-.011v-.009l.01-.008h.016v-.01h.01l.01-.013.025-.01v-.01l.011-.008h.011l.015-.017h.011l.02-.02h.011l.011-.013h.01l.01-.012h.011l.006-.009h.02v-.008H152.265v-.009h.01l.011-.008h.032v-.008h.073v-.005h.109v-.005h.016v-.005h.062l.006-.008h.01l.009-.013h.011l.01-.013h.01l.01-.013h.01l.005-.009h.021l.005-.008h.009l.006-.009h.01l.005-.009h.01l.01-.008h.022v-.005h.01l.076-.019z" transform="translate(-140.425 -274.537)" style="fill:#a9ce52"/>
        <path data-name="패스 1507236" d="m166.431 279.361-.015.016h-.011v.009l-.01.008h-.01l-.006.009h-.037v.005H166.269v.009h-.021v.009h-.01l-.005.008h-.01l-.005.009h-.011l-.005.008h-.01l-.005.008-.025.007v.01l.022.015v.01l.042.032v.01h.011v.009h.01v.009h.011v.009h.011l.027.045h.011l.011.026h.01v.01h.01l.028.058h.01l.022.043.021.023.033.016v.01l.021.008v.01l.027.015v.009h.01v.01h.011v.01l.027.029h.011v.01h.011v.009h.011l.038.061h.011v.01h.01v.014h.011l.012.032h.005l.01.027h.011l.011.026h.011l.033.026v.01h.01v.009l.038.022v.01h.011l.016.028h.01v.01h.011l.016.027h.011v.01h.011l.016.037h.011v.01h.01l.017.037h.01v.014h.011l.006.016h.005v.025l.012.007v.01l.01.007v.015l.011.007.006.03.011.007v.02h.006l.005.025h.01l.006.05h.006v.01h.005v.03l.011.007.006.045.011.006.012.041h.011l.01.042h.01l.006.036h.011l.007.05h.01l.018.175h-.005v.113h-.005v.029h-.011v.038h-.01l-.026.078h-.011l-.042.071h-.016v.014h-.01l-.022.011-.015.012v.015l-.037.012v.008h.009v-.009h.011v-.009h.011v-.008H167.022v-.009h.011l.016-.016h.011l.021-.02h.01l.036-.031h.011v-.006l.015-.006.005-.014.036-.022v-.01l.025-.014v-.01h.022v-.01h.011v-.01h.01v-.01l.015-.006.016-.024.02-.01.006-.008h.01l.005-.017h.01v-.009h.011v-.009h.01l.005-.009h.016l.021-.02h.01l.021-.02h.011v-.005h.01v-.009h.01l.021-.02v-.009l.021-.006v-.009l.026-.015v-.009l.021-.01v-.01h.016v-.01l.041-.026h.021l.006-.016H167.678v-.008h.01v-.006h.017v-.009h.01l.01-.012h.011v-.009h.005l.005-.009h.011l.021-.006v-.01l.1-.064v-.009l.016-.007v-.01l.015-.006.018-.018-.014-.021-.006-.021-.016-.012-.006-.026-.022-.033-.07-.047v-.01l-.016-.008-.005-.01h-.011l-.016-.023h-.011l-.026-.03-.011-.017h-.011l-.016-.028h-.011l-.027-.038h-.006v-.01l-.032-.031v-.009l-.01-.007v-.01l-.011-.007v-.011l-.011-.011h-.01l-.039-.08h-.011l-.044-.1-.01-.008v-.01h-.005l-.006-.03h-.005v-.014.052-.014h-.006v-.02l-.006-.031h-.006V280h-.006v-.03h-.008v-.07h-.006l-.007-.118h-.005v-.014l-.011-.007-.006-.036h-.011l-.006-.021h-.006v-.02h-.005v-.015l-.01-.007v-.025h-.01l-.006-.05h-.011V279.543l-.01-.007v-.054l-.011-.006v-.153h.011v-.054h.01v-.048h.005v-.021h.006v-.025h.01v-.019h.01v-.033h.011l.014-.052h.011v-.014h.011l.042-.065h.011l.016-.032h.01v-.01h.011l.026-.034h.01v-.01h.016l.016-.012v-.009h.011v-.009h.011l.01-.013h.011v-.009h.016v-.01l.027-.014.047-.006v-.01h.053v-.01l.048-.006h.027v.002h.021v-.009l.059.006v-.009l.048.009.005-.009.085.016h.012l.143.032v.009l.117.037v.01h.027v.009l.064.027v.009l.053.025v.01l.021.009v.005h.016l.011.016h.016v.005h.011l.042.008v.005l.037.007v.005h.027v.005l.032.006h.022l.005.011h.021v.005h.016v.005H168.745v.006l.076.033v.009l.106.059v.01l.018.008-.007-.008v-.009l-.01-.007v-.009l-.01-.012v-.011l-.011-.006-.005-.02-.011-.006v-.01h.009l-.005-.015-.011-.007v-.01l-.021-.018v-.009l-.021-.019v-.009l-.038-.036v-.016h-.011v-.009h-.011l-.074-.071-.01-.017h-.011l-.006-.011h-.01l-.01-.017-.021-.009-.005-.011-.016-.008-.031-.015h-.011l-.032-.016v-.005l-.026-.009h-.053v-.005h-.01l-.037-.012H168.382l-.026-.005v-.032h-.026l-.085-.021-.231-.034H167.891v.005h-.031v.005h-.01v.005h-.016v.005h-.02v.005h-.078l-.005.009h-.021l-.005.009h-.011v.005h-.015v.009h-.011l-.01.013h-.011l-.01.012h-.01l-.016.016h-.01l-.561.315H167.003l-.005.008h-.011v.005l-.021.01-.172.1v.01h-.01l-.015.016h-.011l-.01.008z" transform="translate(-152.297 -267.176)" style="fill:#a9ce52"/>
        <path data-name="패스 1507237" d="m117.161 258.734.01-.022h.006v-.018h.005v-.025h.005l.01-.027v-.01h.005v-.01h.005v-.02h.005v-.01l.011-.008v-.01h.01v-.019h.011l.005-.018h.011v-.01h.006v-.01h.01v-.009h.01v-.01h.011v-.01h.01v-.01l.015-.007v-.009l.016-.007v-.009l.026-.015v-.01H117.385v-.01l.129-.159h.005l.014-.016h.006v-.015h.005v-.01h.005v-.014l.011-.027v-.018h.005v-.02h.005v-.019h.006v-.013l.01-.008v-.01h.01l.005-.019h.01v-.018h.01v-.01h.005v-.009l.015-.007V258l.016-.006v-.01l.016-.006.026-.029v-.01h.01l.01-.018v-.021h.005l.016-.016h.011v-.01l.016-.016h.01l.137-.148v-.01h.005v-.019H118v-.02h.005v-.01h.005v-.019h.005v-.019h.006v-.01l.011-.008v.005h.011v-.018l.016-.007v-.018h.01v-.01h.005v-.009h.011v-.014l.016-.006v-.01l.015-.006.006-.018.026-.015v-.009l.026-.015v-.01l.077-.087v-.01l.006-.033v-.01h.006v-.028h.005v-.01h.006v-.033h.006v-.014h.005l.01-.028h.005v-.009h.005v-.01h.005v-.01h.005v-.009h.005v-.009h.005v-.01h.006v-.01l.011-.008v-.009h.011l.009-.027h.011v-.01l.015-.007v-.019h.011v-.009l.016-.007v-.024h.011v-.01l.021-.01v-.01l.026-.015v-.009l.031-.019v-.009l.061-.095h.006v-.01l.01-.042h.005v-.01h.006v-.015l.005-.018h.005v-.015l.01-.027h.005v-.019h.006v-.009h.005v-.01h.005v-.01h.006v-.019l.01-.007v-.01h.01v-.019h.01l.005-.018h.01v-.01h.01v-.009h.01v-.01h.011v-.011h.01v-.015l.016-.006v-.011l.02-.01.005-.014.046-.063v-.025h.005v-.014h.006v-.015h.005v-.019h.005v-.014h.014v-.014h.005v-.015h.006v-.01h.006l.005-.028h.006v-.023h.005l.005-.019h.005v-.01h.005v-.015h.006l.01-.027h.005v-.01h.005v-.009h.006l.01-.027h.01v-.007h.011v-.018h.01v-.01h.01v-.01h.01v-.009h.011v-.01h.011v-.01h.006l.005-.014h.01V256l.016-.007v-.009l.026-.014v-.009l.077-.111v-.014h.006v-.014h.005v-.03h.005v-.015h.005v-.009h.006v-.025h.005v-.015h.006V255.7h.005v-.014h.01v-.015h.006v-.019h.011v-.009l.011-.008v-.009h.005v-.009h.005v-.01h.01l.005-.019h.011v-.009h.01v-.009h.011v-.01h.01v-.01h.011v-.01l.015-.006v-.009l.015-.007v-.01l.067-.094h.005v-.013h.006v-.03h.006v-.03l.01-.042h.006v-.01h.005v-.015h.005v-.018h.005l.005-.023h.005l.01-.027h.005v-.009h.005v-.019h.006v-.01l.011-.008v-.009h.011v-.019h.011v-.018h.01l.006-.018.015-.007v-.009h.011v-.01h.01v-.013l.015-.007v-.009h.02v-.01l.021-.011v-.01l.139-.186v-.01h.005v-.009h.01v-.009l.01-.008v-.01h.005v-.009h.01v-.018h.005v-.014h.012v-.018l.016-.007v-.01h.011v-.01l.016-.006v-.01l.021-.011v-.01l.02-.011v-.044l.048-.03v-.01h.01l.01-.013h.011l.041-.036h.011l.016-.016h.01l.021-.021h.009l.011-.013h.011v-.009h.026l.005-.009h.011l.005-.009h.016v-.005h.031v-.009h.01l.011-.008h.01v-.005h.02l.006-.009H120.322v-.006h.021v-.005h.016v-.005h.036v-.005l.089-.018h.011l.005-.009h.021v-.009h.099v-.005h.016v-.005h.041v-.005h.015v-.005h.016v-.005H120.793l.414.1v.005h.031v.005h.016v.005H121.28v.005h.016v.005l.021.009h.016l.032.016.021.009.006.011.021.009v.011h.011l.005.011h.011l.005.011h.011v.01h.01l.005.01h.01l.016.022h.011l.021.028h.011l.01.007v.009l.085.1.015.013v.009l.016.013v.009l.01.007.006.016h.005v.01l.01.007.006.015v.009l.011.012v.01h.006v.01h.005v.01h.006v.019h.005l.011.031h.006v.023h.006V255h.005v.01h.005v.015h.005v.015h.006l.005.035H122l.055.164.005.02.006.031h.005v.01h.005l.016.065h.005v.015h.005v.014h.005v.02h.005l.011.074v.4l-.01.065v.015h-.005v.014l-.044.252h-.005v.058h-.006v.043h-.005v.057h-.006v.024h-.006v.02h-.005l-.055.177h-.006v.018h-.005v.015h-.006l-.005.019h-.005v.01h-.006v.014h-.011v.009l-.01.008-.056.125-.005.013-.005-.013-.015-.012-.006-.021-.016-.013v-.009l-.011-.007v-.01l-.016-.012-.011-.017v-.01l-.021-.019-.027-.039h-.011v-.016h-.006v-.014h-.016v-.016h-.006v-.03h-.006v-.028l-.011-.032v-.01h-.006v-.01h-.005v-.018h-.005v-.01l-.01-.011v-.01l-.011-.007-.011-.031-.016-.012v-.01l-.021-.018-.005-.016-.011-.007v-.01l-.016-.013v-.01l-.016-.013v-.009l-.037-.037-.005-.015h-.011v-.01l-.021-.014-.026-.034h-.011l-.026-.02v-.01l-.016-.008v-.005l-.016-.008-.005-.011-.032-.016-.005-.011-.016-.007h-.011l-.011-.012h-.01v-.005h-.01l-.006-.011H121.248l-.011-.012h-.037l-.005-.011-.047-.024h-.01l-.033-.011-.122-.057-.058-.016-.17-.036h-.334v.006H120.37l-.006.008h-.02v.005h-.01l-.011.008h-.01v.009h-.032l-.011.013h-.021v.009h-.016v.006h-.033v.01l-.027.009h-.01l-.027.024-.021.006v.009h-.016V256h-.011v.006h-.01l-.026.024v.01l-.01.018h-.011l-.005.013h-.005l-.005.013h-.011v.018l-.016.006-.01.027h-.011v.01l-.011.007v.01h-.005v.02h-.005v.009h-.005v.009h-.005l-.01.028h-.006l-.051.151-.009.1h-.006v.111h.005l.007.1h.005l.006.06v.02h.005v.068h.006v.015h.006v.015h.005v.014h.006v.028h.005l.011.031h.005v.009h.005v.01h.005v.02h.005v.02l.011.011v.01l.01.007.011.031.016.013.006.02.011.007.006.015h.005l.005.016h.011v.01l.016.012v.009l.011.007v.01l.016.012v.005h.01l.011.012.006.016.02.018v.015h.006v.015h.005v.014h.005v.015h.006v.01h.005v.03h.005l.011.031h.005v.009h.005v.01h.005v.009h.005v.009l.01.012v.01l.011.006.011.032.016.012.006.021.01.007.005.016.022.018v.01l.027.024v.009l.037.036.006.015h.01l.017.037.011.046h.006v.024h.006l.011.031h.005v.009h.006v.01h.005v.026l.011.007.005.02.011.006.011.032.011.006v.01l.01.007.006.021.01.006v.01l.021.018V258l.022.019v.01l.016.013.006.01h.01v.005l.011.007v.01l.016.008.006.016h.011v.012h.005v.01l.01.007.006.03h.005v.009h.005v.015h.006l.011.031h.005v.01h.006v.019h.006v.009h.005v.01l.011.012v.01l.01.007.01.031.016.012.005.016h.006v.01l.016.013v.01l.022.019v.009l.021.018v.01l.037.036.006.015h.011v.009l.016.008v.005l.027.024v.01l.01.007v.01h.005v.01h.005v.014h.005l.016.039v.038h-.005v.015h-.006v.015h-.005v.009h-.005v.014h-.006v.018h-.006v.014l-.01.028h-.006v.01h-.005v.015h-.01v.009h-.005v.015h-.01v.009h-.005v.01l-.01.008v.01h-.01l-.01.027h-.01v.01l-.015.007-.005.018-.016.007v.009h-.01l-.006.014h-.005v.01l-.016.007v.03l-.025.024-.059.08-.008.013h-.006v.034h-.005v.015l-.008.013h-.005v.015h-.005v.039h-.005v.01h-.005l-.013.027h-.005l-.006.018h.008v.024h-.016v.009h-.005l-.011.027h-.01l-.01.027h-.01l-.01.026h-.011v.01h-.01v.01h-.011v.009h-.006v.014h-.011v.009l-.015.007v.01h-.01v.01h-.01l.008.006h-.01v.009l-.021.034v.009l-.036.022v.01l-.021.01-.108.14h-.005l-.005.018v.01h-.005v.015h-.005l-.01.027h-.006v.018h-.02v.019l-.01.007v.01h-.01v.014h-.005v.013h-.011l-.005.019h-.01v.02h-.01v.009l-.016.007v.018l-.016.007v.009l-.015.007v.01h-.01v.01l-.021.011v.009l-.026.015v.01l-.079.1h-.005v.019h-.005v.01l-.02.04-.005.023v.01h-.005v.015h-.006l-.011.027v.02h-.005v.014h-.011v.014h-.009v.01h-.006v.01h-.005v.01h-.005v.01l-.01.008v.01h-.01l-.006.018h-.01l-.005.018-.015.008-.005.018-.016.006-.005.014h-.01l-.005.018-.016.007v.01l-.026.014v.01l-.026.014v.01l-.088.1v.013h-.005v.02l-.005.018-.006.029-.005.023-.006.018v.01h-.078v.015h-.005l-.01.027h-.005v.01l-.011.027h-.01v.01l-.01.007v.01h-.005v.009h-.005v.01h-.01l-.005.018h-.011v.009h-.011v.01h-.01v.009h-.01v.01h-.01v.009l-.016.007v.01h-.01v.009l-.021.011v.01l-.026.014v.01l-.021.01v.005h-.01l-.09.114-.005.008-.01.027v.019h-.006v.015h-.005v.025h-.005l-.018.025h-.029v.01h-.005v.015h-.01v.009l-.01.008v.02h-.006v.01l-.01.008v.009h-.01l-.005.019h-.01v.01h-.01v.009h-.01l-.005.019-.015.006v.019l-.016.007-.026.029v.009h-.011l-.01.017h-.005v.01H118.905v.01l-.057.038v.009h-.011l-.026.025h-.01l-.005.008-.166.153h-.006v.019l-.011.008v.009h-.011v.019h-.01l-.005.018-.016.006v.019l-.016.007-.005.018-.015.006v.01l-.016.007v.01l-.021.01v.014h-.006v.01h-.01l-.1.1h-.01l-.005.008-.042.021v.011h-.005l-.021.011v.005h-.01v.009l-.021.006v.005h-.01l-.006.008h-.005l-.005.009-.1.1h-.01l-.005.018h-.01v.01h-.011v.01h-.01v.01h-.01v.01h-.011v.01l-.015.007v.01h-.009v.009H118.03v.009l-.02.011v.01l-.036.022v.01l-.037.023v.013h-.011v.014h-.016l-.047.03-.134.134-.021.025v.01h-.01v.019h-.011v.01h-.011l-.009.013v.01h-.078v.009h-.01v.009l-.015.007-.026.029v.01h-.01l-.005.014-.015.007v.01l-.026.015-.1.073v.01l-.009.007h-.011l-.011.013-.052.024v.01h-.015l-.032.014-.01.012h-.011l-.016.007-.005.008v.008l-.005.009-.037.008v.009h-.031l-.005.009h-.031l-.317.206h-.01l-.016.016h-.009l-.016.007-.005.009h-.01v.008h-.011l-.01.012h-.011l-.01.013h-.021l-.01.013h-.011v.008h-.034v.009h-.021l-.005.008h-.011l-.01.008H116.532l-.005.009h-.069v.005H116.359v.005h-.111v.006H116.211l-.089.008-.052-.005v.005l-.314-.045-.111-.025-.21-.078-.068-.027H115.341v.081l-.031-.01h-.027l-.021-.009h-.027l-.021-.009v-.005h-.026l-.005-.011H115.162v-.005H115.141l-.011-.012h-.01l-.006-.011-.032-.015-.005-.012-.021-.008-.01-.017h-.011l-.006-.01h-.009l-.015-.008-.006-.01h-.01l-.01-.016h-.011v-.01h-.011l-.01-.017h-.011l-.021-.029h-.011l-.027-.033h-.011l-.068-.08-.042-.042v-.01l-.037-.036v-.009l-.022-.018v-.009l-.02-.019v-.009l-.011-.007v-.01l-.016-.013v-.01l-.01-.006-.005-.016h-.005v-.01l-.01-.007v-.01l-.01-.007v-.009l-.011-.007-.011-.032-.011-.006-.011-.031-.011-.007-.005-.02h-.006v-.103h-.005v-.02h-.005v-.024l-.01-.006v-.015h-.024l-.006-.02v-.015h-.005l-.005-.021h-.005l-.006-.029h-.005v-.01h-.005v-.019h-.005V262.292h-.006v-.014h-.005v-.015h-.005l-.006-.035h-.005l-.005-.044h-.005v-.019h-.021v-.065h-.006l-.005-.069h-.005l-.013-.186h.005l.009-.177h.005v-.057h.006v-.067h.006v-.02h.006v-.034h.005v-.014h.006v-.034h.006v-.009h.005l.01-.042.005-.018h.005v-.028h.005l.01-.028h.005v-.01h.005l.005-.023h.01l.005-.023h.011v-.009l.01-.008v-.01h.006v-.01h.005v-.01h.01l.01-.028h.005l.005-.013h.01v-.009h.01v-.01l.016-.007.005-.018.015-.006v-.01l.016-.006v-.01l.026-.014v-.009l.026-.015v-.009l.02-.011v-.01l.031-.013v-.01l.036-.023.005-.009h.01l.011-.007v-.01l.052-.025v-.009l.041-.016.005-.008h.01l.011-.013h.01l.011-.013h.011l.005-.009h.026v-.009h.012v-.008h.01l.135-.091.077-.082h.006l.036-.036h.005v-.009l.02-.016h.016l.037-.032.15-.107v-.01l.01-.012.01-.008V260.426h.011v-.009l.011-.008v-.01h.01v-.01h.01v-.009l.011-.014h.011l.025-.029.03-.033v-.004h.01l.028-.014v-.01l.021-.01v-.005h.01v-.009l.031-.018.061-.066h.01l.031-.028h.011l.009-.028h.011l.021-.02h.01v-.009h.011l.011-.013.045-.031.009-.007h.007l.042-.044v-.019l.005-.013h.011v-.009h.01v-.009l.022-.012v-.018h.01l.006-.013.025-.015v-.009l.026-.015v-.009l.052-.034v-.013l.2-.2h.011l.01-.026h.01l.01-.028h.005l.005-.013h.01l.005-.019.016-.006.005-.018.016-.007v-.011l.015-.006v-.01h.011v-.009l.026-.015v-.01l.026-.014v-.01l.225-.318.007-.01h.01l.005-.019h.01l.005-.018h.01v-.009h.011v-.01h.011v-.009h.011v-.01l.015-.007v-.009l.016-.007v-.009l.026-.014v-.01l.026-.015v-.009l.021-.011v-.01l.011-.008h.01" transform="translate(-109.568 -247.105)" style="fill:#00b0a8"/>
        <path data-name="패스 1507238" d="m152.285 270.7.015-.056h.011l.016-.065h.01l.005-.014h.005l.006-.013h.01l.021-.035h.01l.02-.04h.011l.02-.045h.011l.021-.036v-.015h.01v-.015h.01v-.023h.005v-.01h.011l.006-.029h.01l.005-.032h.01v-.038h.01l.005-.038h.01v-.024h.006v-.02h.01v-.058h.011v-.038h.005v-.015h.005v-.023h.017v-.023h.016v-.015h.011l.005-.023h.016v-.015h.011l.01-.033h.011v-.028h.011l.036-.081h.01l.005-.028h.011v-.033h.011v-.043h.011l.015-.065h.006v-.047h.011v-.068h.01v-.02h.005l.016-.031h.011l.015-.011.026-.054h.01l.021-.045h.011l.143-.406h.005v-.011.01h.006v.019h.005v.01h.006V269h.006v.018h.006l.011.031.1.167v.01l.021.018v.01l.015.012v.009l.016.013v.01l.011.007v.01l.011.006.005.015h.005v.01l.011.011v.01h.005v.01l.01.006.005.02h.005l.011.031h.005v.034h.006l.09.127v.009l.027.024v.009l.021.019v.01l.016.012v.01l.011.006v.01l.016.013v.01l.01.007.006.02.01.007.011.03.011.006.006.021h.005v.02h.006v.015h.006l.005.02.007.026h.005l.09.128v.01l.026.024v.009l.016.013v.01l.016.012v.01l.011.007.006.016v.01l.011.006.005.021.01.007.011.03h.005v.009h.006v.009h.005v.01h.005l.011.031h.005v.015h.006v.024H154v.024h.005v.014h.006v.014l.032.049.027.039h.005l.006.015.016.013v.01l.01.007v.01l.016.013v.009l.011.007.006.016h.005l.006.02.009.007v.009l.011.012v.01h.005v.02l.011.007v.014h.006v.009l.006.02h.006v.014h.006v.009l.005.025h.006v.014l.065.113.02.018v.01l.016.013v.01l.011.006v.01l.036.06.011.007v.01l.01.012V271.037h.005v.01h.006l.011.03h.005l.09.127.01.017h.006v.01l.021.019v.01l.016.012v.01l.016.013v.009l.01.008v.009l.011.006.006.015.007.02.01.007.005.02.027.053h.007v.005l-.016.007h-.01v.006h-.01l-.011.013h-.006v.01h-.005v.008h-.011v.014l-.016.011h.025-.01v.005l-.016.006v.01h-.01v.01l-.022.01-.026.02v.01h-.006v.01l-.015.006h-.011l-.005.009h-.022l-.052.014-.016.012h-.011v.006h-.011l-.011.012h-.01l-.005.008h-.011l-.031.028h-.01l-.016.017h-.015l-.005.013h-.016v.01l-.016.012h-.006v.006h-.015l-.005.009h-.016l-.005.009h-.01v.005h-.011v.005h-.022v.005h-.059l-.005.009h-.021l-.056.036-.074.035-.119.059-.016.011-.063.057-.015.012-.048.006-.011.013-.048.006v.009h-.022l-.01.013h-.011l-.005.009h-.021l-.01.012-.021.011h-.011v.01h-.011l-.01.013h-.011v.006H153.432v.009h-.032l-.005.009-.109.008-.062-.077-.016-.012-.005-.015-.021-.018v-.009l-.016-.013v-.01l-.016-.012v-.009l-.011-.007V272l-.01-.008-.006-.02-.011-.006-.005-.021h-.007v-.031h-.006l-.009-.011-.049-.066-.039-.046v-.005l-.021-.018v-.009l-.053-.054v-.01l-.013-.017v-.01l-.011-.006v-.01l-.011-.007v-.009l-.01-.007v-.01l-.01-.007v-.012l-.01-.007v-.01h-.006l-.006-.02-.01-.007-.006-.02h-.005l-.019-.032v-.015l-.005-.021h-.006l-.1-.139v-.01l-.027-.024v-.01l-.016-.013v-.009l-.016-.012v-.009l-.01-.007v-.01l-.01-.007-.005-.015h-.005l-.011-.031-.01-.006-.107-.188-.005-.016-.042-.041v-.01l-.022-.018v-.01l-.021-.019v-.009l-.01-.007-.006-.016h-.005v-.01l-.011-.007v-.015l-.011-.007v-.01l-.01-.007v-.01l-.026-.038z" transform="translate(-140.853 -259.184)" style="fill:#b7c51d"/>
        <path data-name="패스 1507239" d="M157.221 268.859v.006l-.005-.006z" transform="translate(-144.924 -259.115)" style="fill:#80ba2e"/>
        <path data-name="패스 1507240" d="M157.248 268.894z" transform="translate(-144.95 -259.143)" style="fill:#80ba2e"/>
        <path data-name="패스 1507241" d="M157.214 268.851z" transform="translate(-144.923 -259.108)" style="fill:#80ba2e"/>
        <path data-name="패스 1507242" d="M152.267 279.124z" transform="translate(-140.837 -267.582)" style="fill:#80ba2e"/>
        <path data-name="패스 1507243" d="M146.8 265.884v-.014h-.005v-.01h-.005v-.01l-.01-.007v-.01l-.027-.024v-.009l-.016-.008v-.009h-.01l-.006-.016-.037-.036v-.01l-.021-.018v-.01l-.021-.019v-.01l-.016-.013v-.01h-.005l-.006-.016-.016-.013-.011-.031-.01-.007v-.01l-.01-.012v-.01h-.005v-.009h-.006v-.01h-.005v-.009h-.006v-.01h-.005l-.011-.031h-.006v-.014h-.005v-.009h-.005l-.059-.084v-.01l-.011-.007v-.005h-.01l-.006-.011-.016-.012v-.01l-.022-.019v-.009l-.021-.018v-.01l-.01-.007-.007-.021-.01-.007v-.01l-.011-.006-.01-.032-.011-.006-.006-.02-.011-.007v-.039h-.005v-.01h-.006v-.009h-.005l-.011-.031h-.006v-.014h-.005v-.01h-.006l-.081-.137v-.009l-.027-.024v-.01l-.022-.018-.005-.016-.01-.007-.006-.021-.016-.013-.011-.032-.01-.006v-.01l-.011-.012v-.011h-.005v-.009h-.005v-.01h-.006v-.009l-.012-.031H146v-.041h-.006l-.006-.01-.005-.016-.032-.064-.017-.027h-.01v-.005l-.016-.012v-.01l-.01-.006v-.009l-.016-.012v-.01h-.011l-.005-.016h-.005l-.005-.015-.011-.007-.006-.02-.016-.013-.011-.031-.01-.007v-.01l-.011-.011v-.01h-.005v-.02h-.005v-.019l-.011-.031h-.005v-.028h-.006v-.015h-.005v-.015h-.006v-.014h-.005v-.052h-.043v-.039h-.006v-.02l-.006-.06h-.006l-.007-.1v-.111h.006l.009-.1.051-.151h.006l.009-.027h.005v-.009h.005v-.009h.005v-.01h.005v-.01h.005v-.01l.011-.008v-.01h.011l.01-.027.016-.006.005-.018h.011v-.013h.005l.005-.013h.011l.01-.018v-.01l.026-.024h.011v-.006h.011v-.009h.016v-.009l.021-.006.027-.025H146l.027-.009v-.01h.016v-.008h.016l.005-.009h.021l.011-.013h.031v-.009h.011l.011-.008h.01v-.005h.02l.006-.008H146.237v-.006h.334l.169.036.058.016.122.057.033.011h.01l.047.024.005.011h.011l.011.012H147.058l.006.011h.01v.005h.011l.011.012h.011l.016.007.005.011.032.016.006.011.016.008v.005l.016.008v.01l.027.02h.011l.026.034.021.014v.01h.011l.005.015.037.037v.009l.016.013v.01l.016.013v.01l.011.007.005.016.021.018v.01l.017.012.011.031.01.007v.01l.01.011v.01h.005v.019h.005v.01h.006v.01h.005l.016.033.1.169v.009h.005l.011.017.016.012v.01l.011.007v.009l.016.013.006.021.015.012V264.12h-.005l-.143.406h-.011l-.021.046h-.011l-.026.054-.061.13h-.011v.047h-.006l-.015.066h-.011v.043h-.011v.033h-.011l-.005.028h-.01l-.036.081h-.011v.028h-.011l-.01.033-.01.013-.021.025-.01.012-.052.1-.015.061h-.01v.02h-.006v.024h-.01v.037h-.011v.038h-.01v.032h-.011l-.006.029h-.01v.01h-.005v.023h-.011v.015h-.01v.015l-.021.036h-.011l-.02.045h-.011l-.02.04-.083.125-.026.054v.024l-.016-.039z" transform="translate(-135.393 -254.386)" style="fill:#008f95"/>
        <path data-name="패스 1507244" d="M176.485 291.008h-.01v-.006h.008z" transform="translate(-160.818 -277.387)" style="fill:#80ba2e"/>
        <path data-name="패스 1507245" d="M182.239 282.137h.006v.011l-.02-.025z" transform="translate(-165.561 -270.061)" style="fill:#80ba2e"/>
        <path data-name="패스 1507246" d="m173.228 281.544-.005-.021-.016-.012-.006-.026h-.001l-.022-.033-.069-.047v-.01l-.016-.008-.005-.01h-.011l-.016-.023h-.011l-.026-.03-.011-.017H173l-.016-.028h-.011l-.027-.039h-.006v-.01l-.032-.03v-.01l-.01-.007v-.01l-.011-.007v-.011l-.021-.009-.039-.084h-.011l-.044-.1-.01-.007v-.01h-.005l-.006-.03v-.043h-.006v-.02h-.005l-.006-.031h-.006V280.793h-.028v-.03h-.005v-.064h-.005l-.078-.268-.006-.05h-.005v-.01h-.005v-.034l-.01-.007v-.054l-.011-.006v-.153h.011v-.054h.01v-.067h.006v-.025h.01v-.019h.011v-.033h.011l.015-.052h.011v-.014h.011l.042-.065h.011l.015-.032h.01v-.01h.011l.026-.034h.011v-.01h.016l.016-.012v-.009h.011v-.009h.011l.01-.013h.011v-.009h.016v-.01l.027-.014.047-.006v-.01h.053v-.01l.048-.006h.016v-.005h.011v-.005h.021l.005-.009.058.006v-.009l.048.009.005-.009.085.016h.012l.143.032v.009l.117.037v.01h.026v.009l.086.027.208.113.036.02h.022v.011h.021v.005h.016v.005H174.037v.006l.075.033v.009l.106.059V280l.019.009.02.025h.011l.005.026h.006V280.089h.006v.015h.005v.02h.006v.01h.005v.025l.01.007v.035l.011.007v.044l.01.007v.083l.011.066h-.005v.02h-.005v.083h-.011v.044h-.011v.035h-.011v.025h-.005v.01h-.005v.02h-.006v.01l-.005.033-.005.023h-.011v.02h-.01v.02h-.01l-.01.032h-.011l-.01.027-.016.007v.015l-.02.025h-.011v.01h-.011v.01h-.01l-.038.047h-.011v.01l-.048.021v.009l-.032.01v.009l-.09.067h-.011v.015h-.011v.01l-.016.007v.01l-.016.007v.01l-.02.011-.011.012v.01h-.01l-.021.021h-.005v.01l-.015.007-.005.009h-.01l-.169.126h-.005v.013h-.01v.01h-.01v.009h-.011v.01l-.016.007v.01l-.016.007-.006.014-.02.01-.031.024v.009h-.017l-.032.029h-.011v.01h-.011l-.016.016h-.016l-.005.009h-.01l-.005.008h-.01l-.005.009H173.316l-.005.01h-.01l-.011.014h-.011l-.026.03v.01-.005h-.008l-.014-.021z" transform="translate(-157.587 -267.949)" style="fill:#57b04f"/>
        <path data-name="패스 1507247" d="M158.012 287.538z" transform="translate(-145.58 -274.526)" style="fill:#80ba2e"/>
        <path data-name="패스 1507248" d="M166.132 283.5z" transform="translate(-152.278 -271.198)" style="fill:#80ba2e"/>
        <path data-name="패스 1507249" d="M158.135 284.19h.031v-.009h.022v-.006h.011l.01-.013h.011v-.01h.01l.021-.011.01-.012h.021l.006-.009h.011l.01-.013h.022v-.009l.048-.006.011-.013.047-.006.015-.012.063-.057.016-.011.1-.056h.016v-.01l.074-.035.063-.032h.022v-.008h.059v-.005h.022v-.005h.011v-.005h.011v-.009h.016l.005-.009h.017v-.006h.005l.015-.012v-.01h.016v-.013h.016l.016-.017h.01l.031-.028h.011v-.008h.011l.01-.013h.012v-.006h.012l.015-.012.053-.014.085-.058.021-.01v-.01h.01v-.01l.016-.007v-.005h.015l.016-.011v-.014h.011V283.537h.006l.011-.013h.01v-.006h.01l.016-.007v-.011.01l.022.014v.01l.042.032v.01h.011v.009h.011v.009h.011v.009h.011l.027.045h.011l.011.026h.01v.01h.01l.037.061.076.083v.01l.021.008v.01l.027.015v.009h.01v.01h.01v.01l.027.029h.011v.01h.011v.009h.011l.038.061h.011v.01h.01v.014h.011l.14.158v.01h.011l.016.028h.01v.01h.011l.016.027h.011v.01h.011l.016.037h.011v.01h.01l.017.037h.01v.014h.011l.006.016h.005l.005.025.012.007v.01l.01.007v.015l.011.007.006.03.011.007v.02h.005l.005.025h.01l.007.05h.006v.01h.005v.03l.011.007.028.092h.011l.011.042h.01l.006.036h.011l.006.05h.01l.018.175h-.005v.113h-.005v.029h-.011v.038h-.01l-.026.079h-.011l-.041.071h-.017v.014h-.011l-.021.011-.015.012v.014l-.037.012v.008l-.009.006-.01.007h-.031l-.005.009h-.031l-.005.009h-.011v.009l-.027.015h-.015v.01l-.1.007v.01l-.1-.009h-.011l-.069-.012-.192-.055v-.01l-.042-.012-.005-.011h-.038v-.006h-.016v-.005l-.053-.01-.005-.011-.059-.011-.005-.012-.038-.007h-.021v.053h-.043l-.005-.011h-.027v-.01h-.021l-.006-.011-.037-.012v-.01h-.022v-.01l-.022-.009v-.027h-.016l-.026-.015v-.009h-.016v-.01l-.086-.075H159v-.01l-.027-.029h-.01v-.01h-.01v-.01l-.1-.082-.021-.014v-.01h-.022v-.005l-.021-.019-.071-.047v-.01h-.01v-.009h-.016v-.01h-.011v-.009l-.059-.065h-.01v-.01l-.1-.106v-.01h-.021v-.01l-.016-.007v-.006h-.011l-.006-.011h-.016l-.005-.011-.037-.021v-.06h-.011v-.01l-.027-.015v-.01h-.011v-.01l-.043-.032v-.009h-.01l-.027-.044h-.011v-.01h-.011l-.011-.027h-.011v-.01h-.011v-.023l-.011-.007v-.01h-.006l-.01-.026h-.011v-.015h-.011l-.016-.017-.006-.011h-.016v-.01l-.044-.027v-.01l-.042-.028v-.01h-.009l.108-.008z" transform="translate(-145.588 -271.198)" style="fill:#5fa124"/>
    </g>
</svg>
