<svg xmlns="http://www.w3.org/2000/svg" width="40" height="40" viewBox="0 0 24 24">
    <defs>
        <linearGradient id="apsgjl56oa" y1=".5" x2=".998" y2=".5" gradientUnits="objectBoundingBox">
            <stop offset="0" stop-color="#fe8f1a"/>
            <stop offset="1" stop-color="#d2311d"/>
        </linearGradient>
    </defs>
    <g data-name="타원 14561" style="fill:#fff;stroke:#eee;stroke-width:.5px">
        <circle cx="12" cy="12" r="12" style="stroke:none"/>
        <circle cx="12" cy="12" r="11.75" style="fill:none"/>
    </g>
    <g data-name="그룹 628206">
        <path data-name="패스 1507015" d="M125.97 410.558v-.058l.007-.238.032-.15c-.053.006-.122.008-.176.011h-.072a1 1 0 0 1-.3-.046.366.366 0 0 0 .111.154.306.306 0 0 0 .112.029l.009.114.005.305v.187a1.013 1.013 0 0 1-.406.091.637.637 0 0 1-.515-.234.963.963 0 0 1-.195-.631 1.063 1.063 0 0 1 .2-.671.622.622 0 0 1 .514-.248.629.629 0 0 1 .294.078.779.779 0 0 1 .252.208l.007.009h.073l.031-.143.038-.138-.016-.01a1.27 1.27 0 0 0-.33-.139 1.494 1.494 0 0 0-.378-.045.926.926 0 0 0-.72.308 1.156 1.156 0 0 0-.275.8 1.057 1.057 0 0 0 .268.749.915.915 0 0 0 .7.287 1.973 1.973 0 0 0 .737-.129l.017-.007-.015-.16z" transform="translate(-122.694 -397.478)" style="fill:#272d78"/>
        <path data-name="패스 1507016" d="M419.855 410.558v-.058l.007-.238.032-.15c-.053.006-.122.008-.176.011h-.072a.994.994 0 0 1-.3-.046.361.361 0 0 0 .111.154.3.3 0 0 0 .112.029l.009.114.005.305v.187a1.015 1.015 0 0 1-.407.091.639.639 0 0 1-.515-.234.964.964 0 0 1-.195-.631 1.064 1.064 0 0 1 .2-.671.636.636 0 0 1 .809-.17.782.782 0 0 1 .252.208l.007.009h.073l.03-.143.038-.138-.016-.01a1.267 1.267 0 0 0-.33-.139 1.493 1.493 0 0 0-.378-.045.924.924 0 0 0-.72.308 1.155 1.155 0 0 0-.276.8 1.058 1.058 0 0 0 .268.749.916.916 0 0 0 .7.287 1.975 1.975 0 0 0 .737-.129l.017-.007-.015-.16z" transform="translate(-399.009 -397.478)" style="fill:#272d78"/>
        <path data-name="패스 1507017" d="M156.677 408.817a.842.842 0 0 0-.664.333 1.225 1.225 0 0 0-.234.813 1.1 1.1 0 0 0 .272.744.824.824 0 0 0 .662.268.845.845 0 0 0 .665-.333 1.228 1.228 0 0 0 .235-.813 1.256 1.256 0 0 0-.272-.744.823.823 0 0 0-.664-.268zm.634 1.089a1.146 1.146 0 0 1-.153.624.528.528 0 0 1-.887.043 1.068 1.068 0 0 1-.19-.632 1.185 1.185 0 0 1 .153-.68.528.528 0 0 1 .886-.044 1.071 1.071 0 0 1 .19.632l.001.057z" transform="translate(-152.321 -397.306)" style="fill:#272d78"/>
        <path data-name="패스 1507018" d="m351.557 411.44-.228-.273-.159-.2-.331-.425a.989.989 0 0 0 .336-.128.489.489 0 0 0 .25-.424.445.445 0 0 0-.171-.379.841.841 0 0 0-.5-.125h-.118l-.149.007h-.14l-.258-.011v.031l.009.1.009.263v1.303l-.008.261-.01.1v.029h.032l.147-.009.177.011v-.031l-.009-.1-.009-.26s0-.494-.006-.607h.056l.332.411.164.211.167.217.1.155h.018l.181-.009.241.012-.039-.046zm-.62-1.156a.721.721 0 0 1-.413.106h-.108v-.707l.22-.009a.564.564 0 0 1 .337.086.283.283 0 0 1 .113.244.319.319 0 0 1-.149.28z" transform="translate(-335.014 -397.937)" style="fill:#272d78"/>
        <path data-name="패스 1507019" d="m378.613 409.613.011-.127h-.031l-.139.009-.169-.01v.031l.009.1.009.261v1.303l-.008.26-.01.1v.029h.03l.14-.009.168.011v-.031l-.008-.1-.009-.261v-1.303z" transform="translate(-361.524 -397.933)" style="fill:#272d78"/>
        <path data-name="패스 1507020" d="m451.03 411.1-.245.021-.268.01h-.532l-.007-.778h.258l.341.006.26.018v-.032l-.009-.09.011-.121h-.032l-.229.015-.341.007h-.259l.008-.687h.585l.287.008.2.022v-.033l-.009-.093.012-.124h-.032l-.175.017-.281.005h-.3l-.414-.007-.195-.019v.032l.009.1.009.26v1.332l-.009.26-.012.128h.032l.174-.015.4-.007h.3l.224.007.263.018v-.032l-.009-.1.012-.127z" transform="translate(-428.636 -397.704)" style="fill:#272d78"/>
        <path data-name="패스 1507021" d="M247.956 411.13h-.532l-.007-.778h.258l.341.006.26.018v-.032l-.009-.09.012-.121h-.032l-.229.015-.341.007h-.26l.008-.687h.585l.287.008.2.022v-.033l-.008-.093.012-.124h-.032l-.175.017-.282.005h-.3l-.415-.007-.195-.019v.032l.009.1.009.26v1.332l-.009.26-.012.128h.032l.175-.015.4-.007h.3" transform="translate(-238.185 -397.704)" style="fill:#272d78"/>
        <path data-name="패스 1507022" d="m190.527 411.328-.189.021-.336.01h-.584l-.007-.825v-.659l.009-.262.011-.125h-.031l-.139.009-.167-.01v.031l.008.1.009.261V411.196l-.009.261-.011.127h.031l.17-.016.465-.007h.3l.291.007.209.018v-.032l-.008-.1.011-.127z" transform="translate(-183.647 -397.933)" style="fill:#272d78"/>
        <path data-name="패스 1507023" d="m217.3 409.482-.575.009-.161-.011v.032l.008.1.008.263v1.303l-.008.262-.009.1v.029h.029l.135-.009.425.009a1.049 1.049 0 0 0 .787-.3 1.116 1.116 0 0 0 .287-.808 1.013 1.013 0 0 0-.241-.721.9.9 0 0 0-.685-.258zm.6.953a1.1 1.1 0 0 1-.187.692.653.653 0 0 1-.542.233 2.185 2.185 0 0 1-.306-.014l-.006-.825.008-.826c.105-.008.17-.012.308-.012a.72.72 0 0 1 .54.19.782.782 0 0 1 .185.562z" transform="translate(-209.472 -397.929)" style="fill:#272d78"/>
        <path data-name="패스 1507024" d="m388.353 409.482-.575.009-.161-.011v.032l.008.1.008.263v1.303l-.008.262-.009.1v.029h.029l.134-.009.426.009a1.05 1.05 0 0 0 .787-.3 1.116 1.116 0 0 0 .286-.808 1.014 1.014 0 0 0-.24-.721.9.9 0 0 0-.685-.258zm.6.953a1.1 1.1 0 0 1-.187.692.653.653 0 0 1-.542.233 2.174 2.174 0 0 1-.305-.014l-.006-.825.009-.826c.105-.008.169-.012.308-.012a.72.72 0 0 1 .54.19.781.781 0 0 1 .188.562z" transform="translate(-370.3 -397.929)" style="fill:#272d78"/>
        <g data-name="그룹 628204">
            <path data-name="패스 1507025" d="M258.059 440.577h.212l.221.006.134.012.053-.247h-.01l-.191.021-.264.01h-.095" transform="translate(-248.487 -426.952)" style="fill:#272d78"/>
        </g>
        <g data-name="그룹 628205">
            <path data-name="패스 1507026" d="M329.077 427.607a.881.881 0 0 0-.449-.1h-.222v.791l.208.011a.816.816 0 0 0 .459-.109.383.383 0 0 0 .137-.32.314.314 0 0 0-.133-.273z" transform="translate(-314.628 -414.884)" style="fill:none"/>
            <path data-name="패스 1507027" d="M329.014 413.465a.311.311 0 0 0 .13-.263.26.26 0 0 0-.118-.225.712.712 0 0 0-.372-.087 1.817 1.817 0 0 0-.247.015v.661h.206a.725.725 0 0 0 .401-.101z" transform="translate(-314.628 -401.135)" style="fill:none"/>
            <path data-name="패스 1507028" d="M324.206 410.565a.144.144 0 1 1-.08-.194.465.465 0 0 0 .218-.4.392.392 0 0 0-.184-.352 1.183 1.183 0 0 0-.576-.114h-.519l-.1.5v.545l-.005.651-.009.262-.009.1v.029h.03l.142-.009.422.009a1.074 1.074 0 0 0 .641-.164.517.517 0 0 0 .234-.436.484.484 0 0 0-.205-.427zm-.938-.84a1.822 1.822 0 0 1 .247-.015.713.713 0 0 1 .372.087.261.261 0 0 1 .118.225.311.311 0 0 1-.13.263.725.725 0 0 1-.4.1h-.206zm.666 1.552a.771.771 0 0 1-.459.109l-.208-.011v-.791h.222a.821.821 0 0 1 .449.1.325.325 0 0 1 .132.277.382.382 0 0 1-.136.316z" transform="translate(-309.49 -397.956)" style="fill:#272d78"/>
        </g>
        <path data-name="패스 1507029" d="M272.335 400.815c.17 0 .267.116.253.312 0 0-.007.057-.013.09l-.379 2.064h1.033l.375-1.914c0-.008.008-.046.016-.108a.618.618 0 0 0-.006-.192.489.489 0 0 0-.136-.273.514.514 0 0 0-.373-.123h-1.973l-.565 2.636h.584a.556.556 0 0 0 .207-.036.714.714 0 0 0 .181-.107.658.658 0 0 0 .245-.428l.267-1.4.095-.5.006-.03h.186z" transform="translate(-260.244 -389.648)" style="fill:url(#apsgjl56oa)"/>
    </g>
</svg>
