<svg xmlns="http://www.w3.org/2000/svg" width="40" height="40" viewBox="0 0 24 24">
    <g data-name="패스 1506907" style="fill:#fff">
        <path d="M12 23.75c-3.139 0-6.09-1.222-8.309-3.441A11.673 11.673 0 0 1 .25 12c0-3.139 1.222-6.09 3.441-8.309A11.673 11.673 0 0 1 12 .25c3.139 0 6.09 1.222 8.309 3.441A11.673 11.673 0 0 1 23.75 12c0 3.139-1.222 6.09-3.441 8.309A11.673 11.673 0 0 1 12 23.75z" style="stroke:none"/>
        <path d="M12 .5C8.928.5 6.04 1.696 3.868 3.868A11.425 11.425 0 0 0 .5 12c0 3.072 1.196 5.96 3.368 8.132A11.425 11.425 0 0 0 12 23.5c3.072 0 5.96-1.196 8.132-3.368A11.425 11.425 0 0 0 23.5 12c0-3.072-1.196-5.96-3.368-8.132A11.425 11.425 0 0 0 12 .5m0-.5c6.627 0 12 5.373 12 12s-5.373 12-12 12S0 18.627 0 12 5.373 0 12 0z" style="fill:#eee;stroke:none"/>
    </g>
    <g data-name="그룹 628156">
        <path data-name="패스 1506878" d="m166.575 405.255-.469 3.269h.9l.469-3.269z" transform="translate(-157.413 -396.526)" style="fill:#00316c"/>
        <path data-name="패스 1506879" d="m249.071 405.255-.469 3.269h2.111l.1-.706h-1.279l.087-.6h1.16l.095-.659h-1.161l.086-.6h1.244l.1-.7z" transform="translate(-232.541 -396.526)" style="fill:#00316c"/>
        <path data-name="패스 1506880" d="M120.139 407.128s.752-1.723.812-1.873h1.133c0 .229-.151 3.037-.149 3.269h-.815l.135-2.289s-.917 2.143-.978 2.289h-.645l-.29-2.289c-.021.1-.327 1.633-.494 2.289h-.812c.085-.292.706-3.1.754-3.269h1.092z" transform="translate(-113.637 -396.526)" style="fill:#00316c"/>
        <path data-name="패스 1506881" d="M214.078 407.862s.059.532.079.662h.864c-.048-.269-.519-3.078-.554-3.269h-1.092c-.063.136-1.31 2.947-1.458 3.269h.876c.047-.11.269-.661.269-.661zm-.77-.675.516-1.213.168 1.213z" transform="translate(-199.132 -396.526)" style="fill:#00316c"/>
        <path data-name="패스 1506882" d="M183.254 405.868h.2a.488.488 0 0 1 .386.125.4.4 0 0 1 .071.327s-.028.25-.192.329a.623.623 0 0 1-.3.078h-.407l.769 1.8h.873l-.66-1.378a.81.81 0 0 0 .792-.813 1.652 1.652 0 0 0 .017-.222.816.816 0 0 0-.18-.553 1.142 1.142 0 0 0-.864-.3h-1.235c-.029.2-.431 3.007-.47 3.269h.821l.379-2.655" transform="translate(-171.938 -396.526)" style="fill:#00316c"/>
        <g data-name="그룹 628157">
            <path data-name="패스 1506884" d="M379.876 422.431h-.028.028" transform="translate(-366.819 -408.497)" style="fill:#00316c"/>
            <path data-name="패스 1506885" d="m393.357 419.7.048-.011-.05.011z" transform="translate(-379.119 -405.997)" style="fill:#00316c"/>
            <path data-name="패스 1506886" d="m376.721 422.9-.056.009.056-.009" transform="translate(-363.92 -408.925)" style="fill:#00316c"/>
            <path data-name="패스 1506887" d="m395.335 418.89-.189.045.189-.045" transform="translate(-380.75 -405.272)" style="fill:#00316c"/>
            <path data-name="패스 1506888" d="M373.739 423.418h.018-.018" transform="translate(-361.255 -409.393)" style="fill:#00316c"/>
            <path data-name="패스 1506889" d="m400.879 417.661-.119.031.119-.031" transform="translate(-385.863 -404.153)" style="fill:#00316c"/>
            <path data-name="패스 1506890" d="M357.859 425.285" transform="translate(-346.787 -411.096)" style="fill:#00316c"/>
            <path data-name="패스 1506891" d="m410.38 414.357-.278.089.279-.089" transform="translate(-394.37 -401.144)" style="fill:#00316c"/>
            <path data-name="패스 1506892" d="m408.271 415.545-.116.035.116-.035" transform="translate(-392.597 -402.226)" style="fill:#00316c"/>
            <path data-name="패스 1506893" d="M403.353 416.147" transform="translate(-387.857 -402.774)" style="fill:#00316c"/>
            <path data-name="패스 1506894" d="m398.585 418.266-.119.03.119-.03" transform="translate(-383.774 -404.704)" style="fill:#00316c"/>
            <path data-name="패스 1506895" d="M315.279 425.942z" transform="translate(-308.017 -411.693)" style="fill:#00316c"/>
            <path data-name="패스 1506896" d="M331.69 426.394" transform="translate(-322.929 -412.106)" style="fill:#00316c"/>
            <path data-name="패스 1506897" d="M327.71 426.364" transform="translate(-319.28 -412.078)" style="fill:#00316c"/>
            <path data-name="패스 1506898" d="M355.061 425.5h-.024.024" transform="translate(-344.224 -411.291)" style="fill:#00316c"/>
            <path data-name="패스 1506899" d="M349.361 425.888h-.018.018" transform="translate(-339.038 -411.645)" style="fill:#00316c"/>
            <path data-name="패스 1506900" d="M352.232 425.712" transform="translate(-341.649 -411.485)" style="fill:#00316c"/>
            <path data-name="패스 1506901" d="M346.492 426.046" transform="translate(-336.442 -411.788)" style="fill:#00316c"/>
            <g data-name="그룹 628160">
                <path data-name="패스 1506903" d="m408.319 405.255-.113.777a12.985 12.985 0 0 0 2.114-.777z" transform="translate(-392.644 -391.856)" style="fill:#00316c"/>
                <g data-name="그룹 628159">
                    <path data-name="패스 1506883" d="M441.59 358.477a6.684 6.684 0 0 1-3.52 3.993l-.048-.064a6.727 6.727 0 0 0 2.514-3.429z" transform="translate(-419.797 -349.255)" style="fill:#ed6b00"/>
                    <path data-name="패스 1506902" d="m353.693 405.12-.238-.119c-.076-.044-.256-.148-.256-.324a.269.269 0 0 1 .094-.209.377.377 0 0 1 .311-.063 1.142 1.142 0 0 1 .527.292l.333-.64a1.516 1.516 0 0 0-.763-.34 1.412 1.412 0 0 0-1.055.231 1.065 1.065 0 0 0-.407.739 1.3 1.3 0 0 0-.009.153.863.863 0 0 0 .107.441c.487-.011 1-.035 1.516-.077a1.548 1.548 0 0 0-.153-.079" transform="translate(-341.662 -390.434)" style="fill:#00316c"/>
                    <path data-name="패스 1506904" d="m294.835 406.068-.278.089-.058.018-.116.035-.062.019c-.129.038-.264.076-.4.114l-.077.022-.119.031-.086.023-.119.03-.107.026-.189.045-.11.026-.048.011c-.369.084-.762.163-1.179.234h-.028l-.228.037-.056.009-.243.037h-.018q-.671.1-1.412.164h-.007l-.228.019h-.024l-.231.017h-.022l-.238.015h-.018l-.246.012h-.009q-.624.03-1.29.03H287.191q-.536-.007-1.1-.037h-.008q-.851-.045-1.76-.146l.7-.656a9.729 9.729 0 0 0 .966.222l-.214-1.268h-1.093c-.064.136-1.31 2.947-1.458 3.269h.876l.341-.813h.914s.089.684.109.813h.864c-.02-.106-.1-.6-.2-1.171.615.034 1.233.041 1.808.032a.3.3 0 0 1 .044.157.281.281 0 0 1-.006.06.261.261 0 0 1-.11.176.562.562 0 0 1-.407.045 1.384 1.384 0 0 1-.679-.436l-.423.69a1.987 1.987 0 0 0 1.063.535 1.4 1.4 0 0 0 1.038-.235 1.128 1.128 0 0 0 .446-.76 1.214 1.214 0 0 0 .017-.26 32.382 32.382 0 0 0 1.457-.094.345.345 0 0 1 .163.279.478.478 0 0 1-.005.06.265.265 0 0 1-.111.176.561.561 0 0 1-.407.045 1.374 1.374 0 0 1-.679-.436l-.425.69a1.99 1.99 0 0 0 1.062.535 1.4 1.4 0 0 0 1.038-.235 1.122 1.122 0 0 0 .446-.76 1.053 1.053 0 0 0-.019-.479c.139-.021.273-.041.4-.062-.1.686-.19 1.329-.207 1.447h2.111l.1-.706h-1.279l.087-.6h1.16l.086-.6c.159-.05.237-.08.237-.08s.393-.118.9-.306c-.073.512-.3 2.076-.328 2.294h.915l.352-2.456h.661l.112-.793a11.63 11.63 0 0 1-1.916.793" transform="translate(-278.826 -391.856)" style="fill:#00316c"/>
                    <path data-name="패스 1506905" d="M325.342 405.283a1.35 1.35 0 0 0-.278-.164l-.236-.119c-.077-.044-.256-.148-.256-.323a.271.271 0 0 1 .094-.209.38.38 0 0 1 .311-.063 1.148 1.148 0 0 1 .528.292c.092-.178.27-.518.332-.64a1.512 1.512 0 0 0-.763-.341 1.413 1.413 0 0 0-1.055.232 1.067 1.067 0 0 0-.407.739 1.233 1.233 0 0 0-.009.153.907.907 0 0 0 .077.383h.056c.409.031.969.056 1.615.062" transform="translate(-315.589 -390.434)" style="fill:#00316c"/>
                    <path data-name="패스 1506906" d="M381.506 405.959h1.245l.1-.7h-2.076l-.183 1.273c.287-.036.572-.078.849-.128z" transform="translate(-367.497 -391.856)" style="fill:#00316c"/>
                </g>
            </g>
        </g>
    </g>
</svg>
