<svg id="logo_한양증권_40px" xmlns="http://www.w3.org/2000/svg" width="40" height="40" viewBox="0 0 40 40">
  <g id="타원_14556" data-name="타원 14556" fill="#fff" stroke="#eee" stroke-width="1">
    <circle cx="20" cy="20" r="20" stroke="none"/>
    <circle cx="20" cy="20" r="19.5" fill="none"/>
  </g>
  <g id="그룹_628181" data-name="그룹 628181" transform="translate(-121.267 -300.645)">
    <path id="패스_1506958" data-name="패스 1506958" d="M159.087,342.93l-1.524,1.123c-1.392.516-4.947,1.606-7.548.4a16.294,16.294,0,0,1-2.814-1.913l-3.163,2.543c2.277,1.741,4.988,3.585,8.7,2.526l-2.492,1.837h0l-4.788,3.529-11.85-8.732-1.05.775,12.9,9.473L160.14,343.7l-1.053-.775" transform="translate(-4.289 -23.06)" fill="#008a32"/>
    <path id="패스_1506959" data-name="패스 1506959" d="M136.648,319.892a13.2,13.2,0,0,1,2.328,1.539l3.153-2.542c-2.192-1.631-4.8-3.162-8.29-2.127l4.072-3,0,0,3.248-2.393,11.846,8.73,1.052-.775-12.9-9.472-14.691,10.789,1.053.772,1.465-1.079c1.3-.5,4.986-1.682,7.659-.445" transform="translate(0 0)" fill="#008a32"/>
  </g>
</svg>
