<svg xmlns="http://www.w3.org/2000/svg" width="40" height="40" viewBox="0 0 24 24">
    <path data-name="패스 1506908" d="M12 0A12 12 0 1 1 0 12 12 12 0 0 1 12 0z" style="fill:#de344d"/>
    <g data-name="그룹 628162">
        <path data-name="패스 1506821" d="M121.746 367.767c-.333-.156-.606-.281-.606-.536 0-.194.155-.336.463-.336a1.6 1.6 0 0 1 .3.031.878.878 0 0 0 .147.016c.268 0 .42-.16.52-.463l.042-.124a2.8 2.8 0 0 0-1.053-.21 1.246 1.246 0 0 0-1.389 1.188 1.023 1.023 0 0 0 .245.7 2.2 2.2 0 0 0 .725.5c.374.184.712.32.712.592 0 .242-.249.38-.583.38a1.819 1.819 0 0 1-.908-.293l-.376.7a2.6 2.6 0 0 0 1.347.345 1.324 1.324 0 0 0 1.491-1.236c.001-.744-.594-1.021-1.077-1.254z" transform="translate(-115.74 -353.928)" style="fill:#fff"/>
        <path data-name="패스 1506822" d="m177.094 369.381 1.54-1.888h-1.1l-1.228 1.629h-.018v-1.629h-.9v4h.054a.776.776 0 0 0 .856-.833v-.918h.019l1.251 1.7h1.15z" transform="translate(-167.769 -355.195)" style="fill:#fff"/>
        <path data-name="패스 1506823" d="M215.225 297.129a.937.937 0 0 0-.789.86c0 .464.381.745.382 1.353a1.076 1.076 0 0 1-.523.936c.111-.01.231-.016.364-.016a2.994 2.994 0 0 1 .457.027l1.428-1.752a5.949 5.949 0 0 0-1.319-1.408z" transform="translate(-204.309 -289.113)" style="fill:#fff"/>
        <path data-name="패스 1506824" d="M239.374 323.587a2.5 2.5 0 0 0 .218-1.18c.017-.424.105-.742.672-.744.126 0 .245.017.462.016a3.346 3.346 0 0 0 1.71-.477 5.927 5.927 0 0 0-2.942-.938c-.081.229-.713 1.987-.761 2.129a2.378 2.378 0 0 1 .256.375 4.184 4.184 0 0 1 .385.819z" transform="translate(-227.258 -310.84)" style="fill:#fff"/>
        <path data-name="패스 1506825" d="M191.042 284.263c-.072 0-.108-.048-.117-.131s-.367-3.349-.42-3.844c-.008-.072-.025-.2-.025-.252a.105.105 0 0 1 .108-.116 5 5 0 0 1 2.07.9 1.044 1.044 0 0 0-.79.98c0 .537.387.833.389 1.372.001.879-1.006 1.09-1.215 1.091z" transform="translate(-181.943 -272.951)" style="fill:#fff"/>
        <path data-name="패스 1506826" d="M250.634 340.231a.606.606 0 0 0 .044.1.1.1 0 0 0 .088.055.2.2 0 0 0 .081-.022c.076-.035 3.057-1.423 3.507-1.63.066-.031.189-.087.23-.111a.108.108 0 0 0 .062-.094.12.12 0 0 0-.017-.059 3.682 3.682 0 0 0-.828-.732 3.684 3.684 0 0 1-1.871.54c-.218 0-.267-.014-.416-.014-.434 0-.543.187-.559.568 0 .072 0 .169-.008.275a1.9 1.9 0 0 1-.313 1.124z" transform="translate(-238.437 -327.25)" style="fill:#fff"/>
        <path data-name="패스 1506827" d="M285.421 380.813h.826v-.338h-2.683v.338h.831l-.932.875h.633l.811-.755.708.654a.367.367 0 0 0 .271.1h.479z" transform="translate(-269.268 -367.386)" style="fill:#fff"/>
        <path data-name="패스 1506828" d="M282.241 406.131c-.452 0-.757-.219-.757-.49s.3-.49.757-.49.758.219.758.49-.305.49-.758.49zm1.618-1.426h-3.234v.338h.766a.716.716 0 0 0-.4.619c0 .449.456.814 1.249.814s1.249-.364 1.249-.814a.715.715 0 0 0-.4-.619h.766z" transform="translate(-266.602 -390.142)" style="fill:#fff"/>
        <path data-name="패스 1506829" d="M368.707 380.475v1.657h-.744v.338h.744v.271h.483v-2.267z" transform="translate(-348.625 -367.386)" style="fill:#fff"/>
        <path data-name="패스 1506830" d="M343.844 381.612h-.274v-1.138h-1.639v.338h1.156v.8h-1.4v.338h.865v.626h.483v-.626h.811z" transform="translate(-323.947 -367.386)" style="fill:#fff"/>
        <path data-name="패스 1506831" d="M348.456 417.444v-.608h-.483v.591a.355.355 0 0 0 .355.355h2.144v-.338z" transform="translate(-329.852 -401.534)" style="fill:#fff"/>
    </g>
</svg>
