<svg xmlns="http://www.w3.org/2000/svg" width="24" height="24.001" viewBox="0 0 24 24.001">
    <circle data-name="타원 14553" cx="12" cy="12" r="12" style="fill:#fff"/>
    <g data-name="그룹 628224">
        <g data-name="그룹 628222">
            <path data-name="패스 1507069" d="M387.508 158.251a3.789 3.789 0 0 0 1.952.451h1.44v-1.271h-1.122a2.975 2.975 0 0 1-.973-.134 1.811 1.811 0 0 1-.713-.475 1.915 1.915 0 0 1-.541-1.361 1.95 1.95 0 0 1 .564-1.414 1.794 1.794 0 0 1 .676-.439 2.725 2.725 0 0 1 .906-.132h1.2v-1.272h-1.364a5.187 5.187 0 0 0-1.133.112 2.905 2.905 0 0 0-1.43.762 3.2 3.2 0 0 0-.666.941 3.38 3.38 0 0 0-.335 1.456 3.269 3.269 0 0 0 .2 1.119 3.124 3.124 0 0 0 1.339 1.657z" transform="translate(-379.735 -147.278)" style="fill:#008ad8"/>
            <path data-name="패스 1507070" d="m451.66 152.205 1.865 5.226h-2.293l.736-2.579h-1.322l-1.271 3.851h5.947l-2.295-6.5z" transform="translate(-437.555 -147.278)" style="fill:#f41938"/>
            <path data-name="패스 1507071" d="M393.114 239.5a1.7 1.7 0 0 0-.672-.361 4.048 4.048 0 0 0-1.052-.111h-2.582v1.271h2.4a1.411 1.411 0 0 1 .719.141.589.589 0 0 1 .279.538.652.652 0 0 1-.27.547 1.308 1.308 0 0 1-.743.148h-2.38v3.852h1.508v-2.585h1.225a2.89 2.89 0 0 0 1.194-.208 1.748 1.748 0 0 0 .735-.679 1.953 1.953 0 0 0 .308-1.058 2.064 2.064 0 0 0-.177-.827 1.879 1.879 0 0 0-.492-.668z" transform="translate(-382.326 -226.444)" style="fill:#008ad8"/>
            <path data-name="사각형 460744" transform="translate(12.454 12.579)" style="fill:#008ad8" d="M0 0h4.679v1.271H0z"/>
            <path data-name="패스 1507072" d="M456.569 272.895h4.679v-1.272h-3.171v-1.309h3.171v-1.271h-4.679z" transform="translate(-444.115 -253.819)" style="fill:#008ad8"/>
        </g>
        <g data-name="그룹 628223">
            <path data-name="패스 1507073" d="m325.517 164.172-2.422.688a11.8 11.8 0 0 0-.618 1.484l1.22 2.189a10.223 10.223 0 0 1 1.82-4.361z" transform="translate(-321.84 -158.191)" style="fill:#008ad8"/>
            <path data-name="패스 1507074" d="M315.453 208.408a11.847 11.847 0 0 0 0 4.221l1.178-2.114z" transform="translate(-315.261 -198.528)" style="fill:#008ad8"/>
            <path data-name="패스 1507075" d="m547.81 168.743 1.223-2.193a12.054 12.054 0 0 0-.615-1.485l-2.418-.687a10.234 10.234 0 0 1 1.81 4.365z" transform="translate(-525.663 -158.378)" style="fill:#008ad8"/>
            <path data-name="패스 1507076" d="m323.63 251.047-1.223 2.193a11.8 11.8 0 0 0 .615 1.485l2.418.687a10.215 10.215 0 0 1-1.81-4.365z" transform="translate(-321.776 -237.409)" style="fill:#008ad8"/>
            <path data-name="패스 1507077" d="m474.586 106.581-.688-2.423a12.014 12.014 0 0 0-1.484-.617l-2.189 1.221a10.211 10.211 0 0 1 4.361 1.819z" transform="translate(-456.567 -102.903)" style="fill:#008ad8"/>
            <path data-name="패스 1507078" d="m387.677 104.7-2.193-1.223a12.06 12.06 0 0 0-1.486.615l-.686 2.419a10.228 10.228 0 0 1 4.365-1.811z" transform="translate(-377.314 -102.842)" style="fill:#008ad8"/>
            <path data-name="패스 1507079" d="M532.326 123.921a12.079 12.079 0 0 0-2.973-2.979l.66 2.321z" transform="translate(-510.484 -118.771)" style="fill:#f41938"/>
            <path data-name="패스 1507080" d="M339.722 310.211a12.1 12.1 0 0 0 2.973 2.979l-.659-2.321z" transform="translate(-337.565 -291.359)" style="fill:#008ad8"/>
            <path data-name="패스 1507081" d="M342.852 120.792a12.091 12.091 0 0 0-2.979 2.974l2.321-.66z" transform="translate(-337.703 -118.634)" style="fill:#008ad8"/>
            <path data-name="패스 1507082" d="M431.8 96.518a11.852 11.852 0 0 0-4.221 0l2.115 1.179z" transform="translate(-417.678 -96.324)" style="fill:#008ad8"/>
            <path data-name="패스 1507083" d="M529.143 313.395a12.109 12.109 0 0 0 2.978-2.974l-2.32.659z" transform="translate(-510.292 -291.55)" style="fill:#008ad8"/>
            <path data-name="패스 1507084" d="m545.851 255.654 2.422-.688a11.943 11.943 0 0 0 .617-1.484l-1.221-2.189a10.22 10.22 0 0 1-1.818 4.361z" transform="translate(-525.528 -237.633)" style="fill:#008ad8"/>
            <path data-name="패스 1507085" d="m383.109 326.916.688 2.422a12.048 12.048 0 0 0 1.484.617l2.19-1.221a10.215 10.215 0 0 1-4.362-1.818z" transform="translate(-377.128 -306.591)" style="fill:#008ad8"/>
            <path data-name="패스 1507086" d="m469.982 328.877 2.192 1.223a11.958 11.958 0 0 0 1.485-.615l.687-2.418a10.227 10.227 0 0 1-4.364 1.81z" transform="translate(-456.345 -306.729)" style="fill:#008ad8"/>
            <path data-name="패스 1507087" d="M573.238 212.873a11.817 11.817 0 0 0 0-4.221l-1.178 2.114z" transform="translate(-549.43 -198.75)" style="fill:#008ad8"/>
            <path data-name="패스 1507088" d="M427.338 354.293a11.825 11.825 0 0 0 4.221 0l-2.114-1.179z" transform="translate(-417.459 -330.484)" style="fill:#008ad8"/>
        </g>
    </g>
</svg>
