<svg xmlns="http://www.w3.org/2000/svg" width="40" height="40" viewBox="0 0 24 24">
    <g data-name="타원 14564" style="fill:#fff;stroke:#eee;stroke-width:.5px">
        <circle cx="12" cy="12" r="12" style="stroke:none"/>
        <circle cx="12" cy="12" r="11.75" style="fill:none"/>
    </g>
    <g data-name="그룹 628226">
        <path data-name="패스 1507091" d="M189.572 409.4v4h.819v-1.425h.337l1.072 1.425h1.014l-1.411-1.8 1.287-1.483h-1.009l-.974 1.133h-.318v-2.691zm4.529 2.957v-1.512h.978v-.721h-.979v-.943l-1.468 1.664h.65v1.567a.992.992 0 0 0 .991.991h1.075v-.721h-.923a.326.326 0 0 1-.325-.326m3.488-2.229h-.878a1.03 1.03 0 0 0-.173.016v-1.78l-.818.834v3.215a.991.991 0 0 0 .991.991h.878a.992.992 0 0 0 .992-.991v-1.293a.992.992 0 0 0-.991-.992m.173 2.229a.325.325 0 0 1-.326.325h-.573a.326.326 0 0 1-.325-.326v-1.195a.325.325 0 0 1 .325-.314h.575a.326.326 0 0 1 .324.325z" transform="translate(-179.226 -398.27)" style="fill:#101b72"/>
        <path data-name="패스 1507092" d="m139.19 379.141 1.154 1.154v-2.308z" transform="translate(-133.035 -370.424)" style="fill:#0075c1"/>
        <path data-name="패스 1507093" d="M125.319 393.01h2.308l-1.154-1.155z" transform="translate(-120.318 -383.138)" style="fill:#101b72"/>
        <path data-name="패스 1507094" d="M140.344 408.04v-2.308l-1.154 1.154z" transform="translate(-133.035 -395.86)" style="fill:#101b72"/>
        <path data-name="패스 1507095" d="m126.473 406.886 1.154-1.154h-2.308z" transform="translate(-120.318 -395.86)" style="fill:#0075c1"/>
        <path data-name="패스 1507096" d="M159.83 371.213v1.436h1.436z" transform="translate(-151.958 -364.213)" style="fill:#ef8207"/>
        <path data-name="패스 1507097" d="M159.83 388.467v1.433l1.436-1.436z" transform="translate(-151.958 -380.032)" style="fill:#d33427"/>
        <path data-name="패스 1507098" d="M159.83 405.732v1.436h1.436z" transform="translate(-151.958 -395.86)" style="fill:#5bb43b"/>
        <path data-name="패스 1507099" d="m159.83 424.422 1.436-1.436h-1.436z" transform="translate(-151.958 -411.679)" style="fill:#547a2f"/>
        <path data-name="패스 1507100" d="m170.445 393.257-1.037 1.038h1.037z" transform="translate(-160.739 -384.423)" style="fill:#f9be00"/>
        <path data-name="패스 1507101" d="M181.877 405.732v1.037l1.037-1.037z" transform="translate(-172.171 -395.86)" style="fill:#f9be00"/>
        <path data-name="패스 1507102" d="m169.408 405.732 1.037 1.037v-1.037z" transform="translate(-160.739 -395.86)" style="fill:#ef8207"/>
        <path data-name="패스 1507103" d="m182.915 394.3-1.037-1.038v1.038z" transform="translate(-172.171 -384.423)" style="fill:#ffe100"/>
    </g>
</svg>
