<svg id="logo_리딩투자증권" xmlns="http://www.w3.org/2000/svg" width="40" height="40" viewBox="0 0 24 24">
  <defs>
    <style>
      .cls-1 {
        fill: #ec1c24;
      }

      .cls-2 {
        fill: #fff;
      }
    </style>
  </defs>
  <circle id="타원_14557" data-name="타원 14557" class="cls-1" cx="12" cy="12" r="12"/>
  <g id="그룹_628214" data-name="그룹 628214" transform="translate(-122.85 -254.888)">
    <g id="그룹_628213" data-name="그룹 628213" transform="translate(124.85 266.383)">
      <path id="패스_1507046" data-name="패스 1507046" class="cls-2" d="M174.849,291.266l1.6,0,0-.27h-1.6v-.416h1.636V290.3h-2.21v1.526a.428.428,0,0,1-.1.209h2.409v-.269l-1.735,0Z" transform="translate(-171.218 -290.273)"/>
      <path id="패스_1507047" data-name="패스 1507047" class="cls-2" d="M282.388,290.414a3.469,3.469,0,0,0-.942-.1h-1.074v1.528a.435.435,0,0,1-.1.207h1.182a2.862,2.862,0,0,0,.947-.124,1.134,1.134,0,0,0,.507-.331.7.7,0,0,0,.167-.454.618.618,0,0,0-.182-.448A1.16,1.16,0,0,0,282.388,290.414Zm0,1.094a.55.55,0,0,1-.26.219,1.372,1.372,0,0,1-.5.069h-.687v-1.213h.534a1.851,1.851,0,0,1,.663.081.529.529,0,0,1,.343.51A.618.618,0,0,1,282.393,291.507Z" transform="translate(-270.955 -290.289)"/>
      <path id="패스_1507048" data-name="패스 1507048" class="cls-2" d="M363.783,290.31h-.526v1.258l-1.552-1.258h-.4v1.53a.424.424,0,0,1-.1.206h.623v-1.133l1.426,1.133h.529v-1.525a.421.421,0,0,1,.1-.21h-.1Z" transform="translate(-347.038 -290.282)"/>
      <path id="패스_1507049" data-name="패스 1507049" class="cls-2" d="M337.852,290.343v1.522a.431.431,0,0,1-.1.211h.689v-1.528a.412.412,0,0,1,.1-.206h-.688Z" transform="translate(-324.993 -290.313)"/>
      <path id="패스_1507050" data-name="패스 1507050" class="cls-2" d="M226.4,290.414h-.433l-1.271,1.729h.591l.347-.473h1.028l.194.265c.008.014.076.147.042.207h.693l-1.146-1.518C226.438,290.609,226.366,290.475,226.4,290.414Zm-.575.973.313-.433.32.433Z" transform="translate(-218.712 -290.378)"/>
      <path id="패스_1507051" data-name="패스 1507051" class="cls-2" d="M125.544,290.505a.428.428,0,0,1,.1-.21h-.69v1.532a.426.426,0,0,1-.1.2h2.412v-.273h-1.72Z" transform="translate(-124.85 -290.268)"/>
      <g id="그룹_628212" data-name="그룹 628212" transform="translate(17.218 0)">
        <path id="패스_1507052" data-name="패스 1507052" class="cls-2" d="M457.25,304.711v.211a.427.427,0,0,1,.1-.211Z" transform="translate(-454.545 -303.82)"/>
        <path id="패스_1507053" data-name="패스 1507053" class="cls-2" d="M414.256,291.3a1.1,1.1,0,0,1-.2.05,1.022,1.022,0,0,1-.22.027,1.159,1.159,0,0,1-.544-.072.7.7,0,0,1-.346-.263.518.518,0,0,1-.11-.315.571.571,0,0,1,.247-.468,1.176,1.176,0,0,1,.671-.169c.113,0,.233.005.36.015a2.421,2.421,0,0,1,.356.047l.342-.238a7.749,7.749,0,0,0-1.053-.076,2.44,2.44,0,0,0-1.239.247.729.729,0,0,0-.407.634.68.68,0,0,0,.179.459,1.128,1.128,0,0,0,.524.315,3.26,3.26,0,0,0,.944.109q.216,0,.419-.012t.639-.077v-.783h-.564Z" transform="translate(-412.113 -289.843)"/>
      </g>
    </g>
    <path id="패스_1507054" data-name="패스 1507054" class="cls-2" d="M344.984,276.575a3.468,3.468,0,0,0-.123-.491c-.105.092-.212.179-.313.259C344.74,276.439,344.91,276.527,344.984,276.575Z" transform="translate(-206.529 -10.526)"/>
    <path id="패스_1507055" data-name="패스 1507055" class="cls-2" d="M342.685,264.887s-.094.328-.163.485a3.075,3.075,0,0,0,.332-.1C342.764,265.043,342.685,264.887,342.685,264.887Z" transform="translate(-204.625)"/>
    <path id="패스_1507056" data-name="패스 1507056" class="cls-2" d="M331.18,266.015a1.481,1.481,0,0,1-.723.038s.276.129.576.275c-.09.178-.181.344-.25.469a2.4,2.4,0,0,0,.519-.337c.1-.079.207-.167.313-.259a5.7,5.7,0,0,0,.633-.63,4.674,4.674,0,0,1-.735.344A3.078,3.078,0,0,1,331.18,266.015Z" transform="translate(-193.283 -0.643)"/>
  </g>
</svg>
