<svg xmlns="http://www.w3.org/2000/svg" width="40" height="40" viewBox="0 0 24 24">
    <path data-name="패스 1506963" d="M12 0A12 12 0 1 1 0 12 12 12 0 0 1 12 0z" style="fill:#102c49"/>
    <path data-name="패스 1506949" d="M289.7 374.169a1.736 1.736 0 0 0-2.484.134 2.982 2.982 0 0 1-2.349 1.218c-1.123-.049-1.678-.918-2.254-2.013a2.965 2.965 0 0 0-2.67-1.782 2.911 2.911 0 0 0-2.889 3.094 5.288 5.288 0 0 0 2.987 4.642 7.29 7.29 0 0 0 3.148.775 9.487 9.487 0 0 1-.431 1.953h2.066a9.314 9.314 0 0 1-.439-2.02c3.027-.393 4.465-1.767 5.252-3.076a3.314 3.314 0 0 0 .54-1.707 1.673 1.673 0 0 0-.478-1.218m-9.741 1.569a1.058 1.058 0 1 1 .984-1.121 1.059 1.059 0 0 1-.984 1.121" transform="translate(-271.615 -364.174)" style="fill:#5fa032"/>
</svg>
