<svg xmlns="http://www.w3.org/2000/svg" width="40" height="40" viewBox="0 0 24 24">
    <circle data-name="타원 14566" cx="12" cy="12" r="12" style="fill:#cd2529"/>
    <g data-name="그룹 628284">
        <path data-name="패스 1507188" d="M35.557 210.472a1.9 1.9 0 1 1-1.9-1.9 1.89 1.89 0 0 1 1.9 1.9" transform="translate(-21.568 -198.408)" style="fill:#fff"/>
        <path data-name="패스 1507189" d="M11.4 190.895a5.269 5.269 0 0 0-2.171.469 5.329 5.329 0 1 0 0 9.72 5.326 5.326 0 1 0 2.171-10.189m-2.171 10.14a4.835 4.835 0 1 1 4.835-4.835 4.828 4.828 0 0 1-4.835 4.835" transform="translate(2.765 -184.224)" style="fill:#fff"/>
    </g>
</svg>
