<svg xmlns="http://www.w3.org/2000/svg" width="40" height="40" viewBox="0 0 24 24">
    <defs>
        <clipPath id="qlj9e53jqa">
            <path data-name="사각형 9813" style="fill:none" d="M0 0h11.614v10.645H0z"/>
        </clipPath>
    </defs>
    <circle cx="12" cy="12" r="12" style="fill:#008470"/>
    <g transform="translate(6.192 6.734)" style="clip-path:url(#qlj9e53jqa)">
        <path data-name="패스 26095" d="M.061 43.514s0-.348.507-.3c0 0 .17.021.708.053 0 0 .344.031 2.028.275a24.183 24.183 0 0 0 3.449.19 10.827 10.827 0 0 0 2.567-.407s1.523-.48 1.766-.6a.2.2 0 0 1 .214.021s.053.056.193 0c0 0 .161-.025.111.16 0 0-.5.959-3.451 1.741a32.314 32.314 0 0 1-4.2.56s-.9.085-1.939.264c0 0-.593.111-.718-.116 0 0-.06-.116-.339-.222 0 0-.957-.547-.957-1.22a.817.817 0 0 0 .061-.407" transform="translate(0 -41.084)" style="fill:#fff"/>
        <path data-name="패스 26096" d="M91.543 120.748a2.465 2.465 0 0 1 .335-2.494 2.078 2.078 0 0 1 2.575-.325 2.288 2.288 0 0 1 1.062 2.426A5.989 5.989 0 0 1 94 123.722s-.087.116-.158.053c-.024-.022-.006-.014-.044-.021 0 0-.329.15-.174-.274 0 0 .906-3.065.322-3.921a.629.629 0 0 0-.941-.176s-.362.277-.232 1.042c0 0 .206.609-.277.8 0 0-.554.241-.956-.473" transform="translate(-87.872 -113.149)" style="fill:#fff"/>
        <path data-name="패스 26097" d="M118.579 1.043a1.031 1.031 0 0 1 1.073-1.021.293.293 0 0 0 .113-.015s.575-.067.6.21a1.684 1.684 0 0 1-.036.241.234.234 0 0 0 .118.19s.416.477-.185 1.14a1.038 1.038 0 0 1-1.345 0 1.061 1.061 0 0 1-.334-.744" transform="translate(-114.07 .001)" style="fill:#fff"/>
    </g>
</svg>
