<svg xmlns="http://www.w3.org/2000/svg" width="40" height="40" viewBox="0 0 24 24">
    <g data-name="타원 14596" style="fill:#fff;stroke:#eee;stroke-width:.5px">
        <circle cx="12" cy="12" r="12" style="stroke:none"/>
        <circle cx="12" cy="12" r="11.75" style="fill:none"/>
    </g>
    <g data-name="그룹 628331">
        <path data-name="패스 1507277" d="M410.983 517.822a1.015 1.015 0 0 0-.3.755.9.9 0 0 0 .3.71 2.469 2.469 0 0 0 .651.35 2.32 2.32 0 0 1 .562.291.67.67 0 0 1 .247.533.68.68 0 0 1-.193.493.632.632 0 0 1-.479.2.794.794 0 0 1-.607-.266 1.111 1.111 0 0 1-.3-.562v-.01l-.4.1v.01a1.377 1.377 0 0 0 .449.794 1.32 1.32 0 0 0 .853.286 1.059 1.059 0 0 0 .794-.3 1.047 1.047 0 0 0 .306-.784.978.978 0 0 0-.326-.77 2.6 2.6 0 0 0-.676-.38 2.542 2.542 0 0 1-.528-.277.6.6 0 0 1-.232-.473.635.635 0 0 1 .177-.454.593.593 0 0 1 .434-.182.639.639 0 0 1 .508.212 1.373 1.373 0 0 1 .271.552v.01l.38-.113v-.015a1.433 1.433 0 0 0-.424-.73 1.122 1.122 0 0 0-1.48.025z" transform="translate(-406.027 -504.722)" style="fill-rule:evenodd;fill:#b5b5b6"/>
        <path data-name="패스 1507278" d="m435.795 524.427-.01.01.286.212.01-.01a.788.788 0 0 1 .646-.419.539.539 0 0 1 .37.123.431.431 0 0 1 .133.34v.143l-.222.059a3.636 3.636 0 0 0-.873.321.864.864 0 0 0-.434.76.76.76 0 0 0 .222.548.72.72 0 0 0 .538.232.8.8 0 0 0 .429-.128 1.878 1.878 0 0 0 .34-.281l.039.331h.439v-.015a1.5 1.5 0 0 1-.074-.5v-1.425a.768.768 0 0 0-.316-.656.953.953 0 0 0-.587-.192 1.114 1.114 0 0 0-.932.553zm1.2.8.232-.064v.77a1.579 1.579 0 0 1-.281.266.8.8 0 0 1-.473.163.358.358 0 0 1-.286-.138.476.476 0 0 1-.108-.3.546.546 0 0 1 .321-.474 2.773 2.773 0 0 1 .6-.227z" transform="translate(-426.882 -509.965)" style="fill-rule:evenodd;fill:#b5b5b6"/>
        <path data-name="패스 1507279" d="M466.457 517.986h-.4v3.814h.4v-3.813z" transform="translate(-451.969 -505.098)" style="fill-rule:evenodd;fill:#b5b5b6"/>
        <path data-name="패스 1507280" d="M473.743 524.14a.82.82 0 0 0-.631-.266.964.964 0 0 0-.8.375 2.141 2.141 0 0 0 0 2.121.964.964 0 0 0 .8.375 1.121 1.121 0 0 0 .6-.168.934.934 0 0 0 .385-.444l-.286-.192-.01.005a1.057 1.057 0 0 1-.212.271.623.623 0 0 1-.434.187.594.594 0 0 1-.523-.261 1.332 1.332 0 0 1-.183-.755h1.623v-.01l.01-.192a1.881 1.881 0 0 0-.089-.592 1.2 1.2 0 0 0-.247-.449zm-.661.079a.434.434 0 0 1 .326.143.863.863 0 0 1 .182.316 1.084 1.084 0 0 1 .059.345v.02h-1.194a1.01 1.01 0 0 1 .168-.562.539.539 0 0 1 .459-.261z" transform="translate(-456.907 -509.965)" style="fill-rule:evenodd;fill:#b5b5b6"/>
        <path data-name="패스 1507281" d="M485.833 524.329h-.41l.933 2.654a1.549 1.549 0 0 1-.2.439.484.484 0 0 1-.4.2l-.217-.04h-.01l-.059.345h.005a1.053 1.053 0 0 0 .3.054.841.841 0 0 0 .646-.271 1.528 1.528 0 0 0 .286-.562l.9-2.812h-.385l-.661 2.077-.72-2.077z" transform="translate(-467.98 -510.341)" style="fill-rule:evenodd;fill:#b5b5b6"/>
        <path data-name="패스 1507282" d="M426.413 519.294h-.4v.873h-.413v.345h.409v1.648a1.81 1.81 0 0 0 .025.37.471.471 0 0 0 .133.281.614.614 0 0 0 .464.148 1.047 1.047 0 0 0 .38-.079l.01-.005v-.3l-.316.035a.313.313 0 0 1-.227-.064.531.531 0 0 1-.069-.335v-1.7h.612v-.345h-.612v-.873z" transform="translate(-418.536 -506.179)" style="fill-rule:evenodd;fill:#b5b5b6"/>
        <path data-name="패스 1507283" d="M451.523 524.614a1.253 1.253 0 0 1 .306-.266.732.732 0 0 1 .375-.138.343.343 0 0 1 .242.084.442.442 0 0 1 .094.232l.01 2.141h.4V524.8c0-.612-.232-.922-.7-.922a.769.769 0 0 0-.395.109 2.8 2.8 0 0 0-.335.237v-.266h-.4v2.713h.4v-2.052z" transform="translate(-439.625 -509.965)" style="fill-rule:evenodd;fill:#b5b5b6"/>
        <path data-name="패스 1507284" d="M487.1 482.364v-1.973h-1.973l1.973 1.973zm-.3-1.682v.927l-.923-.927z" transform="translate(-467.736 -474.023)" style="fill:#607aa9;fill-rule:evenodd"/>
        <path data-name="패스 1507285" d="M413.136 487.332h-.7l-.809 3.123-.829-3.123h-.686v3.813h.419v-3.4l.917 3.4h.345l.918-3.4v3.4h.419v-3.813z" transform="translate(-405.735 -479.76)" style="fill:#231815;fill-rule:evenodd"/>
        <path data-name="패스 1507286" d="M432.861 493.594a1.049 1.049 0 0 0-1.608 0 2.109 2.109 0 0 0 0 2.121 1.05 1.05 0 0 0 1.608 0 2.109 2.109 0 0 0 0-2.121zm-.8-.03a.584.584 0 0 1 .567.395 1.731 1.731 0 0 1 .118.7 1.772 1.772 0 0 1-.118.7.608.608 0 0 1-1.135 0 1.769 1.769 0 0 1-.119-.7 1.728 1.728 0 0 1 .119-.7.588.588 0 0 1 .567-.395z" transform="translate(-422.969 -484.626)" style="fill:#231815;fill-rule:evenodd"/>
        <path data-name="패스 1507287" d="M447.585 494.054v-.567h-.4v2.713h.4v-1.54a2.134 2.134 0 0 1 .316-.6.616.616 0 0 1 .572-.247h.01v-.37h-.153a.66.66 0 0 0-.469.182 1.541 1.541 0 0 0-.276.424z" transform="translate(-436.371 -484.815)" style="fill:#231815;fill-rule:evenodd"/>
        <path data-name="패스 1507288" d="M457.266 493.093a1 1 0 0 0-.592-.192.963.963 0 0 0-.691.261.989.989 0 0 0-.2 1.056 1.368 1.368 0 0 0 .222.326l-.128.133a.813.813 0 0 0-.148.153.364.364 0 0 0-.059.207c0 .163.109.286.321.375-.3.138-.449.311-.449.528a.521.521 0 0 0 .187.414 1.4 1.4 0 0 0 .972.266 1.637 1.637 0 0 0 .859-.178.583.583 0 0 0 .291-.533.621.621 0 0 0-.429-.612 3.011 3.011 0 0 0-.829-.158l-.38-.049c-.1-.025-.153-.059-.153-.113s.059-.148.182-.247l.04-.03a1.166 1.166 0 0 0 .429.084.889.889 0 0 0 .656-.266.912.912 0 0 0 .261-.656v-.015a.979.979 0 0 0-.168-.557.564.564 0 0 1 .271-.059h.143v-.34a.893.893 0 0 0-.612.2zm-.582.118a.5.5 0 0 1 .434.207.7.7 0 0 1 .123.429.656.656 0 0 1-.158.459.562.562 0 0 1-.434.168.487.487 0 0 1-.409-.2.655.655 0 0 1-.138-.424.675.675 0 0 1 .148-.439.524.524 0 0 1 .434-.2zm-.592 2.447a.823.823 0 0 1 .335-.128l.415.025c.414.025.626.138.626.331a.356.356 0 0 1-.271.34 1.288 1.288 0 0 1-.474.074c-.533 0-.794-.128-.794-.38a.318.318 0 0 1 .163-.262z" transform="translate(-443.284 -484.353)" style="fill:#231815;fill-rule:evenodd"/>
        <path data-name="패스 1507289" d="m470.709 493.772-.005.01.286.212.005-.01a.8.8 0 0 1 .651-.419.557.557 0 0 1 .37.123.446.446 0 0 1 .128.34v.143l-.222.059a3.5 3.5 0 0 0-.868.321.854.854 0 0 0-.434.76.76.76 0 0 0 .222.548.717.717 0 0 0 .533.232.778.778 0 0 0 .429-.128 1.734 1.734 0 0 0 .345-.281l.034.331h.439l-.005-.015a1.529 1.529 0 0 1-.069-.5v-1.426a.781.781 0 0 0-.316-.656.963.963 0 0 0-.587-.193 1.115 1.115 0 0 0-.937.553zm1.2.8.232-.064v.769a1 1 0 0 1-.755.429.354.354 0 0 1-.281-.138.455.455 0 0 1-.113-.3.546.546 0 0 1 .321-.474 2.886 2.886 0 0 1 .6-.227z" transform="translate(-455.745 -484.626)" style="fill:#231815;fill-rule:evenodd"/>
        <path data-name="패스 1507290" d="M486.356 493.3h-.4v2.713h.4v-2.052a1.262 1.262 0 0 1 .306-.266.719.719 0 0 1 .375-.138.322.322 0 0 1 .237.084.4.4 0 0 1 .1.232c.005.059.01.153.01.286v1.855h.4v-1.87c0-.612-.232-.923-.7-.923a.783.783 0 0 0-.395.109 1.988 1.988 0 0 0-.331.237v-.267z" transform="translate(-468.418 -484.626)" style="fill:#231815;fill-rule:evenodd"/>
    </g>
</svg>
