<svg xmlns="http://www.w3.org/2000/svg" width="40" height="40" viewBox="0 0 24 24">
    <path data-name="패스 1507178" d="M12 0A12 12 0 1 1 0 12 12 12 0 0 1 12 0z" style="fill:#feeb34"/>
    <g data-name="그룹 628274">
        <g data-name="그룹 628269">
            <g data-name="그룹 628268">
                <path data-name="패스 1507171" d="M349.938 256.262a2.3 2.3 0 0 0-2.52 1.991 1.941 1.941 0 0 0 1.169 1.681l-.237.887a.073.073 0 0 0 .018.076.07.07 0 0 0 .1 0l1.021-.69a3.211 3.211 0 0 0 .454.033 2.047 2.047 0 1 0 0-3.982z" transform="translate(-343.5 -246.063)" style="fill-rule:evenodd"/>
            </g>
        </g>
        <path data-name="패스 1507172" d="M11.083 13.844v1.286h-.916v-4.741h.646l.113.3a1.3 1.3 0 0 1 .966-.4c.9 0 1.323.671 1.317 1.756a1.65 1.65 0 0 1-1.6 1.863 2.006 2.006 0 0 1-.526-.064zm0-2.69v2.051a2.665 2.665 0 0 0 .295.019c.652 0 .9-.458.9-1.179 0-.633-.169-1.016-.69-1.016a1.191 1.191 0 0 0-.505.124z"/>
        <path data-name="패스 1507173" d="M15.203 11.724h.521v-.113c0-.376-.213-.552-.583-.552a2.3 2.3 0 0 0-.941.226l-.251-.615a2.4 2.4 0 0 1 1.273-.383 1.211 1.211 0 0 1 1.354 1.348v2.176h-.646l-.094-.289a1.731 1.731 0 0 1-1.016.383.969.969 0 0 1-1.047-1.079c0-.719.502-1.102 1.43-1.102zm.521 1.21v-.627h-.42c-.47 0-.709.169-.709.508 0 .257.132.383.4.383a1.263 1.263 0 0 0 .728-.263z"/>
        <path data-name="패스 1507174" d="M19.348 13.461a3.425 3.425 0 0 1-1.26 1.819l-.564-.52a3.168 3.168 0 0 0 .759-.928l-1.217-3.317.909-.245.778 2.69.771-2.7.9.251z"/>
    </g>
</svg>
