<svg xmlns="http://www.w3.org/2000/svg" width="40" height="40" viewBox="0 0 24 24">
    <defs>
        <clipPath id="6hyn1z706a">
            <path data-name="사각형 9811" style="fill:none" d="M0 0h12v8.434H0z"/>
        </clipPath>
    </defs>
    <circle cx="12" cy="12" r="12" style="fill:#1173bf"/>
    <g transform="translate(6 8)" style="clip-path:url(#6hyn1z706a)">
        <path data-name="패스 26090" d="M19.528 8.376a.367.367 0 1 0-.367-.365.367.367 0 0 0 .367.365" transform="translate(-14.743 -5.88)" style="fill:#fff"/>
        <path data-name="패스 26091" d="M4.225 16.346a.368.368 0 1 0-.368-.368.368.368 0 0 0 .368.368" transform="translate(-2.968 -12.01)" style="fill:#fff"/>
        <path data-name="패스 26092" d="M10.455 4.191s-.154.444.1.649c0 0 .341.357-.067.288a6.609 6.609 0 0 0-2.455.19 1.865 1.865 0 0 0-1.04.579.549.549 0 0 0 .12.869s.393.324-.154.324a5.737 5.737 0 0 1-2.93-.41s-1.041-.562-.1-1.218a2.907 2.907 0 0 1 1.241-.468 7.208 7.208 0 0 1 2.659-.027s-1.583-.757 0-1.559a5.3 5.3 0 0 1 2.966-.358 4.214 4.214 0 0 1 1.008.159C11.135 1.364 8.791 0 6 0 2.776 0 .156 1.806 0 4.073c.038-.1.365-.806 2.322-.962a9.193 9.193 0 0 1 1.958.119s-1.721-.717-.092-1.562a6.118 6.118 0 0 1 4.073-.22s.316.12 0 .247c0 0-1.125.213-1.4.862a.62.62 0 0 0 .161.655s.239.181-.172.172a5.363 5.363 0 0 0-3.093.5s-.954.512-.2 1.195c0 0 .29.187-.086.238 0 0-2.693.358-3.452-.836L0 4.442c.12 2.283 2.754 3.992 6 3.992 3.316 0 6-1.789 6-4.153a3.106 3.106 0 0 0-.12-.854 2.186 2.186 0 0 0-1.425.764" style="fill:#fff"/>
        <path data-name="패스 26093" d="M19.79 23.062a.367.367 0 1 0 0 .735.367.367 0 1 0 0-.735" transform="translate(-14.943 -17.744)" style="fill:#fff"/>
        <path data-name="패스 26094" d="M35.126 15.182a.368.368 0 1 0 .367.367.367.367 0 0 0-.367-.367" transform="translate(-26.743 -11.681)" style="fill:#fff"/>
    </g>
</svg>
