<svg xmlns="http://www.w3.org/2000/svg" width="40" height="40" viewBox="0 0 24 24">
    <defs>
        <clipPath id="2x3diw4w4a">
            <path data-name="사각형 9806" style="fill:none" d="M0 0h13.113v6.298H0z"/>
        </clipPath>
    </defs>
    <circle cx="12" cy="12" r="12" style="fill:#db381b"/>
    <g transform="translate(5.443 8.851)" style="clip-path:url(#2x3diw4w4a)">
        <path data-name="패스 26080" d="M.019 6.44c-.025.012-.025.034 0 .049l2.02 1.337.58-2.726z" transform="translate(0 -3.313)" style="fill:#fff"/>
        <path data-name="패스 26081" d="M28.347 5.1h-.512a.234.234 0 0 0-.091.022L25.18 6.44a.026.026 0 0 0 0 .048L27.167 7.8a.205.205 0 0 0 .088.026h.512c.027 0 .03-.012.008-.026l-2.03-1.336 2.608-1.344c.024-.012.02-.022-.006-.022" transform="translate(-16.349 -3.311)" style="fill:#fff"/>
        <path data-name="패스 26082" d="M23.442 5.1h-3.564L19.3 7.824h3.564c.026 0 .029-.012.007-.026l-2.028-1.336 2.6-1.344c.022-.012.021-.022-.006-.022" transform="translate(-12.54 -3.311)" style="fill:#fff"/>
        <path data-name="패스 26083" d="M31.472 5.1h-.512a.24.24 0 0 0-.091.022L28.305 6.44a.026.026 0 0 0 0 .048l1.99 1.31a.2.2 0 0 0 .088.026h.512c.027 0 .031-.012.007-.026l-2.031-1.336 2.607-1.344c.023-.012.022-.022-.006-.022" transform="translate(-18.381 -3.311)" style="fill:#fff"/>
        <path data-name="패스 26084" d="M13.468 0h-8.39A.855.855 0 0 0 4.2.659a.49.49 0 0 0 .188.5l3.015 1.99 6.07-3.127C13.5.01 13.5 0 13.468 0" transform="translate(-2.724)" style="fill:#fff"/>
        <path data-name="패스 26085" d="M10.167 12.115 5.438 8.992l-3.864 1.991a.8.8 0 0 0-.4.5c-.078.364.124.659.593.659h8.391c.026 0 .03-.012.008-.026" transform="translate(-.753 -5.843)" style="fill:#fff"/>
    </g>
</svg>
