<svg xmlns="http://www.w3.org/2000/svg" width="40" height="40" viewBox="0 0 24 24">
    <defs>
        <clipPath id="inoqtr5sva">
            <path data-name="사각형 9836" style="fill:none" d="M0 0h11.171v7.203H0z"/>
        </clipPath>
    </defs>
    <circle cx="12" cy="12" r="12" style="fill:#2464b4"/>
    <g transform="translate(6 8)" style="clip-path:url(#inoqtr5sva)">
        <path data-name="패스 26107" d="m3.406 30.565-.02.02a1.519 1.519 0 0 1-1.081.5 1.434 1.434 0 0 1 0-2.866 1.517 1.517 0 0 1 1.081.5l.02.02.516-.625-.013-.014a1.97 1.97 0 0 0-1.578-.754 2.4 2.4 0 0 0-1.635.6 2.439 2.439 0 0 0 0 3.41 2.388 2.388 0 0 0 1.635.6 1.97 1.97 0 0 0 1.578-.755l.014-.015z" transform="translate(0 -24.757)" style="fill:#fff"/>
        <path data-name="사각형 9834" transform="translate(4.444 2.665)" style="fill:#fff" d="M0 0h.912v4.453H0z"/>
        <path data-name="패스 26108" d="M67.767 18.407a1.324 1.324 0 0 1-.674.223c-.295 0-.428-.156-.428-.5v-2.365h.929v-.838h-.929v-1.386l-.894.478v.907H65v.838h.772v2.513a1.05 1.05 0 0 0 1.011 1.165 1.436 1.436 0 0 0 .809-.2l.009-.006.219-.859z" transform="translate(-58.838 -12.257)" style="fill:#fff"/>
        <path data-name="사각형 9835" transform="translate(9.684 2.665)" style="fill:#fff" d="M0 0h.913v4.453H0z"/>
        <path data-name="패스 26109" d="M47.774 1.884a4.427 4.427 0 0 0-7.248 0l-.043.061h1.049l.011-.013a3.577 3.577 0 0 1 5.212 0l.012.013h1.048z" transform="translate(-36.645)" style="fill:#dc0016"/>
    </g>
</svg>
