<svg xmlns="http://www.w3.org/2000/svg" width="40" height="40" viewBox="0 0 40 40">
    <path d="M20 0A20 20 0 1 1 0 20 20 20 0 0 1 20 0z" style="fill:#0c57a8"/>
    <path data-name="패스 25991" d="M4.128.2a1.9 1.9 0 0 0-.961 1.108L.1 10.531a1.918 1.918 0 0 0 1.213 2.425l10.059 3.377a1.915 1.915 0 0 0 2.428-1.214L16.866 5.9a1.921 1.921 0 0 0-1.214-2.427L5.594.1a1.9 1.9 0 0 0-1.466.1" transform="translate(11.598 11.863)" style="fill:#fff"/>
    <path data-name="패스 25992" d="M12.607 12.722a5.253 5.253 0 0 1-2.017 1.406l-.454.176v-4.27l.448.174a5.271 5.271 0 0 1 2.023 1.4 4.622 4.622 0 0 0-2.236-6.733l-1.453-.483a1.241 1.241 0 0 0-1.57.8l-3.077 9.221A1.259 1.259 0 0 0 5.077 16l6.981 2.331a4.62 4.62 0 0 0 .549-5.606m-4.035 1.843h-.693V9.779h.693z" transform="translate(8.035 8.199)" style="fill:#007ec0"/>
    <path data-name="패스 25993" d="M48.6 49.247a4.662 4.662 0 0 0-1.4-1.122v2.251a4.636 4.636 0 0 0 1.4-1.129" transform="translate(-28.361 -28.881)" style="fill:#db2422"/>
    <path data-name="패스 25994" d="m65.248 14.858-6.406-2.141a5.276 5.276 0 0 1 .465 6.551A5.278 5.278 0 0 1 59 25.661l2.406.8a1.242 1.242 0 0 0 1.571-.8l3.078-9.223a1.261 1.261 0 0 0-.808-1.585m-1.7 6.8h-.865l-1.78-2.395 1.808-2.394h.873l-1.812 2.4z" transform="translate(-38.222 1.098)" style="fill:#004187"/>
    <path data-name="사각형 9778" transform="translate(11.599 11.863)" style="fill:none" d="M0 0h16.965v16.433H0z"/>
</svg>
