<svg xmlns="http://www.w3.org/2000/svg" width="40" height="40" viewBox="0 0 24 24">
    <defs>
        <clipPath id="m166cbrj9a">
            <path data-name="사각형 9781" style="fill:none" d="M0 0h11.975v8.53H0z"/>
        </clipPath>
    </defs>
    <circle data-name="타원 1904" cx="12" cy="12" r="12" style="fill:#81776b"/>
    <g data-name="그룹 32107">
        <g data-name="그룹 32106" style="clip-path:url(#m166cbrj9a)" transform="translate(6 8)">
            <path data-name="패스 25995" d="m11.781 4.377-.1-.066a1.856 1.856 0 0 0-1.5-.468 2.828 2.828 0 0 0-1.319.457v-.015a5.252 5.252 0 0 1 .038-.541 5.278 5.278 0 0 0 .039-.544 1.276 1.276 0 0 0-.083-.5.1.1 0 0 0-.094-.06 1.432 1.432 0 0 0-.606.2l-.046.1a4.068 4.068 0 0 1-.089.809L8 3.813a9.876 9.876 0 0 0-.009 2.057c.008.059.121.148.209.18a1.323 1.323 0 0 0 .57-.111l.066-.01a.1.1 0 0 0 .084-.115v-.17a1.692 1.692 0 0 1 1.232-1.207.852.852 0 0 1 .818.264 1.118 1.118 0 0 1-.133.828 1.716 1.716 0 0 1-.936.738 3.591 3.591 0 0 1-1.433.2l-.527-.356a7.609 7.609 0 0 0-1.5-.894 1.78 1.78 0 0 1-.341-.241l-.052-.043c-.29-.233-.841-.6-1.284-.9l-.239-.16v-.05a7.79 7.79 0 0 1 .29-.181 2.986 2.986 0 0 0 .608-.4c-.008.009.052-.031.052-.031l.966-.546a11.856 11.856 0 0 0 2.531-1.651L9 .927l.011-.078A.541.541 0 0 0 9.02.524.1.1 0 0 0 8.945.45a2.11 2.11 0 0 0-1.492.69 1.324 1.324 0 0 1-.311.215l-.078.045c-.558.317-1.814 1.1-2.471 1.517A22.226 22.226 0 0 1 4.927.364l-.017-.1-.068-.127L4.79.046h-.015a.411.411 0 0 0-.317-.023l-.131.048-.175.064A.1.1 0 0 0 4.079.2a10.655 10.655 0 0 0-.638 3 15.142 15.142 0 0 0-1.492-.825h-.008l-.034-.007a1.058 1.058 0 0 1-.348-.168l-.238-.15-.365-.233-.1-.022a1.137 1.137 0 0 0-.547.366.1.1 0 0 0-.009.059.323.323 0 0 0 .016.086l.016.075.017.045a5.239 5.239 0 0 0 1.051.71l.5.266.767.419.132.1.09.052.015.01-1.4.932-.734.486a4.247 4.247 0 0 1-.423.2.6.6 0 0 0-.33.272L0 5.923l.02.028.056.042.076.049.08.058.077.012a1.938 1.938 0 0 0 .677-.225c.328-.146 1.22-.683 1.6-.913l.163-.1a.357.357 0 0 0 .207-.1 2.038 2.038 0 0 1 .344-.208l.115-.066v.044a15.617 15.617 0 0 0 .211 2.666v.012l.012.026a2.91 2.91 0 0 1 .2.612l.145.486c0 .006.041.046.041.046a.966.966 0 0 0 .5.133l.042-.005.034-.057a1.14 1.14 0 0 0 .019-.223c0-.089-.007-.187-.015-.307l-.014-.175a49.562 49.562 0 0 1-.107-2.77v-.062l.743.468a17.543 17.543 0 0 0 3.525 1.943.138.138 0 0 0 .136-.031l.145-.093.026-.013a.26.26 0 0 0 .1-.216A3.521 3.521 0 0 0 11.643 5.9a1.549 1.549 0 0 0 .332-.943.8.8 0 0 0-.193-.578" style="fill:#fca400"/>
        </g>
    </g>
</svg>
