<svg id="logo_신협중앙회_40px" xmlns="http://www.w3.org/2000/svg" xmlns:xlink="http://www.w3.org/1999/xlink" width="40" height="40" viewBox="0 0 40 40">
  <defs>
    <clipPath id="clip-path">
      <rect id="사각형_9801" data-name="사각형 9801" width="18.959" height="16.666" transform="translate(0 0)" fill="none"/>
    </clipPath>
  </defs>
  <circle id="bg" cx="20" cy="20" r="20" fill="#0d57ad"/>
  <g id="logo" transform="translate(10.521 11.666)" clip-path="url(#clip-path)">
    <path id="패스_26079" data-name="패스 26079" d="M17.152,9.807a4.78,4.78,0,0,1-2.242,2.672,7.9,7.9,0,0,0,1.609-9.013c-.61-1.079.167-1.553.167-1.553a1.428,1.428,0,0,0-1.22,1.914,7.355,7.355,0,0,1,.409,4.916l-.585-.327L15.3,8.4a6.161,6.161,0,0,0-4.267-7.374l0-1.028H9.835V6.766l5.547,3.162c-.1.205-.208.4-.319.581L9.491,7.283,3.9,10.509c-.11-.184-.218-.376-.32-.581L9.124,6.766V0H7.93l0,1.028A6.161,6.161,0,0,0,3.66,8.4l.01.014-.586.327a7.35,7.35,0,0,1,.41-4.916,1.428,1.428,0,0,0-1.22-1.914s.776.473.166,1.553a7.9,7.9,0,0,0,1.609,9.013A4.785,4.785,0,0,1,1.805,9.807,1.627,1.627,0,0,0,0,9.012l.8,1.149a6.93,6.93,0,0,0,5.831,4.4v2.108H8.9v-3.1a6.315,6.315,0,0,1-4.253-2.047l.571-.333a6.926,6.926,0,0,0,4.247,1.764v0h.028v0a6.947,6.947,0,0,0,4.249-1.764l.569.333a6.318,6.318,0,0,1-4.254,2.047v3.1h2.274V14.558a6.929,6.929,0,0,0,5.83-4.4,1.818,1.818,0,0,1,.8-1.149,1.629,1.629,0,0,0-1.807.795M14.19,7.792l-.006.006L11.056,6.046,11.037,2.3h.018a4.667,4.667,0,0,1,3.134,5.49M7.9,2.3h.017L7.9,6.046,4.772,7.8l0-.006A4.666,4.666,0,0,1,7.9,2.3m4.7,8.225-.026-.015a4.942,4.942,0,0,1-3.1,1.171,4.941,4.941,0,0,1-3.1-1.171l-.027.015v-.006L9.488,8.7l3.119,1.825Z" transform="translate(0 0)" fill="#fff"/>
  </g>
</svg>
