<svg xmlns="http://www.w3.org/2000/svg" width="40" height="40" viewBox="0 0 24 24">
    <defs>
        <clipPath id="64kcpip6ya">
            <path data-name="사각형 9785" style="fill:none" d="M0 0h11.815v11.133H0z"/>
        </clipPath>
        <clipPath id="rlpaf8vrtb">
            <path data-name="패스 26060" d="M10.78 0a5.566 5.566 0 1 0 5.567 5.567A5.566 5.566 0 0 0 10.78 0z" transform="translate(-5.214 -.001)" style="fill:none"/>
        </clipPath>
    </defs>
    <circle data-name="타원 1991" cx="12" cy="12" r="12" style="fill:#1b9cdd"/>
    <g data-name="그룹 32114">
        <g data-name="그룹 32109">
            <g data-name="그룹 32108" style="clip-path:url(#64kcpip6ya)" transform="translate(6.093 6.434)">
                <path data-name="패스 25996" d="M10.781 11.133a5.566 5.566 0 1 0-5.567-5.566 5.566 5.566 0 0 0 5.567 5.566" transform="translate(-4.896)" style="fill:#006abd"/>
            </g>
        </g>
        <g data-name="그룹 32111">
            <g data-name="그룹 32110" style="clip-path:url(#rlpaf8vrtb)" transform="translate(6.411 6.434)">
                <path data-name="패스 25997" d="M5.907 36.994c2.446 0 4.543.681 5.441 1.651a5.627 5.627 0 0 0 .467-2.253 5.846 5.846 0 0 0-5.908-5.782A5.847 5.847 0 0 0 0 36.392a5.626 5.626 0 0 0 .467 2.252c.9-.97 2.995-1.651 5.44-1.651" transform="translate(-.318 -28.741)" style="fill:#006abd"/>
                <path data-name="패스 25998" d="M6.126 37.758c2.44 0 4.531.676 5.427 1.638a5.553 5.553 0 0 0 .466-2.235 5.822 5.822 0 0 0-5.893-5.742 5.823 5.823 0 0 0-5.892 5.743A5.559 5.559 0 0 0 .7 39.4c.894-.962 2.987-1.638 5.426-1.638" transform="translate(-.538 -29.5)" style="fill:#006cbe"/>
                <path data-name="패스 25999" d="M6.353 38.521c2.434 0 4.52.67 5.413 1.624a5.483 5.483 0 0 0 .464-2.217 5.8 5.8 0 0 0-5.877-5.7 5.8 5.8 0 0 0-5.877 5.701 5.486 5.486 0 0 0 .465 2.216c.891-.954 2.98-1.624 5.412-1.624" transform="translate(-.765 -30.257)" style="fill:#006ec0"/>
                <path data-name="패스 26000" d="M6.573 39.29c2.427 0 4.508.665 5.4 1.611a5.412 5.412 0 0 0 .463-2.2 5.775 5.775 0 0 0-5.863-5.666A5.776 5.776 0 0 0 .711 38.7a5.417 5.417 0 0 0 .463 2.2c.889-.946 2.972-1.611 5.4-1.611" transform="translate(-.986 -31.019)" style="fill:#0070c1"/>
                <path data-name="패스 26001" d="M6.794 40.054c2.421 0 4.5.659 5.385 1.6a5.338 5.338 0 0 0 .462-2.181 5.752 5.752 0 0 0-5.847-5.627 5.753 5.753 0 0 0-5.847 5.626 5.342 5.342 0 0 0 .462 2.18c.887-.938 2.964-1.6 5.384-1.6" transform="translate(-1.208 -31.777)" style="fill:#0072c3"/>
                <path data-name="패스 26002" d="M7.011 40.821c2.415 0 4.485.653 5.371 1.584a5.263 5.263 0 0 0 .461-2.163 5.729 5.729 0 0 0-5.832-5.589 5.73 5.73 0 0 0-5.832 5.59A5.267 5.267 0 0 0 1.64 42.4c.884-.931 2.956-1.584 5.37-1.584" transform="translate(-1.425 -32.537)" style="fill:#0074c4"/>
                <path data-name="패스 26003" d="M7.234 41.585c2.408 0 4.473.648 5.357 1.571a5.2 5.2 0 0 0 .46-2.145 5.706 5.706 0 0 0-5.817-5.551 5.707 5.707 0 0 0-5.816 5.552 5.207 5.207 0 0 0 .46 2.144c.882-.923 2.949-1.571 5.357-1.571" transform="translate(-1.65 -33.296)" style="fill:#0076c6"/>
                <path data-name="패스 26004" d="M7.455 42.348c2.4 0 4.462.643 5.343 1.558a5.129 5.129 0 0 0 .459-2.127 5.683 5.683 0 0 0-5.8-5.512 5.684 5.684 0 0 0-5.8 5.513 5.133 5.133 0 0 0 .459 2.126c.88-.915 2.941-1.558 5.343-1.558" transform="translate(-1.871 -34.053)" style="fill:#0078c7"/>
                <path data-name="패스 26005" d="M7.677 43.115c2.4 0 4.45.637 5.329 1.544a5.057 5.057 0 0 0 .458-2.109 5.66 5.66 0 0 0-5.787-5.474 5.661 5.661 0 0 0-5.786 5.475 5.068 5.068 0 0 0 .457 2.108c.878-.907 2.934-1.544 5.329-1.544" transform="translate(-2.094 -34.813)" style="fill:#007ac9"/>
                <path data-name="패스 26006" d="M7.9 43.881c2.389 0 4.439.631 5.315 1.531a4.988 4.988 0 0 0 .456-2.09A5.637 5.637 0 0 0 7.9 37.886a5.638 5.638 0 0 0-5.771 5.436 5 5 0 0 0 .456 2.089c.875-.9 2.926-1.531 5.315-1.531" transform="translate(-2.315 -35.573)" style="fill:#007ccb"/>
                <path data-name="패스 26007" d="M8.119 44.648c2.383 0 4.427.626 5.3 1.517a4.923 4.923 0 0 0 .455-2.072 5.614 5.614 0 0 0-5.756-5.4 5.615 5.615 0 0 0-5.756 5.4 4.926 4.926 0 0 0 .455 2.071c.873-.892 2.918-1.517 5.3-1.517" transform="translate(-2.537 -36.333)" style="fill:#007ecc"/>
                <path data-name="패스 26008" d="M8.342 45.412c2.377 0 4.416.62 5.287 1.5a4.856 4.856 0 0 0 .454-2.054A5.592 5.592 0 0 0 8.342 39.5 5.593 5.593 0 0 0 2.6 44.863a4.86 4.86 0 0 0 .454 2.053c.871-.884 2.911-1.5 5.287-1.5" transform="translate(-2.761 -37.091)" style="fill:#0080ce"/>
                <path data-name="패스 26009" d="M8.562 46.175c2.371 0 4.4.615 5.273 1.491a4.782 4.782 0 0 0 .452-2.036 5.569 5.569 0 0 0-5.725-5.32 5.57 5.57 0 0 0-5.726 5.321 4.791 4.791 0 0 0 .453 2.035c.868-.876 2.9-1.491 5.273-1.491" transform="translate(-2.981 -37.849)" style="fill:#0082cf"/>
                <path data-name="패스 26010" d="M8.781 46.941c2.364 0 4.392.609 5.259 1.478a4.712 4.712 0 0 0 .452-2.018 5.546 5.546 0 0 0-5.711-5.282 5.548 5.548 0 0 0-5.71 5.281 4.724 4.724 0 0 0 .452 2.017c.866-.868 2.9-1.478 5.259-1.478" transform="translate(-3.202 -38.608)" style="fill:#0085d1"/>
                <path data-name="패스 26011" d="M9 47.706c2.358 0 4.381.6 5.245 1.464a4.651 4.651 0 0 0 .45-2A5.524 5.524 0 0 0 9 41.927a5.526 5.526 0 0 0-5.7 5.244 4.659 4.659 0 0 0 .45 2c.872-.861 2.896-1.465 5.25-1.465" transform="translate(-3.424 -39.367)" style="fill:#0087d2"/>
                <path data-name="패스 26012" d="M9.223 48.475c2.351 0 4.37.6 5.231 1.451a4.584 4.584 0 0 0 .449-1.982 5.5 5.5 0 0 0-5.68-5.205 5.5 5.5 0 0 0-5.68 5.205 4.593 4.593 0 0 0 .449 1.981c.862-.853 2.88-1.451 5.231-1.451" transform="translate(-3.645 -40.13)" style="fill:#0089d4"/>
                <path data-name="패스 26013" d="M9.444 49.238c2.346 0 4.358.593 5.218 1.438a4.514 4.514 0 0 0 .448-1.963 5.48 5.48 0 0 0-5.665-5.167 5.481 5.481 0 0 0-5.665 5.167 4.525 4.525 0 0 0 .448 1.963c.859-.845 2.873-1.438 5.217-1.438" transform="translate(-3.867 -40.886)" style="fill:#008cd6"/>
                <path data-name="패스 26014" d="M9.666 50c2.339 0 4.346.587 5.2 1.425a4.448 4.448 0 0 0 .447-1.945 5.458 5.458 0 0 0-5.65-5.129 5.46 5.46 0 0 0-5.65 5.129 4.459 4.459 0 0 0 .447 1.945C5.319 50.588 7.327 50 9.666 50" transform="translate(-4.089 -41.643)" style="fill:#008ed7"/>
                <path data-name="패스 26015" d="M9.888 50.77c2.333 0 4.335.581 5.19 1.411a4.386 4.386 0 0 0 .445-1.927 5.436 5.436 0 0 0-5.635-5.09 5.438 5.438 0 0 0-5.635 5.091 4.395 4.395 0 0 0 .447 1.927c.855-.83 2.857-1.411 5.189-1.411" transform="translate(-4.312 -42.407)" style="fill:#0090d9"/>
                <path data-name="패스 26016" d="M10.107 51.533c2.326 0 4.323.576 5.175 1.4a4.319 4.319 0 0 0 .444-1.909c0-2.707-2.516-5.052-5.62-5.052s-5.619 2.345-5.619 5.052a4.328 4.328 0 0 0 .444 1.909c.852-.822 2.849-1.4 5.175-1.4" transform="translate(-4.532 -43.163)" style="fill:#0093db"/>
                <path data-name="패스 26017" d="M10.329 52.3c2.32 0 4.312.57 5.161 1.384a4.248 4.248 0 0 0 .443-1.891c0-2.682-2.509-5.014-5.6-5.014s-5.6 2.332-5.6 5.014a4.261 4.261 0 0 0 .443 1.89c.85-.815 2.842-1.384 5.161-1.384" transform="translate(-4.755 -43.92)" style="fill:#0095dc"/>
                <path data-name="패스 26018" d="M10.547 53.063c2.314 0 4.3.564 5.147 1.371a4.187 4.187 0 0 0 .442-1.873c0-2.656-2.5-4.975-5.589-4.975s-5.589 2.32-5.589 4.976a4.2 4.2 0 0 0 .442 1.872c.848-.807 2.834-1.371 5.147-1.371" transform="translate(-4.974 -44.681)" style="fill:#0098de"/>
                <path data-name="패스 26019" d="M10.772 53.828c2.308 0 4.289.559 5.134 1.358a4.124 4.124 0 0 0 .441-1.855c0-2.63-2.5-4.937-5.574-4.937S5.2 50.7 5.2 53.331a4.137 4.137 0 0 0 .44 1.855c.846-.8 2.827-1.358 5.134-1.358" transform="translate(-5.199 -45.439)" style="fill:#009adf"/>
                <path data-name="패스 26020" d="M10.991 54.594c2.3 0 4.277.553 5.12 1.345a4.06 4.06 0 0 0 .439-1.839c0-2.6-2.488-4.9-5.559-4.9s-5.559 2.3-5.559 4.9a4.071 4.071 0 0 0 .439 1.836c.843-.791 2.819-1.345 5.119-1.345" transform="translate(-5.419 -46.199)" style="fill:#009de1"/>
                <path data-name="패스 26021" d="M11.212 55.358c2.295 0 4.265.548 5.105 1.331a3.993 3.993 0 0 0 .438-1.819c0-2.579-2.481-4.86-5.544-4.86s-5.544 2.281-5.544 4.86a4.007 4.007 0 0 0 .438 1.819c.841-.784 2.811-1.331 5.106-1.331" transform="translate(-5.64 -46.958)" style="fill:#00a0e3"/>
                <path data-name="패스 26022" d="M11.434 56.123c2.289 0 4.254.542 5.092 1.318a3.933 3.933 0 0 0 .437-1.8c0-2.554-2.475-4.822-5.528-4.822S5.9 53.088 5.9 55.641a3.945 3.945 0 0 0 .437 1.8c.839-.776 2.8-1.318 5.092-1.318" transform="translate(-5.863 -47.716)" style="fill:#00a2e4"/>
                <path data-name="패스 26023" d="M11.655 56.892c2.282 0 4.242.537 5.078 1.3a3.866 3.866 0 0 0 .436-1.782c0-2.528-2.468-4.783-5.513-4.783s-5.513 2.256-5.513 4.783a3.878 3.878 0 0 0 .435 1.79c.836-.768 2.8-1.3 5.078-1.3" transform="translate(-6.085 -48.479)" style="fill:#00a5e6"/>
                <path data-name="패스 26024" d="M11.876 57.656c2.276 0 4.231.531 5.064 1.291a3.806 3.806 0 0 0 .435-1.764c0-2.5-2.461-4.745-5.5-4.745s-5.5 2.243-5.5 4.745a3.818 3.818 0 0 0 .434 1.764c.834-.76 2.788-1.291 5.064-1.291" transform="translate(-6.307 -49.236)" style="fill:#00a8e8"/>
                <path data-name="패스 26025" d="M12.1 58.419c2.27 0 4.219.526 5.05 1.278a3.741 3.741 0 0 0 .434-1.746c0-2.477-2.454-4.707-5.483-4.707s-5.483 2.23-5.483 4.707a3.759 3.759 0 0 0 .427 1.749c.831-.752 2.781-1.278 5.05-1.278" transform="translate(-6.527 -49.993)" style="fill:#00abe9"/>
                <path data-name="패스 26026" d="M12.317 59.188c2.263 0 4.207.52 5.035 1.265a3.68 3.68 0 0 0 .432-1.728c0-2.451-2.447-4.668-5.468-4.668s-5.468 2.217-5.468 4.668a3.694 3.694 0 0 0 .432 1.728c.829-.745 2.773-1.265 5.036-1.265" transform="translate(-6.749 -50.756)" style="fill:#00aeeb"/>
                <path data-name="패스 26027" d="M12.542 59.95c2.257 0 4.2.515 5.022 1.251a3.619 3.619 0 0 0 .431-1.71c0-2.426-2.44-4.63-5.453-4.63s-5.453 2.2-5.453 4.63A3.635 3.635 0 0 0 7.52 61.2c.827-.737 2.765-1.251 5.022-1.251" transform="translate(-6.975 -51.512)" style="fill:#0ab0ec"/>
                <path data-name="패스 26028" d="M12.761 60.714c2.251 0 4.184.509 5.008 1.238a3.559 3.559 0 0 0 .43-1.692c0-2.4-2.433-4.591-5.437-4.591s-5.439 2.191-5.439 4.59a3.574 3.574 0 0 0 .43 1.692c.825-.729 2.758-1.238 5.008-1.238" transform="translate(-7.194 -52.269)" style="fill:#16b3ee"/>
                <path data-name="패스 26029" d="M12.872 61.427c2.248 0 4.178.506 5 1.23a3.52 3.52 0 0 0 .43-1.681c0-2.384-2.43-4.563-5.43-4.563s-5.43 2.179-5.43 4.563a3.536 3.536 0 0 0 .429 1.681c.824-.724 2.754-1.23 5-1.23" transform="translate(-7.306 -52.969)" style="fill:#27b5ee"/>
                <path data-name="패스 26030" d="M12.983 62.141c2.245 0 4.173.5 4.994 1.222a3.488 3.488 0 0 0 .429-1.67c0-2.368-2.427-4.535-5.423-4.535S7.56 59.325 7.56 61.693a3.5 3.5 0 0 0 .429 1.67c.822-.72 2.75-1.222 4.995-1.222" transform="translate(-7.417 -53.668)" style="fill:#34b7ef"/>
                <path data-name="패스 26031" d="M13.1 62.855c2.242 0 4.167.5 4.987 1.214a3.449 3.449 0 0 0 .428-1.659c0-2.353-2.424-4.507-5.416-4.507s-5.415 2.154-5.415 4.507a3.465 3.465 0 0 0 .428 1.659c.821-.715 2.747-1.214 4.988-1.214" transform="translate(-7.533 -54.368)" style="fill:#3fbaef"/>
                <path data-name="패스 26032" d="M13.211 63.562c2.239 0 4.161.5 4.981 1.206a3.419 3.419 0 0 0 .427-1.648c0-2.337-2.42-4.479-5.408-4.479S7.8 60.783 7.8 63.12a3.427 3.427 0 0 0 .427 1.648c.821-.71 2.743-1.206 4.981-1.206" transform="translate(-7.645 -55.061)" style="fill:#49bcf0"/>
                <path data-name="패스 26033" d="M13.324 64.273c2.236 0 4.156.492 4.974 1.2a3.379 3.379 0 0 0 .427-1.637c0-2.321-2.417-4.45-5.4-4.45s-5.4 2.129-5.4 4.45a3.391 3.391 0 0 0 .427 1.637c.819-.706 2.74-1.2 4.975-1.2" transform="translate(-7.758 -55.758)" style="fill:#52bff1"/>
                <path data-name="패스 26034" d="M13.437 64.987c2.232 0 4.15.489 4.967 1.19a3.344 3.344 0 0 0 .426-1.626c0-2.306-2.414-4.422-5.393-4.422s-5.394 2.116-5.394 4.422a3.355 3.355 0 0 0 .426 1.626c.818-.7 2.736-1.19 4.968-1.19" transform="translate(-7.87 -56.458)" style="fill:#5bc1f1"/>
                <path data-name="패스 26035" d="M13.55 65.7c2.229 0 4.144.486 4.96 1.182a3.308 3.308 0 0 0 .426-1.615c0-2.29-2.411-4.394-5.386-4.394s-5.386 2.1-5.386 4.394a3.317 3.317 0 0 0 .425 1.615c.817-.7 2.732-1.182 4.961-1.182" transform="translate(-7.984 -57.155)" style="fill:#64c4f2"/>
                <path data-name="패스 26036" d="M13.661 66.413c2.227 0 4.138.483 4.953 1.174a3.273 3.273 0 0 0 .425-1.6c0-2.275-2.407-4.365-5.379-4.365s-5.379 2.091-5.379 4.365a3.284 3.284 0 0 0 .425 1.6c.816-.691 2.728-1.174 4.954-1.174" transform="translate(-8.095 -57.856)" style="fill:#6cc7f3"/>
                <path data-name="패스 26037" d="M13.775 67.125c2.223 0 4.133.48 4.946 1.166a3.239 3.239 0 0 0 .425-1.593c0-2.259-2.4-4.337-5.371-4.337S8.4 64.44 8.4 66.7a3.248 3.248 0 0 0 .424 1.593c.815-.686 2.725-1.166 4.948-1.166" transform="translate(-8.208 -58.554)" style="fill:#74c9f3"/>
                <path data-name="패스 26038" d="M13.889 67.837c2.22 0 4.127.476 4.94 1.158a3.2 3.2 0 0 0 .424-1.582c0-2.243-2.4-4.309-5.364-4.309s-5.364 2.066-5.364 4.309A3.211 3.211 0 0 0 8.948 69c.814-.682 2.721-1.158 4.941-1.158" transform="translate(-8.323 -59.251)" style="fill:#7bccf4"/>
                <path data-name="패스 26039" d="M14 68.547c2.217 0 4.121.473 4.933 1.15a3.17 3.17 0 0 0 .423-1.571c0-2.228-2.4-4.281-5.356-4.281S8.643 65.9 8.643 68.126a3.178 3.178 0 0 0 .423 1.574c.813-.677 2.718-1.15 4.935-1.15" transform="translate(-8.434 -59.947)" style="fill:#83cff5"/>
                <path data-name="패스 26040" d="M14.112 69.261c2.214 0 4.115.47 4.926 1.142a3.133 3.133 0 0 0 .423-1.56c0-2.212-2.395-4.253-5.349-4.253s-5.35 2.041-5.35 4.253a3.14 3.14 0 0 0 .422 1.56c.812-.672 2.714-1.142 4.928-1.142" transform="translate(-8.545 -60.646)" style="fill:#8ad1f5"/>
                <path data-name="패스 26041" d="M14.227 69.972c2.211 0 4.11.467 4.919 1.134a3.1 3.1 0 0 0 .422-1.549c0-2.2-2.391-4.224-5.342-4.224s-5.343 2.028-5.343 4.224a3.1 3.1 0 0 0 .421 1.549c.811-.667 2.71-1.134 4.921-1.134" transform="translate(-8.66 -61.344)" style="fill:#91d4f6"/>
                <path data-name="패스 26042" d="M14.339 70.681c2.208 0 4.1.463 4.913 1.126a3.064 3.064 0 0 0 .422-1.538c0-2.181-2.388-4.2-5.334-4.2S9 68.089 9 70.269a3.07 3.07 0 0 0 .421 1.538c.81-.663 2.706-1.126 4.914-1.126" transform="translate(-8.773 -62.039)" style="fill:#98d6f7"/>
                <path data-name="패스 26043" d="M14.451 71.4a8.768 8.768 0 0 1 4.906 1.118 3.028 3.028 0 0 0 .421-1.527c0-2.165-2.385-4.168-5.327-4.168s-5.328 2-5.328 4.168a3.033 3.033 0 0 0 .42 1.527 8.779 8.779 0 0 1 4.908-1.118" transform="translate(-8.884 -62.74)" style="fill:#9fd9f7"/>
                <path data-name="패스 26044" d="M14.564 72.107a8.8 8.8 0 0 1 4.9 1.11 3 3 0 0 0 .42-1.515c0-2.15-2.382-4.14-5.319-4.14s-5.321 1.99-5.321 4.14a3 3 0 0 0 .419 1.516 8.808 8.808 0 0 1 4.9-1.11" transform="translate(-8.997 -63.436)" style="fill:#a6dcf8"/>
                <path data-name="패스 26045" d="M14.676 72.82a8.824 8.824 0 0 1 4.892 1.1 2.961 2.961 0 0 0 .42-1.5c0-2.134-2.378-4.111-5.312-4.111s-5.313 1.978-5.313 4.111a2.968 2.968 0 0 0 .419 1.505 8.837 8.837 0 0 1 4.895-1.1" transform="translate(-9.11 -64.136)" style="fill:#acdef8"/>
                <path data-name="패스 26046" d="M14.79 73.532a8.856 8.856 0 0 1 4.886 1.094 2.93 2.93 0 0 0 .419-1.494c0-2.118-2.375-4.083-5.3-4.083s-5.306 1.965-5.306 4.083a2.934 2.934 0 0 0 .411 1.494 8.868 8.868 0 0 1 4.888-1.094" transform="translate(-9.223 -64.833)" style="fill:#b2e0f9"/>
                <path data-name="패스 26047" d="M14.9 74.24a8.886 8.886 0 0 1 4.879 1.086 2.9 2.9 0 0 0 .419-1.483c0-2.1-2.372-4.055-5.3-4.055s-5.3 1.953-5.3 4.055a2.9 2.9 0 0 0 .418 1.483A8.9 8.9 0 0 1 14.9 74.24" transform="translate(-9.334 -65.527)" style="fill:#b9e3f9"/>
                <path data-name="패스 26048" d="M15.015 74.956a8.918 8.918 0 0 1 4.872 1.078 2.859 2.859 0 0 0 .418-1.472c0-2.087-2.368-4.027-5.29-4.027s-5.291 1.94-5.291 4.027a2.862 2.862 0 0 0 .417 1.472 8.93 8.93 0 0 1 4.874-1.078" transform="translate(-9.449 -66.228)" style="fill:#bfe5fa"/>
                <path data-name="패스 26049" d="M15.129 75.666a8.947 8.947 0 0 1 4.865 1.07 2.828 2.828 0 0 0 .417-1.461c0-2.071-2.365-4-5.283-4s-5.284 1.927-5.284 4a2.829 2.829 0 0 0 .416 1.461 8.961 8.961 0 0 1 4.868-1.07" transform="translate(-9.562 -66.924)" style="fill:#c5e8fa"/>
                <path data-name="패스 26050" d="M15.24 76.379a8.98 8.98 0 0 1 4.86 1.062 2.794 2.794 0 0 0 .417-1.45c0-2.056-2.362-3.971-5.275-3.971s-5.277 1.915-5.277 3.97a2.8 2.8 0 0 0 .416 1.45 9 9 0 0 1 4.861-1.062" transform="translate(-9.673 -67.624)" style="fill:#cbeafb"/>
                <path data-name="패스 26051" d="M15.354 77.091a9.014 9.014 0 0 1 4.852 1.054 2.763 2.763 0 0 0 .417-1.438c0-2.041-2.359-3.942-5.268-3.942s-5.269 1.9-5.269 3.942a2.763 2.763 0 0 0 .415 1.439 9.031 9.031 0 0 1 4.854-1.054" transform="translate(-9.788 -68.321)" style="fill:#d1edfb"/>
                <path data-name="패스 26052" d="M15.464 77.8a9.047 9.047 0 0 1 4.845 1.046 2.727 2.727 0 0 0 .416-1.428c0-2.024-2.356-3.914-5.261-3.914S10.2 75.4 10.2 77.422a2.728 2.728 0 0 0 .415 1.428 9.065 9.065 0 0 1 4.849-1.05" transform="translate(-9.897 -69.02)" style="fill:#d7effc"/>
                <path data-name="패스 26053" d="M15.577 78.515a9.08 9.08 0 0 1 4.838 1.038 2.7 2.7 0 0 0 .415-1.417c0-2.009-2.353-3.886-5.253-3.886s-5.255 1.877-5.255 3.885a2.7 2.7 0 0 0 .414 1.417 9.1 9.1 0 0 1 4.841-1.038" transform="translate(-10.01 -69.718)" style="fill:#ddf2fc"/>
                <path data-name="패스 26054" d="M15.689 79.225a9.114 9.114 0 0 1 4.831 1.03 2.666 2.666 0 0 0 .415-1.406c0-1.994-2.349-3.858-5.246-3.858s-5.247 1.865-5.247 3.857a2.663 2.663 0 0 0 .413 1.406 9.135 9.135 0 0 1 4.834-1.03" transform="translate(-10.123 -70.413)" style="fill:#e3f4fd"/>
                <path data-name="패스 26055" d="M15.8 79.939a9.151 9.151 0 0 1 4.825 1.022 2.632 2.632 0 0 0 .414-1.395c0-1.978-2.346-3.829-5.239-3.829s-5.24 1.852-5.24 3.829a2.633 2.633 0 0 0 .412 1.4 9.169 9.169 0 0 1 4.828-1.027" transform="translate(-10.236 -71.113)" style="fill:#e9f6fd"/>
                <path data-name="패스 26056" d="M15.916 80.652a9.189 9.189 0 0 1 4.818 1.014 2.6 2.6 0 0 0 .414-1.384c0-1.962-2.343-3.8-5.231-3.8s-5.233 1.84-5.233 3.8a2.6 2.6 0 0 0 .412 1.384 9.214 9.214 0 0 1 4.821-1.014" transform="translate(-10.349 -71.811)" style="fill:#eff8fe"/>
                <path data-name="패스 26057" d="M16.03 81.364a9.224 9.224 0 0 1 4.811 1.006 2.568 2.568 0 0 0 .413-1.37c0-1.947-2.34-3.773-5.224-3.773S10.805 79.051 10.805 81a2.564 2.564 0 0 0 .411 1.373 9.245 9.245 0 0 1 4.814-1.006" transform="translate(-10.464 -72.509)" style="fill:#f5fbfe"/>
                <path data-name="패스 26058" d="M16.143 82.076a9.263 9.263 0 0 1 4.8 1 2.537 2.537 0 0 0 .413-1.362c0-1.931-2.337-3.745-5.217-3.745s-5.218 1.814-5.218 3.744a2.532 2.532 0 0 0 .41 1.362 9.285 9.285 0 0 1 4.808-1" transform="translate(-10.576 -73.207)" style="fill:#fafdff"/>
                <path data-name="패스 26059" d="M16.255 82.784a9.3 9.3 0 0 1 4.8.99 2.5 2.5 0 0 0 .412-1.351c0-1.915-2.333-3.716-5.209-3.716s-5.211 1.8-5.211 3.716a2.5 2.5 0 0 0 .41 1.352 9.321 9.321 0 0 1 4.8-.991" transform="translate(-10.688 -73.902)" style="fill:#fff"/>
            </g>
        </g>
        <g data-name="그룹 32113">
            <g data-name="그룹 32112" style="clip-path:url(#64kcpip6ya)" transform="translate(6.093 6.434)">
                <path data-name="패스 26061" d="M18.2 114.174a14.663 14.663 0 0 0-5.084.861 5.567 5.567 0 0 0 10.17 0 14.678 14.678 0 0 0-5.086-.861" transform="translate(-12.315 -107.203)" style="fill:#006abd"/>
            </g>
        </g>
    </g>
</svg>
