<svg xmlns="http://www.w3.org/2000/svg" width="40" height="40" viewBox="0 0 24 24">
    <defs>
        <clipPath id="2pyebf6pva">
            <path data-name="사각형 9789" style="fill:none" d="M0 0h16.11v4.65H0z"/>
        </clipPath>
    </defs>
    <circle cx="12" cy="12" r="12" style="fill:#e13d37"/>
    <g transform="translate(4 9.999)" style="clip-path:url(#2pyebf6pva)">
        <path data-name="패스 26062" d="M58.09.83h.415a.047.047 0 0 0 .048-.046V.047A.047.047 0 0 0 58.505 0h-.583a1.174 1.174 0 0 0-1.235.635l-1.268 2.927a.387.387 0 0 1-.407.258V.047a.048.048 0 0 0-.05-.047h-.931a.048.048 0 0 0-.049.047v4.521a.085.085 0 0 0 .087.082h1.045c.674 0 .982-.2 1.186-.635l1.251-2.891A.51.51 0 0 1 58.09.83" transform="translate(-42.953)" style="fill:#fff"/>
        <path data-name="패스 26063" d="M3.751 2.325A1.04 1.04 0 0 0 4.434 1.3C4.434.493 3.694 0 2.8 0H.049A.048.048 0 0 0 0 .046v.738A.047.047 0 0 0 .049.83h2.563c.414 0 .694.239.694.532s-.28.532-.694.532H1.09v-.549a.048.048 0 0 0-.049-.045H.049A.047.047 0 0 0 0 1.345V4.6a.048.048 0 0 0 .049.047h2.714C3.778 4.65 4.5 4.2 4.5 3.294a1.01 1.01 0 0 0-.754-.969M2.665 3.84H1.09V2.749h1.575c.425 0 .711.244.711.545s-.287.545-.711.545" style="fill:#fff"/>
        <path data-name="패스 26064" d="m70.852 14.969-1.6-1.925a.008.008 0 0 0-.014 0l-.43.991a.018.018 0 0 0 0 .019l.7.883a.218.218 0 0 0 .189.085h1.125a.031.031 0 0 0 .027-.053" transform="translate(-54.752 -10.372)" style="fill:#fff"/>
        <path data-name="패스 26065" d="M26.787 6.352h-.933a.048.048 0 0 0-.054.048v3.256a.048.048 0 0 0 .049.047h.933a.048.048 0 0 0 .049-.047V6.4a.048.048 0 0 0-.049-.046" transform="translate(-20.533 -5.053)" style="fill:#fff"/>
        <path data-name="패스 26066" d="M30.624 0h-.932a.048.048 0 0 0-.049.046V3.82a.386.386 0 0 1-.406-.258L27.969.635C27.765.2 27.408 0 26.733 0h-.879a.048.048 0 0 0-.049.046v.738a.047.047 0 0 0 .049.046h.711a.51.51 0 0 1 .539.3l1.251 2.89c.2.431.512.634 1.186.634h1.045a.084.084 0 0 0 .086-.082V.046A.048.048 0 0 0 30.624 0" transform="translate(-20.534)" style="fill:#fff"/>
    </g>
</svg>
