<svg xmlns="http://www.w3.org/2000/svg" width="40" height="40" viewBox="0 0 24 24">
    <defs>
        <clipPath id="iz7pwuwhwa">
            <path data-name="사각형 9791" style="fill:none" d="M0 0h12.91v5H0z"/>
        </clipPath>
    </defs>
    <circle cx="12" cy="12" r="12" style="fill:#08438c"/>
    <g transform="translate(5.545 9.499)" style="clip-path:url(#iz7pwuwhwa)">
        <path data-name="패스 26067" d="M1.718.189H0l.02.049a2.49 2.49 0 0 1 .067.822v3.967h.031c.008 0 .783.028 1.517.028A2.44 2.44 0 0 0 4.2 2.469 2.237 2.237 0 0 0 1.718.189m-.9.433c.1-.008.4-.03.621-.03 1.312 0 1.924.636 1.924 2 0 1.411-.543 2.1-1.661 2.1-.818 0-.884-.04-.884-.524z" transform="translate(0 -.145)" style="fill:#fff"/>
        <path data-name="패스 26068" d="M23.943 4.852a7.406 7.406 0 0 1-.036-.644V2.513h-.817l.027.052a1.23 1.23 0 0 1 .083.519c0 .012 0 1.178-.029 1.453a2.832 2.832 0 0 1-.632.069c-1.3 0-1.953-.744-1.953-2.209a1.931 1.931 0 0 1 1.8-2.03 2 2 0 0 1 1.431.405l.059.051V.139l-.03-.005A5.96 5.96 0 0 0 22.728 0c-1.865 0-2.978.982-2.978 2.626A2.347 2.347 0 0 0 22.383 5a10.027 10.027 0 0 0 1.531-.111l.033-.006z" transform="translate(-15.129 -.001)" style="fill:#fff"/>
        <path data-name="패스 26069" d="M43.125 2.371a1.193 1.193 0 0 0 .914-1.136c0-.655-.591-1.046-1.581-1.046h-1.47L41 .233a3.243 3.243 0 0 1 .043.641v4.2h.036s.578-.011 1.286-.011c1.236 0 1.944-.537 1.944-1.471a1.337 1.337 0 0 0-1.183-1.214m-1.35.235h.379c.876 0 1.319.344 1.319 1.022 0 .715-.382 1.063-1.168 1.063-.381 0-.53-.138-.53-.491zm0-2.037h.48c.756 0 1.078.229 1.078.765 0 .61-.4.894-1.247.894h-.313z" transform="translate(-31.398 -.145)" style="fill:#fff"/>
    </g>
</svg>
