<svg id="logo_토스_40px" xmlns="http://www.w3.org/2000/svg" xmlns:xlink="http://www.w3.org/1999/xlink" width="40" height="40" viewBox="0 0 40 40">
  <defs>
    <clipPath id="clip-path">
      <rect id="사각형_9842" data-name="사각형 9842" width="16.029" height="13.985" fill="none"/>
    </clipPath>
  </defs>
  <circle id="bg" cx="20" cy="20" r="20" fill="#1258ff"/>
  <g id="logo" transform="translate(11.985 13.008)" clip-path="url(#clip-path)">
    <path id="패스_26113" data-name="패스 26113" d="M15.981,6.182A6.993,6.993,0,0,0,9.114,0H9.036a7.065,7.065,0,0,0-.81.047,6.967,6.967,0,0,0-2.7.9h0L5.47.976,5.424,1C1.426,3.386,0,8.883,0,12.23l3.22-1.859a6.61,6.61,0,0,0,5.739,3.613h.077a7.064,7.064,0,0,0,.81-.047,6.992,6.992,0,0,0,6.135-7.755" transform="translate(0 0)" fill="#fff"/>
  </g>
</svg>
