<svg xmlns="http://www.w3.org/2000/svg" width="64" height="64" viewBox="0 0 64 64">
    <path data-name="사각형 460909" style="fill:none" d="M0 0h64v64H0z"/>
    <g data-name="그룹 629931" transform="translate(21111 22302)">
        <g data-name="사각형 460938" transform="translate(-21100 -22284)" style="stroke-linejoin:round;stroke-linecap:round;stroke:#292929;stroke-width:2px;fill:none">
            <rect width="36" height="35" rx="5" style="stroke:none"/>
            <rect x="1" y="1" width="34" height="33" rx="4" style="fill:none"/>
        </g>
        <path data-name="패스 1512489" d="M-21098.834-22275.332h33.873" style="stroke:#292929;stroke-width:2px;fill:none"/>
        <rect data-name="사각형 460940" width="2" height="7" rx="1" transform="translate(-21089 -22287)" style="fill:#292929"/>
        <rect data-name="사각형 460941" width="2" height="7" rx="1" transform="translate(-21077 -22287)" style="fill:#292929"/>
        <text data-name="3" transform="translate(-21087 -22258)" style="font-size:15px;font-family:Poppins-Bold,Poppins;font-weight:700;fill:#292929"><tspan x="-4.537" y="0">3</tspan></text>
        <g data-name="그룹 629931">
            <path data-name="패스 1512490" d="M-21076.074-22259.482v-8.613" transform="rotate(180 -21076.01 -22263.79)" style="stroke-linecap:round;stroke:#292929;stroke-width:2px;fill:none"/>
            <path data-name="패스 1512491" d="m-21079.592-22266.5 3.553-2.914 3.611 2.914" transform="rotate(180 -21076.01 -22264.147)" style="stroke-linejoin:round;stroke-linecap:round;stroke:#292929;stroke-width:2px;fill:none"/>
        </g>
    </g>
    <path data-name="사각형 460999" transform="translate(43 46)" style="fill:#fff" d="M0 0h17v15H0z"/>
    <path data-name="패스 1512530" d="M-21054.809-22238.818h0c.012 0 6-1.416 6.092-6.459s-2.008-6.809-2.008-6.809-2.049 3.527-3.479 3.393 1.746-.629 0-7.076-4.521-5.76-4.521-5.76c0-.072 2.486 3.287-3.309 8.447s-5.266 8.6-3.43 11.4a6.44 6.44 0 0 0 4.906 2.861s-3.1-2.512-1.9-5.77a9.636 9.636 0 0 1 4.234-4.8 3.124 3.124 0 0 0 .461 4.115c1.416 1.314 3.158 1.957 2.955 4.918-.92 2.8.115.9 0 1.541" transform="translate(21107.016 22295.549)" style="fill:#fff;stroke-linejoin:round;stroke-linecap:round;stroke:#292929;stroke-width:2px"/>
</svg>
